SplineFontDB: 3.2
FontName: D-DIN-PRO-Condensed-Regular-Italic
FullName: D-DIN-PRO-Condensed-Regular-Italic
FamilyName: D-DIN-PRO-Condensed
Weight: Regular
Copyright: Copyright (c) CyberFei. All rights reserved
Version: 1.1.0
ItalicAngle: -13
UnderlinePosition: -150
UnderlineWidth: 50
Ascent: 831
Descent: 169
InvalidEm: 0
sfntRevision: 0x00010000
LayerCount: 2
Layer: 0 0 "Back" 1
Layer: 1 0 "Fore" 0
XUID: [1021 868 -1451673819 12927]
StyleMap: 0x0040
FSType: 4
OS2Version: 3
OS2_WeightWidthSlopeOnly: 0
OS2_UseTypoMetrics: 0
CreationTime: 1462909513
ModificationTime: 1778060080
PfmFamily: 17
TTFWeight: 400
TTFWidth: 3
LineGap: 86
VLineGap: 0
Panose: 2 11 5 6 3 2 2 3 2 4
OS2TypoAscent: 831
OS2TypoAOffset: 0
OS2TypoDescent: -169
OS2TypoDOffset: 0
OS2TypoLinegap: 86
OS2WinAscent: 902
OS2WinAOffset: 0
OS2WinDescent: 184
OS2WinDOffset: 0
HheadAscent: 831
HheadAOffset: 0
HheadDescent: -169
HheadDOffset: 0
OS2SubXSize: 650
OS2SubYSize: 600
OS2SubXOff: 0
OS2SubYOff: 75
OS2SupXSize: 650
OS2SupYSize: 600
OS2SupXOff: 0
OS2SupYOff: 350
OS2StrikeYSize: 50
OS2StrikeYPos: 310
OS2CapHeight: 690
OS2XHeight: 517
OS2Vendor: 'MONO'
OS2CodePages: 00000001.00000000
OS2UnicodeRanges: 8000006f.4000000a.00000000.00000000
Lookup: 1 0 0 "'rtla' Right to Left Alternates lookup 0" { "'rtla' Right to Left Alternates lookup 0 subtable"  } ['rtla' ('DFLT' <'dflt' > ) ]
Lookup: 1 0 0 "'sups' Superscript lookup 1" { "'sups' Superscript lookup 1 subtable" ("superior") } ['sups' ('DFLT' <'dflt' > ) ]
Lookup: 4 0 0 "'frac' Diagonal Fractions lookup 2" { "'frac' Diagonal Fractions lookup 2 subtable"  } ['frac' ('DFLT' <'dflt' > ) ]
Lookup: 4 0 0 "'dlig' Discretionary Ligatures in Latin lookup 3" { "'dlig' Discretionary Ligatures in Latin lookup 3 subtable"  } ['dlig' ('latn' <'dflt' > ) ]
Lookup: 4 0 1 "'liga' Standard Ligatures in Latin lookup 4" { "'liga' Standard Ligatures in Latin lookup 4 subtable"  } ['liga' ('latn' <'dflt' > ) ]

StartChar: .notdef
Encoding: 65536 -1 0
Width: 600
GlyphClass: 1
Flags: MW
HStem: 0 34<59.2754 388.275 59.2754 414.426> 656 34<202.875 531.875 202.875 202.875>
LayerCount: 2
Fore
SplineSet
176.724609375 690 m 1
 573.724609375 690 l 1
 414.42578125 0 l 1
 17.42578125 0 l 1
 176.724609375 690 l 1
388.275390625 34 m 1
 531.875 656 l 1
 202.875 656 l 1
 59.275390625 34 l 1
 388.275390625 34 l 1
EndSplineSet
EndChar

StartChar: exclam
Encoding: 33 33 3
Width: 204
GlyphClass: 2
Flags: MW
HStem: 0 97<1.82031 57.4258 -20.5742 79.8203> 670 20G<134.725 220.725 220.725 220.725>
VStem: -20.5742 78<0 0>
LayerCount: 2
Fore
SplineSet
134.724609375 690 m 1
 220.724609375 690 l 1
 91.67578125 196 l 1
 34.67578125 196 l 1
 134.724609375 690 l 1
1.8203125 97 m 1
 79.8203125 97 l 1
 57.42578125 0 l 1
 -20.57421875 0 l 1
 1.8203125 97 l 1
EndSplineSet
EndChar

StartChar: quotedbl
Encoding: 34 34 4
Width: 280
GlyphClass: 2
Flags: MW
HStem: 458 232<116.725 131.163 63.1631 184.725 116.725 193.163 246.725 261.163>
VStem: 63.1631 251.562<458 690>
LayerCount: 2
Fore
SplineSet
116.724609375 690 m 1
 184.724609375 690 l 1
 131.163085938 458 l 1
 63.1630859375 458 l 1
 116.724609375 690 l 1
246.724609375 690 m 1
 314.724609375 690 l 1
 261.163085938 458 l 1
 193.163085938 458 l 1
 246.724609375 690 l 1
EndSplineSet
EndChar

StartChar: numbersign
Encoding: 35 35 5
Width: 462
GlyphClass: 2
Flags: MW
HStem: 0 21G<-18.5742 46.4258 -18.5742 -18.5742 164.426 229.426 164.426 164.426> 223 60<1.76172 57.9092 -12.0908 77.7617 143.762 240.909 1.76172 122.909 326.762 389.909> 426 60<69.6279 126.775 55.7754 147.628 69.6279 192.775 212.628 309.775 395.628 456.775> 670 20G<216.725 282.725 282.725 282.725 399.725 465.725 465.725 465.725>
LayerCount: 2
Fore
SplineSet
375.775390625 426 m 1
 326.76171875 283 l 1
 403.76171875 283 l 1
 389.909179688 223 l 1
 305.909179688 223 l 1
 229.42578125 0 l 1
 164.42578125 0 l 1
 240.909179688 223 l 1
 122.909179688 223 l 1
 46.42578125 0 l 1
 -18.57421875 0 l 1
 57.9091796875 223 l 1
 -12.0908203125 223 l 1
 1.76171875 283 l 1
 77.76171875 283 l 1
 126.775390625 426 l 1
 55.775390625 426 l 1
 69.6279296875 486 l 1
 147.627929688 486 l 1
 216.724609375 690 l 1
 282.724609375 690 l 1
 212.627929688 486 l 1
 330.627929688 486 l 1
 399.724609375 690 l 1
 465.724609375 690 l 1
 395.627929688 486 l 1
 470.627929688 486 l 1
 456.775390625 426 l 1
 375.775390625 426 l 1
309.775390625 426 m 1
 192.775390625 426 l 1
 143.76171875 283 l 1
 260.76171875 283 l 1
 309.775390625 426 l 1
EndSplineSet
EndChar

StartChar: dollar
Encoding: 36 36 6
Width: 372
GlyphClass: 2
Flags: MW
VStem: -12.5547 69<194.998 194.998> 296.551 62<489.999 489.999>
LayerCount: 2
Fore
SplineSet
239.279296875 79.5 m 0
 211.584960938 50.5 176.711914062 32.998046875 134.66015625 26.998046875 c 1
 111.803710938 -72.001953125 l 1
 58.8037109375 -72.001953125 l 1
 81.4287109375 25.998046875 l 1
 -1.69921875 32.6650390625 -33.0263671875 88.998046875 -12.5546875 194.998046875 c 1
 56.4453125 194.998046875 l 1
 45.46484375 132.998046875 58.4091796875 96.6650390625 95.2802734375 85.998046875 c 1
 149.072265625 318.998046875 l 1
 139.2265625 323.998046875 l 2
 99.5361328125 342.665039062 73.615234375 364.665039062 61.4638671875 389.998046875 c 0
 49.3125 415.33203125 48.0078125 448.665039062 57.55078125 489.998046875 c 0
 69.248046875 540.666015625 90.2392578125 580.333007812 120.524414062 608.999023438 c 0
 150.809570312 637.66796875 186.491210938 654.334960938 227.567382812 658.999023438 c 1
 249.26953125 752.999023438 l 1
 302.26953125 752.999023438 l 1
 280.336914062 657.999023438 l 1
 349.720703125 646.666015625 375.791992188 590.666015625 358.55078125 489.999023438 c 1
 296.55078125 489.999023438 l 1
 307.94140625 547.999023438 297.611328125 582.666015625 265.561523438 593.999023438 c 1
 215.462890625 376.999023438 l 1
 253.974609375 358.999023438 279.958984375 335.83203125 293.416992188 307.499023438 c 0
 306.875976562 279.166015625 308.373046875 242.333007812 297.907226562 197 c 0
 286.517578125 147.666992188 266.974609375 108.5 239.279296875 79.5 c 0
127.930664062 437.498046875 m 0
 134.647460938 421.831054688 147.774414062 408.666015625 167.3125 398 c 1
 213.254882812 597 l 1
 191.510742188 592.333007812 173.21484375 581.666015625 158.3671875 564.999023438 c 0
 143.51953125 548.33203125 133.016601562 526.665039062 126.860351562 499.998046875 c 0
 120.857421875 473.998046875 121.21484375 453.165039062 127.930664062 437.498046875 c 0
228.830078125 188 m 0
 235.140625 215.333007812 235.642578125 237 230.3359375 253 c 0
 225.030273438 269 213.685546875 282.666992188 196.301757812 294 c 1
 148.512695312 87 l 1
 189.12890625 98.3330078125 215.901367188 132 228.830078125 188 c 0
133.725585938 690 m 1024
EndSplineSet
EndChar

StartChar: percent
Encoding: 37 37 7
Width: 691
GlyphClass: 2
Flags: MW
HStem: -7.99902 62<476.23 486.581> 0 21G<107.427 170.427 107.427 107.427> 264 62<123.024 133.375> 363.001 62<550.88 560.9> 635.001 61.999<197.674 207.696> 670 20G<514.726 577.726 577.726 577.726>
LayerCount: 2
Fore
SplineSet
43.1474609375 295.5 m 0x38
 30.9951171875 316.5 29.845703125 348.333007812 39.6962890625 391 c 2
 81.4833984375 572 l 2
 91.1796875 614 107.080078125 645.333007812 129.184570312 666 c 0
 151.2890625 686.666992188 180.0078125 697 215.340820312 697 c 0
 251.340820312 697 275.455078125 686.666992188 287.68359375 666 c 0
 299.912109375 645.333007812 301.178710938 614 291.482421875 572 c 2
 249.6953125 391 l 2
 239.844726562 348.333007812 223.995117188 316.5 202.147460938 295.5 c 0
 180.298828125 274.5 151.375 264 115.375 264 c 0
 79.375 264 55.298828125 274.5 43.1474609375 295.5 c 0x38
514.725585938 690 m 1x74
 577.725585938 690 l 1
 170.426757812 0 l 1
 107.426757812 0 l 1
 514.725585938 690 l 1x74
161.15234375 341 m 0
 168.794921875 351 175.310546875 367.66796875 180.697265625 391.000976562 c 2
 222.484375 572.000976562 l 2
 227.717773438 594.669921875 228.783203125 610.836914062 225.681640625 620.500976562 c 0
 222.579101562 630.16796875 214.362304688 635.000976562 201.029296875 635.000976562 c 0x38
 187.696289062 635.000976562 177.247070312 630.16796875 169.682617188 620.500976562 c 0
 162.118164062 610.833984375 155.71875 594.666992188 150.485351562 572 c 2
 108.698242188 391 l 2
 103.311523438 367.666992188 102.130859375 351 105.154296875 341 c 0
 108.178710938 331 116.357421875 326 129.690429688 326 c 0
 143.0234375 326 153.510742188 331 161.15234375 341 c 0
396.353515625 23.5009765625 m 0
 384.201171875 44.5009765625 383.051757812 76.333984375 392.90234375 119.000976562 c 2
 434.689453125 300.000976562 l 2
 444.385742188 342.000976562 460.286132812 373.333984375 482.390625 394.000976562 c 0
 504.495117188 414.66796875 533.213867188 425.000976562 568.546875 425.000976562 c 0
 604.546875 425.000976562 628.661132812 414.66796875 640.889648438 394.000976562 c 0
 653.118164062 373.333984375 654.384765625 342.000976562 644.688476562 300.000976562 c 2
 602.901367188 119.000976562 l 2
 593.05078125 76.333984375 577.201171875 44.5009765625 555.353515625 23.5009765625 c 0
 533.504882812 2.5009765625 504.581054688 -7.9990234375 468.581054688 -7.9990234375 c 0xb0
 432.581054688 -7.9990234375 408.504882812 2.5009765625 396.353515625 23.5009765625 c 0
514.358398438 69.0009765625 m 0
 522 79.0009765625 528.515625 95.6669921875 533.903320312 119 c 2
 575.690429688 300 l 2
 580.922851562 322.666992188 581.98828125 338.833984375 578.887695312 348.500976562 c 0
 575.78125 358.16796875 567.564453125 363.000976562 554.235351562 363.000976562 c 0
 540.900390625 363.000976562 530.451171875 358.16796875 522.888671875 348.500976562 c 0
 515.323242188 338.833984375 508.923828125 322.666992188 503.69140625 300.000976562 c 2
 461.904296875 119.000976562 l 2
 456.517578125 95.66796875 455.3359375 79.0009765625 458.360351562 69.0009765625 c 0
 461.384765625 59.0009765625 469.563476562 54.0009765625 482.896484375 54.0009765625 c 0
 496.229492188 54.0009765625 506.716796875 59.0009765625 514.358398438 69.0009765625 c 0
EndSplineSet
EndChar

StartChar: ampersand
Encoding: 38 38 8
Width: 519
GlyphClass: 2
Flags: MW
HStem: -10.001 69.001<120.709 126.781> -0.999023 21G<343.858 352.191 352.191 385.191> 638.001 61.998<287.364 303.382>
LayerCount: 2
Fore
SplineSet
400.893554688 67 m 1xa0
 385.19140625 -0.9990234375 l 1
 352.19140625 -0.9990234375 l 2x60
 335.524414062 -0.9990234375 323.254882812 2.16796875 315.384765625 8.5009765625 c 0
 307.513671875 14.833984375 300.578125 26.6669921875 294.580078125 44 c 2
 282.198242188 77 l 1
 254.451171875 46.3330078125 226.833984375 24.166015625 199.345703125 10.4990234375 c 0
 171.857421875 -3.16796875 142.447265625 -10.0009765625 111.114257812 -10.0009765625 c 0
 65.78125 -10.0009765625 33.2568359375 4.33203125 13.5419921875 32.9990234375 c 0
 -6.1728515625 61.666015625 -10.56640625 99.666015625 0.361328125 146.999023438 c 0
 8.3642578125 181.666015625 25.8681640625 216.333007812 52.8720703125 251 c 0
 79.875 285.666992188 120.584960938 327 174.999023438 375 c 1
 171.846679688 383 l 2
 155.1328125 429 144.329101562 464.5 139.43359375 489.5 c 0
 134.538085938 514.5 134.78515625 538.666992188 140.171875 562 c 0
 149.713867188 603.333007812 170.077148438 636.666015625 201.2578125 661.999023438 c 0
 232.439453125 687.33203125 267.697265625 699.999023438 307.030273438 699.999023438 c 0
 347.030273438 699.999023438 376.60546875 687.33203125 395.756835938 661.999023438 c 0
 414.908203125 636.6640625 419.712890625 603.331054688 410.170898438 561.999023438 c 0
 403.244140625 531.999023438 388.766601562 502.499023438 366.73828125 473.499023438 c 0
 344.7109375 444.499023438 309.181640625 408.999023438 260.15234375 366.999023438 c 1
 317.212890625 206.999023438 l 1
 391.991210938 296.999023438 l 1
 437.911132812 261.999023438 l 1
 339.899414062 144.999023438 l 1
 356.817382812 96.9990234375 l 2
 360.868164062 85.666015625 365.2265625 77.8330078125 369.893554688 73.5 c 0
 374.560546875 69.1669921875 381.2265625 67 389.893554688 67 c 2
 400.893554688 67 l 1xa0
243.098632812 618.000976562 m 0
 228.6875 604.66796875 218.864257812 586.666992188 213.631835938 564 c 0
 210.245117188 549.333007812 210.026367188 532.5 212.97265625 513.5 c 0
 215.918945312 494.5 224.16015625 466.666992188 237.6953125 430 c 1
 272.26171875 461.333007812 296.533203125 486.333007812 310.509765625 505 c 0
 324.487304688 523.668945312 333.860351562 543.3359375 338.631835938 564.000976562 c 0
 344.018554688 587.333984375 342.712890625 605.500976562 334.713867188 618.500976562 c 0
 326.71484375 631.500976562 313.048828125 638.000976562 293.715820312 638.000976562 c 0
 274.381835938 638.000976562 257.509765625 631.333984375 243.098632812 618.000976562 c 0
191.083007812 76.5 m 0
 210.443359375 88.1669921875 233.25390625 109 259.512695312 139 c 1
 197.68359375 313 l 1
 158.346679688 278.333007812 129.369140625 248.833007812 110.751953125 224.5 c 0
 92.1337890625 200.166992188 79.9775390625 175.666992188 74.283203125 151 c 0
 67.5107421875 121.666992188 69.4443359375 99 80.083984375 83 c 0
 90.72265625 67 108.375976562 59 133.04296875 59 c 0xa0
 152.375976562 59 171.72265625 64.8330078125 191.083007812 76.5 c 0
EndSplineSet
EndChar

StartChar: quotesingle
Encoding: 39 39 9
Width: 150
GlyphClass: 2
Flags: MW
HStem: 458 232<116.725 131.163 63.1631 184.725>
VStem: 63.1631 121.562
LayerCount: 2
Fore
SplineSet
116.724609375 690 m 1
 184.724609375 690 l 1
 131.163085938 458 l 1
 63.1630859375 458 l 1
 116.724609375 690 l 1
EndSplineSet
EndChar

StartChar: parenleft
Encoding: 40 40 10
Width: 259
GlyphClass: 2
Flags: MW
VStem: 19.168 66.8477
LayerCount: 2
Fore
SplineSet
19.16796875 118 m 0
 18.3291015625 188 25.9892578125 257.999023438 42.150390625 327.999023438 c 0
 58.46484375 398.666015625 83.203125 468.999023438 116.36328125 538.999023438 c 0
 149.524414062 608.999023438 189.825195312 675.999023438 237.267578125 739.999023438 c 1
 296.267578125 739.999023438 l 1
 251.697265625 673.999023438 213.666015625 605.999023438 182.171875 535.999023438 c 0
 150.677734375 465.999023438 127.00390625 396.666015625 111.151367188 327.999023438 c 0
 95.2978515625 259.33203125 86.919921875 189.83203125 86.015625 119.499023438 c 0
 85.1103515625 49.166015625 91.783203125 -18.6669921875 106.033203125 -84 c 1
 47.033203125 -84 l 1
 29.294921875 -19.3330078125 20.0078125 48 19.16796875 118 c 0
EndSplineSet
Substitution2: "'rtla' Right to Left Alternates lookup 0 subtable" parenright
EndChar

StartChar: parenright
Encoding: 41 41 11
Width: 259
GlyphClass: 2
Flags: MW
VStem: 132.15 69.001<328 328> 157.171 67.1943
LayerCount: 2
Fore
SplineSet
61.0146484375 119.5 m 0x80
 92.5849609375 189.833007812 116.297851562 259.333984375 132.150390625 328.000976562 c 0x80
 148.00390625 396.66796875 156.34375 466.000976562 157.170898438 536.000976562 c 0
 157.999023438 606.000976562 151.365234375 674.000976562 137.26953125 740.000976562 c 1
 196.26953125 740.000976562 l 1
 214.161132812 676.000976562 223.525390625 609.000976562 224.365234375 539.000976562 c 0x40
 225.204101562 469.000976562 217.466796875 398.66796875 201.151367188 328.000976562 c 0
 184.991210938 258.000976562 160.330078125 188.000976562 127.168945312 118.000976562 c 0
 94.0087890625 48.0009765625 53.630859375 -19.33203125 6.0341796875 -83.9990234375 c 1
 -52.9658203125 -83.9990234375 l 1
 -8.5498046875 -18.666015625 29.443359375 49.1669921875 61.0146484375 119.5 c 0x80
EndSplineSet
Substitution2: "'rtla' Right to Left Alternates lookup 0 subtable" parenleft
EndChar

StartChar: asterisk
Encoding: 42 42 12
Width: 348
GlyphClass: 2
Flags: MW
HStem: 409 281<159.851 274.725 159.851 274.725>
VStem: 83.4756 267.778<507 597>
LayerCount: 2
Fore
SplineSet
299.471679688 468 m 1
 233.629882812 512 l 1
 209.850585938 409 l 1
 159.850585938 409 l 1
 183.629882812 512 l 1
 97.4716796875 468 l 1
 83.4755859375 507 l 1
 171.865234375 552 l 1
 104.25390625 597 l 1
 136.48828125 637 l 1
 202.330078125 593 l 1
 224.724609375 690 l 1
 274.724609375 690 l 1
 252.099609375 592 l 1
 338.2578125 636 l 1
 351.25390625 597 l 1
 262.865234375 552 l 1
 331.475585938 507 l 1
 299.471679688 468 l 1
EndSplineSet
EndChar

StartChar: plus
Encoding: 43 43 13
Width: 420
GlyphClass: 2
Flags: MW
HStem: 243 66<27.7637 150.526 12.5264 165.764 230.764 353.526 27.7637 215.526>
LayerCount: 2
Fore
SplineSet
353.526367188 243 m 1
 215.526367188 243 l 1
 183.897460938 106 l 1
 118.897460938 106 l 1
 150.526367188 243 l 1
 12.5263671875 243 l 1
 27.763671875 309 l 1
 165.763671875 309 l 1
 197.392578125 446 l 1
 262.392578125 446 l 1
 230.763671875 309 l 1
 368.763671875 309 l 1
 353.526367188 243 l 1
EndSplineSet
EndChar

StartChar: comma
Encoding: 44 44 14
Width: 150
GlyphClass: 2
Flags: MW
HStem: -141 234<-75.127 46.8965>
VStem: -75.127 122.023
LayerCount: 2
Fore
SplineSet
-21.103515625 93 m 1
 46.896484375 93 l 1
 6.494140625 -82 l 1
 -75.126953125 -141 l 1
 -21.103515625 93 l 1
EndSplineSet
EndChar

StartChar: hyphen
Encoding: 45 45 15
Width: 375
GlyphClass: 2
Flags: MW
HStem: 315 65<54.1553 314.149 39.1494 329.155>
VStem: 39.1494 290.006<315 380>
LayerCount: 2
Fore
SplineSet
54.1552734375 380 m 1
 329.155273438 380 l 1
 314.149414062 315 l 1
 39.1494140625 315 l 1
 54.1552734375 380 l 1
EndSplineSet
EndChar

StartChar: period
Encoding: 46 46 16
Width: 160
GlyphClass: 2
Flags: MW
HStem: 0 89<-22.0273 35.4258 -42.5742 55.9727>
VStem: -42.5742 98.5469<0 89>
LayerCount: 2
Fore
SplineSet
-22.02734375 89 m 1
 55.97265625 89 l 1
 35.42578125 0 l 1
 -42.57421875 0 l 1
 -22.02734375 89 l 1
EndSplineSet
EndChar

StartChar: slash
Encoding: 47 47 17
Width: 296
GlyphClass: 2
Flags: MW
HStem: 670 20G<256.725 321.725 321.725 321.725>
LayerCount: 2
Fore
SplineSet
256.724609375 690 m 1
 321.724609375 690 l 1
 29.1171875 -10 l 1
 -35.8828125 -10 l 1
 256.724609375 690 l 1
EndSplineSet
EndChar

StartChar: zero
Encoding: 48 48 18
Width: 403
GlyphClass: 2
Flags: MW
HStem: -9 65<117.021 145.688 117.021 166.014> 633.998 65.002<250.463 279.13>
LayerCount: 2
Fore
SplineSet
8.5966796875 174 m 2
 87.7841796875 517 l 2
 115.796875 638.333007812 179.802734375 699 279.802734375 699 c 0
 379.135742188 699 414.796875 638.333007812 386.784179688 517 c 2
 307.596679688 174 l 2
 279.430664062 52 215.680664062 -9 116.34765625 -9 c 0
 16.34765625 -9 -19.5693359375 52 8.5966796875 174 c 2
197.549804688 85 m 0
 213.012695312 104.333007812 226.208984375 137.666015625 237.13671875 184.999023438 c 2
 311.014648438 504.999023438 l 2
 321.942382812 552.33203125 324.137695312 585.665039062 317.6015625 604.998046875 c 0
 311.064453125 624.331054688 293.463867188 633.998046875 264.796875 633.998046875 c 0
 236.129882812 633.998046875 213.897460938 624.331054688 198.1015625 604.998046875 c 0
 182.303710938 585.6640625 168.94140625 552.331054688 158.013671875 504.999023438 c 2
 84.1357421875 184.999023438 l 2
 73.2080078125 137.666015625 71.1796875 104.333007812 78.0498046875 85 c 0
 84.9189453125 65.6669921875 102.6875 56 131.354492188 56 c 0
 160.021484375 56 182.0859375 65.6669921875 197.549804688 85 c 0
EndSplineSet
EndChar

StartChar: one
Encoding: 49 49 19
Width: 274
GlyphClass: 2
Flags: MW
HStem: 0 21G<57.4258 124.426 57.4258 57.4258> 525 21G<76.6318 76.6318> 670 20G<216.725 283.725 283.725 283.725>
VStem: 57.4258 226.299
LayerCount: 2
Fore
SplineSet
197.100585938 605 m 1
 76.6318359375 525 l 1
 96.2548828125 610 l 1
 216.724609375 690 l 1
 283.724609375 690 l 1
 124.42578125 0 l 1
 57.42578125 0 l 1
 197.100585938 605 l 1
EndSplineSet
Substitution2: "'sups' Superscript lookup 1 subtable" uni00B9
EndChar

StartChar: two
Encoding: 50 50 20
Width: 392
GlyphClass: 2
Flags: MW
HStem: 0 65<62.4326 258.426> 634.003 64.999<250.803 269.13>
LayerCount: 2
Fore
SplineSet
-23.18359375 58 m 1
 246.081054688 397.002929688 l 2
 261.877929688 416.336914062 274.725585938 435.169921875 284.625 453.502929688 c 0
 294.524414062 471.8359375 302.090820312 492.3359375 307.323242188 515.002929688 c 2
 313.788085938 543.002929688 l 2
 320.559570312 572.3359375 319.254882812 594.8359375 309.87109375 610.502929688 c 0
 300.48828125 626.169921875 282.463867188 634.002929688 255.796875 634.002929688 c 0
 233.129882812 634.002929688 213.321289062 626.169921875 196.37109375 610.502929688 c 0
 179.421875 594.8359375 167.63671875 572.668945312 161.018554688 544.001953125 c 2
 151.784179688 504.001953125 l 1
 79.7841796875 504.001953125 l 1
 90.634765625 551.001953125 l 2
 101.100585938 596.334960938 122.745117188 632.334960938 155.568359375 659.001953125 c 0
 188.391601562 685.668945312 227.802734375 699.001953125 273.802734375 699.001953125 c 0
 319.802734375 699.001953125 353.057617188 685.668945312 373.568359375 659.001953125 c 0
 394.079101562 632.334960938 399.177734375 596.66796875 388.865234375 552.000976562 c 2
 380.323242188 515.000976562 l 2
 373.704101562 486.333007812 364.112304688 460.666015625 351.545898438 438 c 0
 338.979492188 415.333007812 321.541015625 390.333007812 299.23046875 363 c 2
 62.4326171875 65 l 1
 273.432617188 65 l 1
 258.42578125 0 l 1
 -36.57421875 0 l 1
 -23.18359375 58 l 1
EndSplineSet
Substitution2: "'sups' Superscript lookup 1 subtable" uni00B2
EndChar

StartChar: three
Encoding: 51 51 21
Width: 405
GlyphClass: 2
Flags: MW
HStem: -9 64.999<115.688 137.348> 325.999 65<172.695 186.688 157.688 201.695> 633.999 64.999<253.468 273.462>
LayerCount: 2
Fore
SplineSet
9.12109375 29 m 0
 -11.0302734375 54.3330078125 -15.7958984375 89.9990234375 -5.1767578125 135.999023438 c 2
 4.9814453125 179.999023438 l 1
 76.9814453125 179.999023438 l 1
 68.208984375 141.999023438 l 2
 61.8984375 114.666015625 64.01171875 93.4990234375 74.548828125 78.4990234375 c 0
 85.0859375 63.4990234375 103.021484375 55.9990234375 128.354492188 55.9990234375 c 0
 155.021484375 55.9990234375 177.03515625 63.9990234375 194.39453125 79.9990234375 c 0
 211.755859375 95.9990234375 223.822265625 118.666015625 230.59375 147.999023438 c 2
 248.37109375 224.999023438 l 2
 256.06640625 258.33203125 255.209960938 283.499023438 245.801757812 300.499023438 c 0
 236.393554688 317.499023438 216.688476562 325.999023438 186.688476562 325.999023438 c 2
 157.688476562 325.999023438 l 1
 172.6953125 390.999023438 l 1
 201.6953125 390.999023438 l 2
 231.028320312 390.999023438 253.913085938 399.166015625 270.3515625 415.499023438 c 0
 286.7890625 431.83203125 298.701171875 455.999023438 306.088867188 487.999023438 c 2
 318.555664062 541.999023438 l 2
 325.482421875 571.999023438 323.920898438 594.83203125 313.870117188 610.499023438 c 0
 303.8203125 626.166015625 286.12890625 633.999023438 260.795898438 633.999023438 c 0
 236.12890625 633.999023438 215.397460938 626.499023438 198.6015625 611.499023438 c 0
 181.805664062 596.499023438 170.251953125 575.33203125 163.94140625 547.999023438 c 2
 154.706054688 507.999023438 l 1
 82.7060546875 507.999023438 l 1
 92.171875 548.999023438 l 2
 103.099609375 596.33203125 124.603515625 633.165039062 156.682617188 659.498046875 c 0
 188.762695312 685.831054688 229.134765625 698.998046875 277.801757812 698.998046875 c 0
 325.801757812 698.998046875 359.633789062 685.998046875 379.297851562 659.998046875 c 0
 398.962890625 633.998046875 403.330078125 597.331054688 392.40234375 549.998046875 c 2
 378.78125 490.998046875 l 2
 371.0859375 457.665039062 359.391601562 430.83203125 343.697265625 410.499023438 c 0
 328.002929688 390.166015625 305.770507812 373.999023438 277 361.999023438 c 1
 302.588867188 348.666015625 318.419921875 331.333007812 324.495117188 310 c 0
 330.569335938 288.666992188 329.451171875 260 321.140625 224 c 2
 304.287109375 151 l 2
 292.435546875 99.6669921875 269.983398438 60.1669921875 236.928710938 32.5 c 0
 203.874023438 4.8330078125 162.34765625 -9 112.34765625 -9 c 0
 63.6806640625 -9 29.2724609375 3.6669921875 9.12109375 29 c 0
EndSplineSet
Substitution2: "'sups' Superscript lookup 1 subtable" uni00B3
EndChar

StartChar: four
Encoding: 52 52 22
Width: 416
GlyphClass: 2
Flags: MW
HStem: 0 21G<162.426 235.426 162.426 162.426> 139 65<-0.477539 -0.477539 70.5225 194.517 -15.4834 -0.477539 282.522 328.517> 670 20G<256.725 329.725 329.725 329.725>
LayerCount: 2
Fore
SplineSet
328.516601562 139 m 1
 267.516601562 139 l 1
 235.42578125 0 l 1
 162.42578125 0 l 1
 194.516601562 139 l 1
 -15.4833984375 139 l 1
 -0.4775390625 204 l 1
 256.724609375 690 l 1
 329.724609375 690 l 1
 70.5224609375 204 l 1
 209.522460938 204 l 1
 251.309570312 385 l 1
 324.309570312 385 l 1
 282.522460938 204 l 1
 343.522460938 204 l 1
 328.516601562 139 l 1
EndSplineSet
EndChar

StartChar: five
Encoding: 53 53 23
Width: 398
GlyphClass: 2
Flags: MW
HStem: -9 65<101.021 139.354 101.021 161.681> 378 65<185.028 275.367> 622 68<188.026 400.026 188.026 188.026>
LayerCount: 2
Fore
SplineSet
12.966796875 30.5 m 0
 -5.953125 56.8330078125 -9.564453125 95.3330078125 2.1328125 146 c 2
 6.2880859375 164 l 1
 75.2880859375 164 l 1
 71.36328125 147 l 2
 57.357421875 86.3330078125 75.6875 56 126.354492188 56 c 0
 152.354492188 56 173.368164062 64 189.395507812 80 c 0
 205.421875 96 217.360351562 121 225.209960938 155 c 2
 253.837890625 279 l 2
 261.6875 313 261.458984375 338 253.153320312 354 c 0
 244.846679688 370 227.694335938 378 201.694335938 378 c 0
 168.361328125 378 139.256835938 361.666992188 114.3828125 329 c 1
 52.3828125 329 l 1
 135.725585938 690 l 1
 415.725585938 690 l 1
 400.026367188 622 l 1
 188.026367188 622 l 1
 139.083007812 410 l 1
 150.724609375 420 164.404296875 428 180.122070312 434 c 0
 195.840820312 440 212.700195312 443 230.700195312 443 c 0
 320.033203125 443 352.15625 388.666992188 327.068359375 280 c 2
 298.903320312 158 l 2
 273.19921875 46.6669921875 211.014648438 -9 112.34765625 -9 c 0
 65.0146484375 -9 31.8876953125 4.1669921875 12.966796875 30.5 c 0
EndSplineSet
EndChar

StartChar: six
Encoding: 54 54 24
Width: 395
GlyphClass: 2
Flags: MW
HStem: -9 64.999<114.686 135.014> 347.999 64.001<182.434 242.875> 670 20G<278.723 351.723 351.723 351.723>
LayerCount: 2
Fore
SplineSet
11.775390625 34 m 0
 -8.6064453125 62.6669921875 -13.1044921875 101.666015625 -1.7158203125 150.999023438 c 2
 21.37109375 250.999023438 l 2
 27.8359375 278.999023438 35.6708984375 302.83203125 44.87890625 322.499023438 c 0
 54.0859375 342.166015625 67.998046875 366.333007812 86.6162109375 395 c 2
 278.72265625 690 l 1
 351.72265625 690 l 1
 163.309570312 398 l 1
 169.565429688 402 178.001953125 405.333007812 188.618164062 408 c 0
 199.233398438 410.666992188 210.208007812 412 221.541015625 412 c 0
 264.208007812 412 294.796875 398.666992188 313.307617188 372 c 0
 331.818359375 345.333007812 335.685546875 308.666015625 324.912109375 262 c 2
 298.82421875 149 l 2
 287.588867188 100.333007812 265.033203125 61.8330078125 231.159179688 33.5 c 0
 197.284179688 5.1669921875 157.680664062 -9 112.34765625 -9 c 0
 65.6806640625 -9 32.1572265625 5.3330078125 11.775390625 34 c 0
189.892578125 79.9990234375 m 0
 206.919921875 95.9990234375 218.822265625 118.666015625 225.59375 147.999023438 c 2
 250.52734375 255.999023438 l 2
 257.299804688 285.33203125 255.866210938 307.999023438 246.2265625 323.999023438 c 0
 236.587890625 339.999023438 219.434570312 347.999023438 194.767578125 347.999023438 c 0
 170.100585938 347.999023438 149.163085938 340.33203125 131.95703125 324.999023438 c 0
 114.75 309.666015625 102.915039062 287.999023438 96.4501953125 259.999023438 c 2
 70.82421875 148.999023438 l 2
 63.8974609375 118.999023438 65.2548828125 95.9990234375 74.8935546875 79.9990234375 c 0
 84.533203125 63.9990234375 102.01953125 55.9990234375 127.352539062 55.9990234375 c 0
 152.01953125 55.9990234375 172.866210938 63.9990234375 189.892578125 79.9990234375 c 0
EndSplineSet
EndChar

StartChar: seven
Encoding: 55 55 25
Width: 361
GlyphClass: 2
Flags: MW
HStem: 0 21G<-12.5742 60.4258 -12.5742 -12.5742> 625 65<106.725 318.719 91.7188 405.725 390.719 390.719>
LayerCount: 2
Fore
SplineSet
405.724609375 690 m 1
 390.71875 625 l 1
 60.42578125 0 l 1
 -12.57421875 0 l 1
 318.71875 625 l 1
 91.71875 625 l 1
 106.724609375 690 l 1
 405.724609375 690 l 1
EndSplineSet
EndChar

StartChar: eight
Encoding: 56 56 26
Width: 403
GlyphClass: 2
Flags: MW
HStem: -9 61.999<115.662 139.014> 330.999 61.002<195.259 221.259 195.259 221.51> 637 62.001<256.802 276.823>
LayerCount: 2
Fore
SplineSet
15.775390625 34 m 0
 -3.939453125 62.6669921875 -7.94921875 102.334960938 3.748046875 153.001953125 c 2
 21.2939453125 229.001953125 l 2
 36.0693359375 293.001953125 69.3046875 337.334960938 120.999023438 362.001953125 c 1
 102.94921875 373.334960938 90.7578125 389.834960938 84.427734375 411.501953125 c 0
 78.0966796875 433.168945312 78.0859375 457.668945312 84.396484375 485.001953125 c 2
 99.171875 549.001953125 l 2
 109.637695312 594.334960938 131.193359375 630.66796875 163.8359375 658.000976562 c 0
 196.479492188 685.333984375 234.801757812 699.000976562 278.801757812 699.000976562 c 0
 323.46875 699.000976562 355.813476562 685.333984375 375.8359375 658.000976562 c 0
 395.858398438 630.666015625 400.637695312 594.333007812 390.171875 549.000976562 c 2
 375.396484375 485.000976562 l 2
 368.931640625 457.000976562 357.53125 432.16796875 341.196289062 410.500976562 c 0
 324.861328125 388.833984375 305.12890625 372.666992188 281.999023438 362.000976562 c 1
 322.3046875 337.333984375 335.069335938 293.000976562 320.293945312 229.000976562 c 2
 302.748046875 153.000976562 l 2
 291.05078125 102.333984375 268.725585938 62.6669921875 235.774414062 34 c 0
 202.823242188 5.3330078125 162.680664062 -9 115.34765625 -9 c 0
 68.6806640625 -9 35.490234375 5.3330078125 15.775390625 34 c 0
273.197265625 417.000976562 m 0
 290.044921875 433.66796875 301.779296875 456.333007812 308.397460938 485 c 2
 323.172851562 549 l 2
 329.483398438 576.333007812 327.447265625 597.833007812 317.064453125 613.5 c 0
 306.681640625 629.166992188 289.15625 637 264.489257812 637 c 0
 239.822265625 637 218.80859375 629 201.448242188 613 c 0
 184.086914062 597 172.329101562 575.666992188 166.171875 549 c 2
 151.396484375 485 l 2
 144.625 455.666992188 146.020507812 432.833984375 155.583007812 416.500976562 c 0
 165.14453125 400.16796875 182.592773438 392.000976562 207.92578125 392.000976562 c 0
 234.592773438 392.000976562 256.348632812 400.333984375 273.197265625 417.000976562 c 0
236.2109375 154.999023438 m 2
 253.526367188 229.999023438 l 2
 269.071289062 297.33203125 249.176757812 330.999023438 193.84375 330.999023438 c 0
 165.84375 330.999023438 143.098632812 321.999023438 125.610351562 303.999023438 c 0
 108.122070312 285.999023438 95.759765625 261.33203125 88.5263671875 229.999023438 c 2
 71.2109375 154.999023438 l 2
 63.8232421875 122.999023438 64.71875 97.9990234375 73.8955078125 79.9990234375 c 0
 83.0732421875 61.9990234375 101.662109375 52.9990234375 129.662109375 52.9990234375 c 0
 184.995117188 52.9990234375 220.51171875 86.9990234375 236.2109375 154.999023438 c 2
EndSplineSet
EndChar

StartChar: nine
Encoding: 57 57 27
Width: 395
GlyphClass: 2
Flags: MW
HStem: 0 21G<35.4258 108.426 35.4258 35.4258> 277.999 64<144.273 205.716> 633.999 65.001<252.802 273.129>
LayerCount: 2
Fore
SplineSet
224.838867188 292 m 1
 218.58203125 288 209.979492188 284.666015625 199.030273438 281.999023438 c 0
 188.081054688 279.33203125 176.939453125 277.999023438 165.606445312 277.999023438 c 0
 122.939453125 277.999023438 92.3505859375 291.33203125 73.8408203125 317.999023438 c 0
 55.330078125 344.666015625 51.4619140625 381.333007812 62.236328125 428 c 2
 88.32421875 541 l 2
 99.7138671875 590.333007812 122.307617188 629 156.10546875 657 c 0
 189.90234375 685 229.801757812 699 275.801757812 699 c 0
 322.46875 699 355.826171875 684.666992188 375.875 656 c 0
 395.923828125 627.333007812 400.252929688 588.333007812 388.86328125 539 c 2
 365.776367188 439 l 2
 359.3125 411 351.477539062 387.166992188 342.26953125 367.5 c 0
 333.0625 347.833007812 319.150390625 323.666015625 300.532226562 295 c 2
 108.42578125 0 l 1
 35.42578125 0 l 1
 224.838867188 292 l 1
255.692382812 364.999023438 m 0
 272.565429688 380.33203125 284.234375 401.999023438 290.69921875 429.999023438 c 2
 316.325195312 540.999023438 l 2
 323.250976562 570.999023438 321.89453125 593.999023438 312.254882812 609.999023438 c 0
 302.616210938 625.999023438 285.462890625 633.999023438 260.795898438 633.999023438 c 0
 235.462890625 633.999023438 214.283203125 625.999023438 197.255859375 609.999023438 c 0
 180.229492188 593.999023438 168.329101562 571.33203125 161.556640625 541.999023438 c 2
 136.623046875 433.999023438 l 2
 129.8515625 404.666015625 131.28515625 381.999023438 140.923828125 365.999023438 c 0
 150.563476562 349.999023438 168.049804688 341.999023438 193.3828125 341.999023438 c 0
 218.049804688 341.999023438 238.819335938 349.666015625 255.692382812 364.999023438 c 0
EndSplineSet
EndChar

StartChar: colon
Encoding: 58 58 28
Width: 160
GlyphClass: 2
Flags: MW
HStem: 0 89<-22.0273 35.4258 -42.5742 55.9727> 338 89<56.0068 113.459 35.459 134.007>
VStem: -42.5742 176.581
LayerCount: 2
Fore
SplineSet
-22.02734375 89 m 1
 55.97265625 89 l 1
 35.42578125 0 l 1
 -42.57421875 0 l 1
 -22.02734375 89 l 1
56.0068359375 427 m 1
 134.006835938 427 l 1
 113.458984375 338 l 1
 35.458984375 338 l 1
 56.0068359375 427 l 1
EndSplineSet
EndChar

StartChar: semicolon
Encoding: 59 59 29
Width: 160
GlyphClass: 2
Flags: MW
HStem: 338 89<56.0068 113.459 35.459 134.007>
VStem: -67.127 201.134
LayerCount: 2
Fore
SplineSet
-13.103515625 93 m 1
 54.896484375 93 l 1
 14.494140625 -82 l 1
 -67.126953125 -141 l 1
 -13.103515625 93 l 1
56.0068359375 427 m 1
 134.006835938 427 l 1
 113.458984375 338 l 1
 35.458984375 338 l 1
 56.0068359375 427 l 1
EndSplineSet
EndChar

StartChar: less
Encoding: 60 60 30
Width: 420
GlyphClass: 2
Flags: W
LayerCount: 2
Fore
SplineSet
12.7578125 244 m 1
 27.533203125 308 l 1
 400.624023438 447 l 1
 385.155273438 380 l 1
 103.145507812 276 l 1
 337.134765625 172 l 1
 321.666992188 105 l 1
 12.7578125 244 l 1
EndSplineSet
Substitution2: "'rtla' Right to Left Alternates lookup 0 subtable" greater
EndChar

StartChar: equal
Encoding: 61 61 31
Width: 420
GlyphClass: 2
Flags: MW
HStem: 149 66<6.0625 331.825 -9.1748 347.062> 336 65<49.0039 374.997 33.9971 390.004>
LayerCount: 2
Fore
SplineSet
49.00390625 401 m 1
 390.00390625 401 l 1
 374.997070312 336 l 1
 33.9970703125 336 l 1
 49.00390625 401 l 1
6.0625 215 m 1
 347.0625 215 l 1
 331.825195312 149 l 1
 -9.1748046875 149 l 1
 6.0625 215 l 1
EndSplineSet
EndChar

StartChar: greater
Encoding: 62 62 32
Width: 420
GlyphClass: 2
Flags: W
LayerCount: 2
Fore
SplineSet
-3.865234375 172 m 1
 278.145507812 276 l 1
 44.1552734375 380 l 1
 59.6240234375 447 l 1
 368.533203125 308 l 1
 353.7578125 244 l 1
 -19.3330078125 105 l 1
 -3.865234375 172 l 1
EndSplineSet
Substitution2: "'rtla' Right to Left Alternates lookup 0 subtable" less
EndChar

StartChar: question
Encoding: 63 63 33
Width: 363
GlyphClass: 2
Flags: MW
HStem: -0.00195312 97<77.8193 133.425 55.4248 155.819> 634.999 65.001<227.693 266.693>
VStem: 64.6299 73<512 512>
LayerCount: 2
Fore
SplineSet
115.219726562 246 m 2
 120.298828125 268 126.736328125 286.498046875 134.532226562 301.498046875 c 0
 142.328125 316.498046875 156.484375 336.665039062 177 361.998046875 c 2
 235.16015625 431.998046875 l 2
 252.751953125 453.331054688 265.741210938 471.331054688 274.126953125 485.998046875 c 0
 282.513671875 500.665039062 289.091796875 518.33203125 293.86328125 538.999023438 c 0
 308.638671875 602.999023438 291.359375 634.999023438 242.026367188 634.999023438 c 0
 213.359375 634.999023438 191.294921875 625.33203125 175.83203125 605.999023438 c 0
 160.368164062 586.665039062 147.633789062 555.33203125 137.629882812 512 c 1
 64.6298828125 512 l 1
 93.5654296875 637.333007812 157.366210938 700 256.033203125 700 c 0
 304.033203125 700 337.391601562 685.666992188 356.106445312 657 c 0
 374.821289062 628.333007812 378.407226562 589 366.86328125 539 c 0
 361.168945312 514.333007812 352.58984375 492.333007812 341.125976562 473 c 0
 329.663085938 453.666992188 310.827148438 427.666992188 284.618164062 395 c 2
 233.3046875 333 l 2
 218.482421875 315 208.186523438 300 202.416015625 288 c 0
 196.645507812 276 191.528320312 260.333007812 187.065429688 241 c 2
 172.520507812 178 l 1
 99.5205078125 178 l 1
 115.219726562 246 l 2
77.8193359375 96.998046875 m 1
 155.819335938 96.998046875 l 1
 133.424804688 -0.001953125 l 1
 55.4248046875 -0.001953125 l 1
 77.8193359375 96.998046875 l 1
EndSplineSet
EndChar

StartChar: at
Encoding: 64 64 34
Width: 734
GlyphClass: 2
Flags: MW
HStem: -128 61<227.292 272.876> 56 60<491.54 505.686> 436 62<370.415 393.748> 631.001 60.999<410.519 467.437>
LayerCount: 2
Fore
SplineSet
93.9560546875 -86.5 m 0
 52.67578125 -58.8330078125 25.1787109375 -19.8330078125 11.4658203125 30.5 c 0
 -2.24609375 80.8330078125 -1.25390625 140 14.4453125 208 c 2
 49.9990234375 362 l 2
 65.236328125 428 91.626953125 486 129.169921875 536 c 0
 166.713867188 586 212.434570312 624.5 266.334960938 651.5 c 0
 320.235351562 678.5 378.852539062 692 442.185546875 692 c 0
 504.852539062 692 557.235351562 678.5 599.334960938 651.5 c 0
 641.434570312 624.5 670.033203125 586.666992188 685.130859375 538 c 0
 700.228515625 489.333007812 700.54296875 433.666015625 686.076171875 371 c 2
 650.291015625 216 l 2
 638.131835938 163.333007812 617.768554688 123.5 589.202148438 96.5 c 0
 560.635742188 69.5 526.01953125 56 485.352539062 56 c 0
 460.01953125 56 439.328125 61.6669921875 423.27734375 73 c 0
 407.2265625 84.3330078125 397.25390625 100.333007812 393.358398438 121 c 1
 378.946289062 99 362.342773438 82.6669921875 343.546875 72 c 0
 324.751953125 61.3330078125 302.020507812 56 275.353515625 56 c 0
 236.020507812 56 210.31640625 68.8330078125 198.2421875 94.5 c 0
 186.166992188 120.166992188 185.670898438 157 196.752929688 205 c 2
 230.690429688 352 l 2
 241.618164062 399.333007812 258.634765625 435.5 281.739257812 460.5 c 0
 304.845703125 485.5 336.064453125 498 375.397460938 498 c 0
 414.064453125 498 439.19140625 482.666992188 450.778320312 452 c 1
 459.55078125 490 l 1
 527.55078125 490 l 1
 457.3671875 186 l 2
 452.133789062 163.333007812 453.6328125 146 461.862304688 134 c 0
 470.091796875 122 482.873046875 116 500.206054688 116 c 0
 522.206054688 116 539.84765625 123.833007812 553.131835938 139.5 c 0
 566.416015625 155.166992188 576.59765625 178.333984375 583.677734375 209.000976562 c 2
 620.84765625 370.000976562 l 2
 639.31640625 450.000976562 631.4765625 513.500976562 597.327148438 560.500976562 c 0
 563.178710938 607.500976562 506.770507812 631.000976562 428.103515625 631.000976562 c 0
 348.770507812 631.000976562 281.806640625 607.333984375 227.211914062 560.000976562 c 0
 172.6171875 512.666992188 135.546875 446.666992188 116 362.000976562 c 2
 80.677734375 209.000976562 l 2
 60.6689453125 122.333984375 66.8798828125 54.6669921875 99.310546875 6 c 0
 131.7421875 -42.6669921875 187.625 -67 266.958007812 -67 c 0
 302.958007812 -67 335.547851562 -63 364.727539062 -55 c 0
 393.908203125 -47 423.576171875 -34 453.731445312 -16 c 1
 474.188476562 -66 l 1
 437.930664062 -87.3330078125 401.98046875 -103 366.338867188 -113 c 0
 330.697265625 -123 292.875976562 -128 252.875976562 -128 c 0
 188.208984375 -128 135.235351562 -114.166992188 93.9560546875 -86.5 c 0
364.592773438 141.5 m 0
 377.876953125 157.166992188 387.748046875 179 394.212890625 207 c 2
 427.2265625 350 l 2
 433.69140625 378 433.616210938 399.333007812 427.001953125 414 c 0
 420.388671875 428.666992188 405.4140625 436 382.081054688 436 c 0
 358.748046875 436 340.72265625 428.666992188 328.002929688 414 c 0
 315.284179688 399.333007812 305.768554688 378.333007812 299.458984375 351 c 2
 265.982421875 206 l 2
 259.364257812 177.333007812 259.157226562 155.5 265.360351562 140.5 c 0
 271.564453125 125.5 286 118 308.666992188 118 c 0
 332.666992188 118 351.30859375 125.833007812 364.592773438 141.5 c 0
EndSplineSet
EndChar

StartChar: A
Encoding: 65 65 35
Width: 461
GlyphClass: 2
Flags: MW
HStem: 0 21G<-74.5742 1.42578 -74.5742 -74.5742 291.426 291.426 291.426 368.426> 176 63<116.604 286.604 116.604 288.059 86.0586 286.604> 670 20G<272.725 339.725 339.725 339.725>
VStem: 280.329 59.3955 288.059 80.3672
LayerCount: 2
Fore
SplineSet
288.05859375 176 m 1xe8
 86.05859375 176 l 1
 1.42578125 0 l 1
 -74.57421875 0 l 1
 272.724609375 690 l 1
 339.724609375 690 l 1xf0
 368.42578125 0 l 1
 291.42578125 0 l 1
 288.05859375 176 l 1xe8
286.603515625 239 m 1
 280.329101562 580 l 1
 116.603515625 239 l 1
 286.603515625 239 l 1
EndSplineSet
EndChar

StartChar: B
Encoding: 66 66 36
Width: 470
GlyphClass: 2
Flags: MW
HStem: 0.000976562 65<64.4326 153.426> 325.001 65<139.465 222.458 124.458 236.465> 625.001 65<193.719 193.719 193.719 291.719>
LayerCount: 2
Fore
SplineSet
378.291015625 190 m 0
 363.823242188 127.333007812 338.395507812 80.0009765625 302.0078125 48.0009765625 c 0
 265.620117188 16.0009765625 216.092773438 0.0009765625 153.42578125 0.0009765625 c 2
 -23.57421875 0.0009765625 l 1
 135.724609375 690.000976562 l 1
 311.724609375 690.000976562 l 2
 373.057617188 690.000976562 414.133789062 675.16796875 434.951171875 645.500976562 c 0
 455.76953125 615.833984375 459.174804688 570.666992188 445.168945312 510 c 0
 427.006835938 431.333007812 384.9765625 380.666015625 319.076171875 358 c 1
 380.25390625 340 399.9921875 284 378.291015625 190 c 0
193.71875 625.000976562 m 1
 139.46484375 390.000976562 l 1
 236.46484375 390.000976562 l 2
 308.46484375 390.000976562 353.391601562 428.66796875 371.245117188 506.000976562 c 0
 381.095703125 548.66796875 379.63671875 579.16796875 366.870117188 597.500976562 c 0
 354.102539062 615.833984375 329.051757812 625.000976562 291.71875 625.000976562 c 2
 193.71875 625.000976562 l 1
256.8203125 97.0009765625 m 0
 279.745117188 118.333984375 296.287109375 151.000976562 306.4453125 195.000976562 c 0
 326.454101562 281.66796875 298.458007812 325.000976562 222.458007812 325.000976562 c 2
 124.458007812 325.000976562 l 1
 64.4326171875 65.0009765625 l 1
 162.432617188 65.0009765625 l 2
 202.432617188 65.0009765625 233.895507812 75.66796875 256.8203125 97.0009765625 c 0
EndSplineSet
EndChar

StartChar: C
Encoding: 67 67 37
Width: 478
GlyphClass: 2
Flags: MW
HStem: -8 66<132.151 182.58> 633 66<289.469 320.566>
LayerCount: 2
Fore
SplineSet
30.69921875 44.5 m 0
 4.1123046875 79.5 -1.1767578125 131.666992188 14.830078125 201 c 2
 81.3203125 489 l 2
 97.4814453125 559 126.768554688 611.5 169.181640625 646.5 c 0
 211.595703125 681.5 261.135742188 699 317.802734375 699 c 0
 372.469726562 699 413.2890625 682.333007812 440.259765625 649 c 0
 467.231445312 615.665039062 472.944335938 565.33203125 457.399414062 498 c 2
 455.321289062 489 l 1
 382.321289062 489 l 1
 383.9375 496 l 2
 394.865234375 543.333007812 392.701171875 578 377.447265625 600 c 0
 362.193359375 622 337.56640625 633 303.56640625 633 c 0
 264.899414062 633 233.08984375 620.833007812 208.139648438 596.5 c 0
 183.188476562 572.166992188 164.709960938 534 152.705078125 482 c 2
 87.6005859375 200 l 2
 65.7451171875 105.333007812 93.484375 58 170.817382812 58 c 0
 205.484375 58 235.356445312 69 260.435546875 91 c 0
 285.514648438 113 303.287109375 146.666992188 313.752929688 192 c 2
 315.831054688 201 l 1
 386.831054688 201 l 1
 384.522460938 191 l 2
 369.130859375 124.333007812 340.625976562 74.5 299.0078125 41.5 c 0
 257.388671875 8.5 209.580078125 -8 155.580078125 -8 c 0
 98.9130859375 -8 57.2861328125 9.5 30.69921875 44.5 c 0
EndSplineSet
EndChar

StartChar: D
Encoding: 68 68 38
Width: 477
GlyphClass: 2
Flags: MW
HStem: 0 65<64.4326 155.426> 625 65<193.719 299.719 193.719 193.719>
LayerCount: 2
Fore
SplineSet
135.724609375 690 m 1
 314.724609375 690 l 2
 370.724609375 690 411.72265625 672.666992188 437.719726562 638 c 0
 463.715820312 603.333007812 468.633789062 551 452.473632812 481 c 2
 389.676757812 209 l 2
 373.669921875 139.666992188 344.626953125 87.5 302.545898438 52.5 c 0
 260.465820312 17.5 211.42578125 0 155.42578125 0 c 2
 -23.57421875 0 l 1
 135.724609375 690 l 1
170.432617188 65 m 2
 206.432617188 65 237.03515625 77 262.243164062 101 c 0
 287.451171875 125 305.518554688 160.666992188 316.446289062 208 c 2
 377.857421875 474 l 2
 389.5546875 524.666992188 388.622070312 562.5 375.060546875 587.5 c 0
 361.499023438 612.5 336.385742188 625 299.71875 625 c 2
 193.71875 625 l 1
 64.4326171875 65 l 1
 170.432617188 65 l 2
EndSplineSet
EndChar

StartChar: E
Encoding: 69 69 39
Width: 403
GlyphClass: 2
Flags: MW
HStem: 0 65<63.4326 283.426> 318 66<137.079 323.842 121.842 339.079> 625 65<192.719 192.719 192.719 427.719>
LayerCount: 2
Fore
SplineSet
192.71875 625 m 1
 137.079101562 384 l 1
 339.079101562 384 l 1
 323.841796875 318 l 1
 121.841796875 318 l 1
 63.4326171875 65 l 1
 298.432617188 65 l 1
 283.42578125 0 l 1
 -23.57421875 0 l 1
 135.724609375 690 l 1
 442.724609375 690 l 1
 427.71875 625 l 1
 192.71875 625 l 1
EndSplineSet
EndChar

StartChar: F
Encoding: 70 70 40
Width: 397
GlyphClass: 2
Flags: MW
HStem: 0 21G<-23.5742 49.4258 -23.5742 -23.5742> 315 66<137.387 324.149 122.149 339.387> 625 65<193.719 193.719 193.719 427.719>
LayerCount: 2
Fore
SplineSet
193.71875 625 m 1
 137.38671875 381 l 1
 339.38671875 381 l 1
 324.149414062 315 l 1
 122.149414062 315 l 1
 49.42578125 0 l 1
 -23.57421875 0 l 1
 135.724609375 690 l 1
 442.724609375 690 l 1
 427.71875 625 l 1
 193.71875 625 l 1
EndSplineSet
EndChar

StartChar: G
Encoding: 71 71 41
Width: 478
GlyphClass: 2
Flags: MW
HStem: -8 66<131.483 182.579> 293 61<237.153 337.07 223.07 424.153> 633 66<289.47 319.899>
LayerCount: 2
Fore
SplineSet
30.19921875 44.5 m 0
 3.9462890625 79.5 -1.17578125 131.666992188 14.8310546875 201 c 2
 81.3212890625 489 l 2
 97.482421875 559 126.76953125 611.5 169.182617188 646.5 c 0
 211.596679688 681.5 261.13671875 699 317.803710938 699 c 0
 373.13671875 699 414.16015625 682.5 440.875 649.5 c 0
 467.588867188 616.5 473.866210938 569.333007812 459.70703125 508 c 2
 456.936523438 496 l 1
 383.936523438 496 l 1
 386.70703125 508 l 2
 395.94140625 548 392.892578125 578.833007812 377.5625 600.5 c 0
 362.231445312 622.166992188 337.232421875 633 302.565429688 633 c 0
 225.8984375 633 175.9453125 582.666992188 152.704101562 482 c 2
 87.599609375 200 l 2
 65.744140625 105.333007812 93.1494140625 58 169.81640625 58 c 0
 206.483398438 58 237.137695312 69.5 261.78125 92.5 c 0
 286.423828125 115.5 304.1328125 150.333007812 314.907226562 197 c 2
 337.0703125 293 l 1
 223.0703125 293 l 1
 237.153320312 354 l 1
 424.153320312 354 l 1
 388.599609375 200 l 2
 372.592773438 130.666992188 343.587890625 78.6669921875 301.583984375 44 c 0
 259.580078125 9.3330078125 210.579101562 -8 154.579101562 -8 c 0
 97.912109375 -8 56.4521484375 9.5 30.19921875 44.5 c 0
EndSplineSet
EndChar

StartChar: H
Encoding: 72 72 42
Width: 478
GlyphClass: 2
Flags: MW
HStem: 0 21G<-23.5742 49.4258 -23.5742 -23.5742 261.426 334.426 261.426 261.426> 319 65<138.079 335.072 123.072 350.079> 670 20G<135.725 208.725 208.725 208.725 420.725 493.725 493.725 493.725>
LayerCount: 2
Fore
SplineSet
493.724609375 690 m 1
 334.42578125 0 l 1
 261.42578125 0 l 1
 335.072265625 319 l 1
 123.072265625 319 l 1
 49.42578125 0 l 1
 -23.57421875 0 l 1
 135.724609375 690 l 1
 208.724609375 690 l 1
 138.079101562 384 l 1
 350.079101562 384 l 1
 420.724609375 690 l 1
 493.724609375 690 l 1
EndSplineSet
EndChar

StartChar: I
Encoding: 73 73 43
Width: 204
GlyphClass: 2
Flags: MW
HStem: 0 21G<-17.5742 54.4258 -17.5742 -17.5742> 670 20G<141.725 213.725 213.725 213.725>
VStem: -17.5742 231.299
LayerCount: 2
Fore
SplineSet
141.724609375 690 m 1
 213.724609375 690 l 1
 54.42578125 0 l 1
 -17.57421875 0 l 1
 141.724609375 690 l 1
EndSplineSet
EndChar

StartChar: J
Encoding: 74 74 44
Width: 263
GlyphClass: 2
Flags: MW
HStem: 0 65<-44.5674 -24.5742 -59.5742 -15.5664> 670 20G<199.726 272.726 272.726 272.726>
VStem: -59.5742 332.3
LayerCount: 2
Fore
SplineSet
-44.5673828125 65 m 1
 -15.56640625 65 l 2
 7.7666015625 65 27.0107421875 71.8330078125 42.166015625 85.5 c 0
 57.3212890625 99.1669921875 67.900390625 119 73.90234375 145 c 2
 199.725585938 690 l 1
 272.725585938 690 l 1
 145.055664062 137 l 2
 134.743164062 92.3330078125 115.060546875 58.3330078125 86.0068359375 35 c 0
 56.953125 11.6669921875 20.0927734375 0 -24.57421875 0 c 2
 -59.57421875 0 l 1
 -44.5673828125 65 l 1
EndSplineSet
EndChar

StartChar: K
Encoding: 75 75 45
Width: 461
GlyphClass: 2
Flags: MW
HStem: 0 21G<-23.5742 49.4258 -23.5742 -23.5742 291.426 291.426 291.426 371.426> 670 20G<135.725 208.725 208.725 208.725 429.725 506.725 506.725 506.725>
LayerCount: 2
Fore
SplineSet
214.766601562 335 m 1
 92.13671875 185 l 1
 49.42578125 0 l 1
 -23.57421875 0 l 1
 135.724609375 690 l 1
 208.724609375 690 l 1
 120.071289062 306 l 1
 429.724609375 690 l 1
 506.724609375 690 l 1
 275.850585938 409 l 1
 371.42578125 0 l 1
 291.42578125 0 l 1
 214.766601562 335 l 1
EndSplineSet
EndChar

StartChar: L
Encoding: 76 76 46
Width: 391
GlyphClass: 2
Flags: MW
HStem: 0 65<64.4326 283.426> 670 20G<135.725 208.725 208.725 208.725>
VStem: -23.5742 322.007<0 65>
LayerCount: 2
Fore
SplineSet
135.724609375 690 m 1
 208.724609375 690 l 1
 64.4326171875 65 l 1
 298.432617188 65 l 1
 283.42578125 0 l 1
 -23.57421875 0 l 1
 135.724609375 690 l 1
EndSplineSet
EndChar

StartChar: M
Encoding: 77 77 47
Width: 598
GlyphClass: 2
Flags: MW
HStem: 0 21G<-23.5742 49.4258 -23.5742 -23.5742 381.426 454.426 381.426 381.426> 670 20G<135.725 208.725 208.725 208.725 540.725 613.725 613.725 613.725>
LayerCount: 2
Fore
SplineSet
613.724609375 690 m 1
 454.42578125 0 l 1
 381.42578125 0 l 1
 503.786132812 530 l 1
 276.364257812 160 l 1
 228.364257812 160 l 1
 171.092773438 527 l 1
 49.42578125 0 l 1
 -23.57421875 0 l 1
 135.724609375 690 l 1
 208.724609375 690 l 1
 277.375 264 l 1
 540.724609375 690 l 1
 613.724609375 690 l 1
EndSplineSet
EndChar

StartChar: N
Encoding: 78 78 48
Width: 502
GlyphClass: 2
Flags: MW
HStem: 0 21G<-23.5742 49.4258 -23.5742 -23.5742 285.426 358.426 285.426 285.426> 670 20G<135.725 208.725 208.725 208.725 444.725 517.725 517.725 517.725>
LayerCount: 2
Fore
SplineSet
517.724609375 690 m 1
 358.42578125 0 l 1
 285.42578125 0 l 1
 171.786132812 530 l 1
 49.42578125 0 l 1
 -23.57421875 0 l 1
 135.724609375 690 l 1
 208.724609375 690 l 1
 322.133789062 159 l 1
 444.724609375 690 l 1
 517.724609375 690 l 1
EndSplineSet
EndChar

StartChar: O
Encoding: 79 79 49
Width: 478
GlyphClass: 2
Flags: MW
HStem: -8 66.001<131.483 181.579> 633.001 66<288.469 320.899>
LayerCount: 2
Fore
SplineSet
29.69921875 44.5 m 0
 3.779296875 79.5 -1.1767578125 131.66796875 14.830078125 201.000976562 c 2
 81.3203125 489.000976562 l 2
 97.634765625 559.66796875 126.793945312 612.334960938 168.797851562 647.000976562 c 0
 210.80078125 681.66796875 260.135742188 699.000976562 316.802734375 699.000976562 c 0
 373.469726562 699.000976562 414.80078125 681.66796875 440.797851562 647.000976562 c 0
 466.793945312 612.333984375 471.634765625 559.666992188 455.3203125 489 c 2
 388.830078125 201 l 2
 372.823242188 131.666992188 343.612304688 79.5 301.19921875 44.5 c 0
 258.786132812 9.5 209.579101562 -8 153.579101562 -8 c 0
 96.912109375 -8 55.619140625 9.5 29.69921875 44.5 c 0
261.51171875 93.5009765625 m 0
 286.642578125 117.16796875 304.671875 152.66796875 315.599609375 200.000976562 c 2
 380.704101562 482.000976562 l 2
 392.401367188 532.66796875 391.469726562 570.500976562 377.908203125 595.500976562 c 0
 364.346679688 620.500976562 339.232421875 633.000976562 302.565429688 633.000976562 c 0
 263.8984375 633.000976562 232.217773438 620.66796875 207.5234375 596.000976562 c 0
 182.828125 571.333984375 164.555664062 533.333984375 152.704101562 482.000976562 c 2
 87.599609375 200.000976562 l 2
 65.744140625 105.333984375 93.1494140625 58.0009765625 169.81640625 58.0009765625 c 0
 205.81640625 58.0009765625 236.380859375 69.833984375 261.51171875 93.5009765625 c 0
EndSplineSet
EndChar

StartChar: P
Encoding: 80 80 50
Width: 440
GlyphClass: 2
Flags: MW
HStem: 0 21G<-23.5732 49.4268 -23.5732 -23.5732> 292 65.001<131.847 222.84 116.84 233.847> 625.001 64.999<193.72 295.72 193.72 193.72>
LayerCount: 2
Fore
SplineSet
437.56640625 639.5 m 0
 458.125976562 605.833007812 460.712890625 555.666992188 445.321289062 489 c 0
 415.000976562 357.666992188 340.83984375 292 222.83984375 292 c 2
 116.83984375 292 l 1
 49.4267578125 0 l 1
 -23.5732421875 0 l 1
 135.725585938 690 l 1
 314.725585938 690 l 2
 376.05859375 690 417.005859375 673.166992188 437.56640625 639.5 c 0
323.50390625 388.000976562 m 0
 345.942382812 408.66796875 362.547851562 442.333984375 373.321289062 489.000976562 c 0
 384.403320312 537.000976562 383.573242188 571.66796875 370.83203125 593.000976562 c 0
 358.08984375 614.333984375 333.052734375 625.000976562 295.719726562 625.000976562 c 2
 193.719726562 625.000976562 l 1
 131.846679688 357.000976562 l 1
 233.846679688 357.000976562 l 2
 271.1796875 357.000976562 301.065429688 367.333984375 323.50390625 388.000976562 c 0
EndSplineSet
EndChar

StartChar: Q
Encoding: 81 81 51
Width: 478
GlyphClass: 2
Flags: MW
HStem: -7.99902 66<131.483 160.246> 633.001 66<288.469 320.899>
LayerCount: 2
Fore
SplineSet
339.165039062 85.5 m 0
 316.674804688 54.5 289.66015625 31.333984375 258.120117188 16.0009765625 c 1
 282.952148438 -118.999023438 l 1
 217.412109375 -142.999023438 l 1
 192.271484375 -4.9990234375 l 1
 179.809570312 -6.9990234375 166.912109375 -7.9990234375 153.579101562 -7.9990234375 c 0
 96.912109375 -7.9990234375 55.619140625 9.5009765625 29.69921875 44.5009765625 c 0
 3.7802734375 79.5009765625 -1.1767578125 131.66796875 14.830078125 201.000976562 c 2
 81.3203125 489.000976562 l 2
 97.634765625 559.66796875 126.793945312 612.334960938 168.797851562 647.000976562 c 0
 210.80078125 681.66796875 260.135742188 699.000976562 316.802734375 699.000976562 c 0
 373.469726562 699.000976562 414.80078125 681.66796875 440.797851562 647.000976562 c 0
 466.793945312 612.333984375 471.634765625 559.666992188 455.3203125 489 c 2
 388.830078125 201 l 2
 378.209960938 155 361.655273438 116.5 339.165039062 85.5 c 0
380.704101562 482.000976562 m 2
 392.401367188 532.66796875 391.469726562 570.500976562 377.908203125 595.500976562 c 0
 364.346679688 620.500976562 339.232421875 633.000976562 302.565429688 633.000976562 c 0
 263.8984375 633.000976562 232.217773438 620.66796875 207.5234375 596.000976562 c 0
 182.828125 571.333984375 164.555664062 533.333984375 152.704101562 482.000976562 c 2
 87.599609375 200.000976562 l 2
 65.744140625 105.333984375 93.1494140625 58.0009765625 169.81640625 58.0009765625 c 0
 205.81640625 58.0009765625 236.380859375 69.833984375 261.51171875 93.5009765625 c 0
 286.642578125 117.16796875 304.671875 152.66796875 315.599609375 200.000976562 c 2
 380.704101562 482.000976562 l 2
EndSplineSet
EndChar

StartChar: R
Encoding: 82 82 52
Width: 466
GlyphClass: 2
Flags: MW
HStem: 0 21G<-23.5752 49.4248 -23.5752 -23.5752 274.426 274.426 274.426 352.426> 302 64<133.923 133.923 133.923 230.147 119.146 133.923> 625 65<193.718 301.718 193.718 193.718>
LayerCount: 2
Fore
SplineSet
230.147460938 302 m 1
 119.146484375 302 l 1
 49.4248046875 0 l 1
 -23.5751953125 0 l 1
 135.723632812 690 l 1
 317.723632812 690 l 2
 378.390625 690 418.864257812 674 439.143554688 642 c 0
 459.421875 610 461.942382812 561 446.705078125 495 c 0
 423.926757812 396.333007812 375.919921875 335.666015625 302.6875 313 c 1
 352.42578125 0 l 1
 274.42578125 0 l 1
 230.147460938 302 l 1
133.922851562 366 m 1
 241.923828125 365.999023438 l 2
 277.256835938 365.999023438 305.590820312 376.83203125 326.926757812 398.499023438 c 0
 348.26171875 420.166015625 363.85546875 452.333007812 373.705078125 495 c 0
 383.709960938 538.333007812 383.379882812 570.833007812 372.71484375 592.5 c 0
 362.05078125 614.166992188 338.384765625 625 301.717773438 625 c 2
 193.717773438 625 l 1
 133.922851562 366 l 1
EndSplineSet
EndChar

StartChar: S
Encoding: 83 83 53
Width: 426
GlyphClass: 2
Flags: MW
HStem: -7 65<122.148 151.476> 635.001 65<261.364 306.359>
VStem: -13.9424 71<189 189> 352.091 69<514.001 514.001>
LayerCount: 2
Fore
SplineSet
-0.146484375 43 m 0
 -22.7841796875 76.3330078125 -27.384765625 125 -13.9423828125 189 c 1
 57.0576171875 189 l 1
 48.2841796875 142.333007812 51.0498046875 108.833007812 65.35546875 88.5 c 0
 79.6611328125 68.1669921875 104.481445312 58 139.814453125 58 c 0
 175.814453125 58 204.994140625 68.1669921875 227.35546875 88.5 c 0
 249.716796875 108.833007812 265.745117188 140 275.44140625 182 c 0
 283.907226562 218.666992188 282.461914062 246.333984375 271.103515625 265 c 0
 259.74609375 283.666992188 235.658203125 301.333984375 198.838867188 318.000976562 c 2
 162.533203125 334.000976562 l 2
 121.35546875 352.000976562 92.666015625 375.000976562 76.462890625 403.000976562 c 0
 60.259765625 431.000976562 57.623046875 468.66796875 68.55078125 516.000976562 c 0
 81.4794921875 572.000976562 107.625 616.66796875 146.987304688 650.000976562 c 0
 186.349609375 683.333984375 233.697265625 700.000976562 289.030273438 700.000976562 c 0
 341.697265625 700.000976562 379.786132812 684.500976562 403.295898438 653.500976562 c 0
 426.806640625 622.500976562 432.73828125 576.000976562 421.090820312 514.000976562 c 1
 352.090820312 514.000976562 l 1
 366.047851562 594.66796875 339.692382812 635.000976562 273.026367188 635.000976562 c 0
 238.359375 635.000976562 210.05078125 625.000976562 188.100585938 605.000976562 c 0
 166.149414062 585.000976562 150.94140625 556.66796875 142.4765625 520.000976562 c 0
 134.934570312 487.333007812 136.841796875 461.666015625 148.19921875 443 c 0
 159.556640625 424.333007812 182.541992188 407.666015625 217.15625 393 c 2
 254.461914062 377 l 2
 296.306640625 359 325.509765625 335.333007812 342.0703125 306 c 0
 358.631835938 276.666992188 360.833007812 235.666992188 348.673828125 183 c 0
 334.66796875 122.333007812 308.188476562 75.5 269.236328125 42.5 c 0
 230.28515625 9.5 181.142578125 -7 121.809570312 -7 c 0
 63.142578125 -7 22.490234375 9.6669921875 -0.146484375 43 c 0
EndSplineSet
EndChar

StartChar: T
Encoding: 84 84 54
Width: 368
GlyphClass: 2
Flags: MW
HStem: 0 21G<64.4258 136.426 64.4258 64.4258> 625 65<81.7246 208.719 66.7188 437.725 280.719 422.719 280.719 280.719>
LayerCount: 2
Fore
SplineSet
422.71875 625 m 1
 280.71875 625 l 1
 136.42578125 0 l 1
 64.42578125 0 l 1
 208.71875 625 l 1
 66.71875 625 l 1
 81.724609375 690 l 1
 437.724609375 690 l 1
 422.71875 625 l 1
EndSplineSet
EndChar

StartChar: U
Encoding: 85 85 55
Width: 480
GlyphClass: 2
Flags: MW
HStem: -8 66<153.149 181.246> 670 20G<135.724 208.724 208.724 208.724 422.724 495.724 495.724 495.724>
LayerCount: 2
Fore
SplineSet
66.888671875 15 m 0
 43.095703125 30.3330078125 26.7626953125 52 17.89453125 80 c 0
 9.025390625 108 8.74609375 140 17.0576171875 176 c 2
 135.723632812 690 l 1
 208.723632812 690 l 1
 90.9814453125 180 l 2
 81.900390625 140.666992188 84.435546875 110.5 98.587890625 89.5 c 0
 112.739257812 68.5 136.482421875 58 169.815429688 58 c 0
 203.1484375 58 231.77734375 68.6669921875 255.703125 90 c 0
 279.627929688 111.333007812 296.053710938 141.333007812 304.981445312 180 c 2
 422.723632812 690 l 1
 495.723632812 690 l 1
 377.057617188 176 l 2
 364.283203125 120.666992188 337.341796875 76.1669921875 296.236328125 42.5 c 0
 255.130859375 8.8330078125 207.912109375 -8 154.579101562 -8 c 0
 119.912109375 -8 90.681640625 -0.3330078125 66.888671875 15 c 0
EndSplineSet
EndChar

StartChar: V
Encoding: 86 86 56
Width: 423
GlyphClass: 2
Flags: MW
HStem: 0 21G<93.4258 163.426 93.4258 93.4258> 670 20G<84.7246 162.725 162.725 162.725 411.725 489.725 489.725 489.725>
VStem: 84.7246 78<690 690> 93.4258 61.3193
LayerCount: 2
Fore
SplineSet
84.724609375 690 m 1xe0
 162.724609375 690 l 1xe0
 154.745117188 114 l 1
 411.724609375 690 l 1
 489.724609375 690 l 1
 163.42578125 0 l 1
 93.42578125 0 l 1xd0
 84.724609375 690 l 1xe0
EndSplineSet
EndChar

StartChar: W
Encoding: 87 87 57
Width: 655
GlyphClass: 2
Flags: MW
HStem: 0 21G<61.4258 139.426 61.4258 61.4258 350.426 428.426 350.426 350.426> 670 20G<84.7246 160.725 160.725 160.725 357.725 453.725 453.725 453.725 649.725 721.725 721.725 721.725>
VStem: 84.7246 76<690 690>
LayerCount: 2
Fore
SplineSet
721.724609375 690 m 1
 428.42578125 0 l 1
 350.42578125 0 l 1
 378.791015625 582 l 1
 139.42578125 0 l 1
 61.42578125 0 l 1
 84.724609375 690 l 1
 160.724609375 690 l 1
 126.821289062 110 l 1
 357.724609375 690 l 1
 453.724609375 690 l 1
 417.821289062 110 l 1
 649.724609375 690 l 1
 721.724609375 690 l 1
EndSplineSet
EndChar

StartChar: X
Encoding: 88 88 58
Width: 416
GlyphClass: 2
Flags: MW
HStem: 0 21G<-74.5742 7.42578 -74.5742 -74.5742 240.426 323.426 240.426 240.426> 670 20G<97.7246 179.725 179.725 179.725 387.725 469.725 469.725 469.725>
LayerCount: 2
Fore
SplineSet
165.076171875 358 m 1
 97.724609375 690 l 1
 179.724609375 690 l 1
 224.9296875 431 l 1
 387.724609375 690 l 1
 469.724609375 690 l 1
 248.307617188 359 l 1
 323.42578125 0 l 1
 240.42578125 0 l 1
 190.454101562 286 l 1
 7.42578125 0 l 1
 -74.57421875 0 l 1
 165.076171875 358 l 1
EndSplineSet
EndChar

StartChar: Y
Encoding: 89 89 59
Width: 392
GlyphClass: 2
Flags: MW
HStem: 0 21G<76.4258 148.426 76.4258 76.4258> 670 20G<84.7246 164.725 164.725 164.725 378.725 458.725 458.725 458.725>
VStem: 84.7246 80<690 690>
LayerCount: 2
Fore
SplineSet
214.684570312 287 m 1
 148.42578125 0 l 1
 76.42578125 0 l 1
 142.684570312 287 l 1
 84.724609375 690 l 1
 164.724609375 690 l 1
 198.770507812 374 l 1
 378.724609375 690 l 1
 458.724609375 690 l 1
 214.684570312 287 l 1
EndSplineSet
EndChar

StartChar: Z
Encoding: 90 90 60
Width: 385
GlyphClass: 2
Flags: MW
HStem: 0 65<-38.5674 -38.5674 32.4326 274.426 -53.5742 -38.5674> 625 65<116.725 339.719 101.719 426.725 411.719 411.719>
LayerCount: 2
Fore
SplineSet
289.432617188 65 m 1
 274.42578125 0 l 1
 -53.57421875 0 l 1
 -38.5673828125 65 l 1
 339.71875 625 l 1
 101.71875 625 l 1
 116.724609375 690 l 1
 426.724609375 690 l 1
 411.71875 625 l 1
 32.4326171875 65 l 1
 289.432617188 65 l 1
EndSplineSet
EndChar

StartChar: bracketleft
Encoding: 91 91 61
Width: 253
GlyphClass: 2
Flags: MW
HStem: -84 65<41.0391 100.033> 675 65<201.262 275.262 201.262 201.262>
LayerCount: 2
Fore
SplineSet
147.268554688 740 m 1
 290.268554688 740 l 1
 275.26171875 675 l 1
 201.26171875 675 l 1
 41.0390625 -19 l 1
 115.0390625 -19 l 1
 100.033203125 -84 l 1
 -42.966796875 -84 l 1
 147.268554688 740 l 1
EndSplineSet
Substitution2: "'rtla' Right to Left Alternates lookup 0 subtable" bracketright
EndChar

StartChar: backslash
Encoding: 92 92 62
Width: 296
GlyphClass: 2
Flags: MW
HStem: 670 20G<125.725 190.725 190.725 190.725>
VStem: 95.1172 65<-10 -10> 125.725 65<690 690>
LayerCount: 2
Fore
SplineSet
125.724609375 690 m 1xa0
 190.724609375 690 l 1xa0
 160.1171875 -10 l 1
 95.1171875 -10 l 1xc0
 125.724609375 690 l 1xa0
EndSplineSet
EndChar

StartChar: bracketright
Encoding: 93 93 63
Width: 252
GlyphClass: 2
Flags: MW
HStem: -84 65<-37.9609 35.0391 -37.9609 89.0332 -52.9668 35.0391> 675 65<137.269 195.262 122.262 279.269>
VStem: -52.9668 332.235
LayerCount: 2
Fore
SplineSet
-37.9609375 -19 m 1
 35.0390625 -19 l 1
 195.26171875 675 l 1
 122.26171875 675 l 1
 137.268554688 740 l 1
 279.268554688 740 l 1
 89.033203125 -84 l 1
 -52.966796875 -84 l 1
 -37.9609375 -19 l 1
EndSplineSet
Substitution2: "'rtla' Right to Left Alternates lookup 0 subtable" bracketleft
EndChar

StartChar: asciicircum
Encoding: 94 94 64
Width: 420
GlyphClass: 2
Flags: MW
HStem: 670 20G<252.725 317.725 317.725 317.725>
LayerCount: 2
Fore
SplineSet
252.724609375 690 m 1
 317.724609375 690 l 1
 365.068359375 280 l 1
 299.068359375 280 l 1
 264.946289062 600 l 1
 82.068359375 280 l 1
 17.068359375 280 l 1
 252.724609375 690 l 1
EndSplineSet
EndChar

StartChar: underscore
Encoding: 95 95 65
Width: 416
GlyphClass: 2
Flags: MW
HStem: -104 50<-96.041 308.415 -107.585 319.959>
LayerCount: 2
Fore
SplineSet
-96.041015625 -54 m 1
 319.958984375 -54 l 1
 308.415039062 -104 l 1
 -107.584960938 -104 l 1
 -96.041015625 -54 l 1
EndSplineSet
EndChar

StartChar: grave
Encoding: 96 96 66
Width: 501
GlyphClass: 2
Flags: MW
HStem: 576 129<239.188 318.406 239.188 374.406>
VStem: 239.188 135.219<576 705>
LayerCount: 2
Fore
SplineSet
318.40625 576 m 1
 239.1875 705 l 1
 313.1875 705 l 1
 374.40625 576 l 1
 318.40625 576 l 1
EndSplineSet
EndChar

StartChar: a
Encoding: 97 97 67
Width: 401
GlyphClass: 2
Flags: MW
HStem: -8 58.999<89.5337 109.913> 0 21G<193.426 258.426 193.426 193.426> 243.999 51.001<142.758 258.531 178.531 246.758> 465 60<210.298 244.445>
LayerCount: 2
Fore
SplineSet
332.512695312 485.5 m 0xb0
 351.765625 459.166992188 355.928710938 422.333007812 345.000976562 375 c 2
 258.42578125 0 l 1
 193.42578125 0 l 1x70
 204.5078125 48 l 1
 172.555664062 10.6669921875 133.24609375 -8 86.5791015625 -8 c 0
 43.912109375 -8 14.361328125 5.5 -2.072265625 32.5 c 0
 -18.505859375 59.5 -21.1044921875 97.3330078125 -9.8681640625 146 c 0
 0.9052734375 192.666992188 22.4990234375 229.166992188 54.9111328125 255.5 c 0
 87.32421875 281.833007812 128.53125 295 178.53125 295 c 2
 258.53125 295 l 1
 277.693359375 378 l 2
 291.083007812 436 271.111328125 465 217.778320312 465 c 0
 193.111328125 465 172.572265625 458.333007812 156.161132812 445 c 0
 139.75 431.666992188 128.7734375 413 123.232421875 389 c 2
 121.385742188 381 l 1
 57.3857421875 381 l 1
 59.462890625 390 l 2
 69.16015625 432 89.611328125 465 120.819335938 489 c 0
 152.02734375 513 188.96484375 525 231.631835938 525 c 0
 279.631835938 525 313.258789062 511.833007812 332.512695312 485.5 c 0xb0
185.586914062 76.4990234375 m 0
 204.51171875 93.4990234375 217.513671875 117.33203125 224.59375 147.999023438 c 2
 246.7578125 243.999023438 l 1
 173.7578125 243.999023438 l 2
 111.7578125 243.999023438 73.29296875 211.666015625 58.36328125 146.999023438 c 0
 43.587890625 82.9990234375 62.8671875 50.9990234375 116.200195312 50.9990234375 c 0xb0
 143.533203125 50.9990234375 166.662109375 59.4990234375 185.586914062 76.4990234375 c 0
EndSplineSet
EndChar

StartChar: b
Encoding: 98 98 68
Width: 412
GlyphClass: 2
Flags: MW
HStem: -8 61<127.66 154.994 127.66 160.913> 0 21G<-24.5752 43.4248 -24.5752 -24.5752> 464 61<241.298 263.547> 670 20G<134.724 202.724 202.724 202.724>
LayerCount: 2
Fore
SplineSet
54.2763671875 47 m 1xb0
 43.4248046875 0 l 1
 -24.5751953125 0 l 1x70
 134.723632812 690 l 1
 202.723632812 690 l 1
 151.240234375 467 l 1
 182.833984375 505.666992188 219.96484375 525 262.631835938 525 c 0
 303.96484375 525 333.784179688 510.5 352.088867188 481.5 c 0
 370.393554688 452.5 372.697265625 408.333007812 358.999023438 349 c 2
 317.211914062 168 l 2
 303.513671875 108.666992188 280.81640625 64.5 249.12109375 35.5 c 0
 217.426757812 6.5 181.24609375 -8 140.579101562 -8 c 0
 97.24609375 -8 68.478515625 10.3330078125 54.2763671875 47 c 1xb0
208.740234375 81.5 m 0
 226.793945312 100.5 240.8984375 132 251.056640625 176 c 2
 289.149414062 341 l 2
 308.081054688 423 290.546875 464 236.546875 464 c 0
 208.546875 464 184.7890625 453.5 165.274414062 432.5 c 0
 145.758789062 411.5 131.307617188 380.666992188 121.918945312 340 c 2
 83.826171875 175 l 2
 74.5908203125 135 74.9208984375 104.666992188 84.81640625 84 c 0
 94.7119140625 63.3330078125 113.66015625 53 141.66015625 53 c 0xb0
 168.327148438 53 190.686523438 62.5 208.740234375 81.5 c 0
EndSplineSet
EndChar

StartChar: c
Encoding: 99 99 69
Width: 409
GlyphClass: 2
Flags: MW
HStem: -8 61<120.329 145.579> 464.001 60.999<218.964 258.549>
LayerCount: 2
Fore
SplineSet
15.390625 34.5 m 0
 -5.4013671875 62.8330078125 -8.794921875 107.333007812 5.2119140625 168 c 2
 46.9990234375 349 l 2
 61.0048828125 409.666992188 84.9453125 454.166992188 118.819335938 482.5 c 0
 152.693359375 510.833007812 194.297851562 525 243.630859375 525 c 0
 292.297851562 525 326.809570312 511.333007812 347.166015625 484 c 0
 367.522460938 456.666992188 371.313476562 415.333984375 358.538085938 360.000976562 c 2
 355.306640625 346.000976562 l 1
 287.306640625 346.000976562 l 1
 290.538085938 360.000976562 l 2
 306.544921875 429.333984375 286.548828125 464.000976562 230.548828125 464.000976562 c 0
 201.215820312 464.000976562 176.89453125 454.66796875 157.583984375 436.000976562 c 0
 138.274414062 417.333984375 123.463867188 385.666992188 113.15234375 341.000976562 c 2
 75.05859375 176.000976562 l 2
 64.74609375 131.333984375 64.935546875 99.6669921875 75.6259765625 81 c 0
 86.31640625 62.3330078125 105.995117188 53 134.662109375 53 c 0
 191.329101562 53 227.665039062 87.6669921875 243.671875 157 c 2
 246.904296875 171 l 1
 314.904296875 171 l 1
 311.903320312 158 l 2
 299.127929688 102.666992188 276.213867188 61.1669921875 243.16015625 33.5 c 0
 210.10546875 5.8330078125 169.579101562 -8 121.579101562 -8 c 0
 71.5791015625 -8 36.1826171875 6.1669921875 15.390625 34.5 c 0
EndSplineSet
EndChar

StartChar: d
Encoding: 100 100 70
Width: 412
GlyphClass: 2
Flags: MW
HStem: -8 61<114.329 122.246> 0 21G<201.426 269.426 201.426 201.426> 464 61<203.298 245.298 203.298 251.215> 670 20G<360.725 428.725 428.725 428.725>
LayerCount: 2
Fore
SplineSet
12.12109375 35.5 m 0xb0
 -6.18359375 64.5 -8.486328125 108.666992188 5.2119140625 168 c 2
 46.9990234375 349 l 2
 60.697265625 408.333007812 83.3935546875 452.5 115.088867188 481.5 c 0
 146.784179688 510.5 182.96484375 525 223.631835938 525 c 0
 266.96484375 525 295.500976562 505.666992188 309.241210938 467 c 1
 360.724609375 690 l 1
 428.724609375 690 l 1
 269.42578125 0 l 1
 201.42578125 0 l 1x70
 212.276367188 47 l 1
 181.14453125 10.3330078125 143.912109375 -8 100.579101562 -8 c 0
 59.912109375 -8 30.4267578125 6.5 12.12109375 35.5 c 0xb0
198.818359375 84 m 0
 218.256835938 104.666992188 232.592773438 135 241.828125 175 c 2
 279.920898438 340 l 2
 299.005859375 422.666992188 279.881835938 464 222.548828125 464 c 0
 168.548828125 464 132.083007812 423 113.151367188 341 c 2
 75.05859375 176 l 2
 64.900390625 132 64.4609375 100.5 73.7412109375 81.5 c 0
 83.021484375 62.5 100.99609375 53 127.662109375 53 c 0xb0
 155.662109375 53 179.379882812 63.3330078125 198.818359375 84 c 0
EndSplineSet
EndChar

StartChar: e
Encoding: 101 101 71
Width: 408
GlyphClass: 2
Flags: MW
HStem: -8 59<121.867 144.579> 238 51.999<89.3721 274.377 101.377 274.377 101.377 329.372> 463.999 61.001<216.632 241.548>
LayerCount: 2
Fore
SplineSet
89.3720703125 238 m 1
 75.2890625 176.999023438 l 2
 64.8232421875 131.666015625 65.19140625 99.3330078125 76.3955078125 80 c 0
 87.5986328125 60.6669921875 107.534179688 51 136.200195312 51 c 0
 190.8671875 51 226.125976562 85.3330078125 241.979492188 154 c 2
 242.903320312 158 l 1
 309.903320312 158 l 1
 309.209960938 155 l 2
 296.743164062 101 274.1875 60.3330078125 241.543945312 33 c 0
 208.901367188 5.6669921875 168.579101562 -8 120.579101562 -8 c 0
 16.5791015625 -8 -21.26171875 53.3330078125 7.05859375 176 c 2
 45.61328125 343 l 2
 59.4658203125 403 83.431640625 448.333007812 117.51171875 479 c 0
 151.591796875 509.666992188 192.631835938 525 240.631835938 525 c 0
 288.631835938 525 322.924804688 509.666992188 343.51171875 479 c 0
 364.098632812 448.333007812 367.465820312 403 353.61328125 343 c 2
 329.372070312 238 l 1
 89.3720703125 238 l 1
156.96875 435.499023438 m 0
 137.915039062 416.499023438 123.309570312 384.999023438 113.151367188 340.999023438 c 2
 101.376953125 289.999023438 l 1
 274.376953125 289.999023438 l 1
 286.61328125 342.999023438 l 2
 296.6171875 386.33203125 296.274414062 417.33203125 285.583984375 435.999023438 c 0
 274.893554688 454.666015625 255.547851562 463.999023438 227.547851562 463.999023438 c 0
 199.547851562 463.999023438 176.022460938 454.499023438 156.96875 435.499023438 c 0
EndSplineSet
EndChar

StartChar: f
Encoding: 102 102 72
Width: 288
GlyphClass: 2
Flags: MW
HStem: 0 21G<17.4268 85.4268 17.4268 17.4268> 464 53<74.7852 124.55 62.5498 136.785 204.785 281.55> 636 54<288.925 333.726 307.726 321.259>
VStem: 17.4268 316.299
LayerCount: 2
Fore
SplineSet
244.333007812 619 m 0
 231.048828125 607.6640625 221.484375 589.331054688 215.63671875 564 c 2
 204.78515625 517 l 1
 293.78515625 517 l 1
 281.549804688 464 l 1
 192.549804688 464 l 1
 85.4267578125 0 l 1
 17.4267578125 0 l 1
 124.549804688 464 l 1
 62.5498046875 464 l 1
 74.78515625 517 l 1
 136.78515625 517 l 1
 145.55859375 555 l 2
 155.716796875 599 174.618164062 632.5 202.260742188 655.5 c 0
 229.903320312 678.5 265.05859375 690 307.725585938 690 c 2
 333.725585938 690 l 1
 321.258789062 636 l 1
 301.258789062 636 l 2
 276.591796875 636 257.616210938 630.333007812 244.333007812 619 c 0
EndSplineSet
EndChar

StartChar: g
Encoding: 103 103 73
Width: 412
GlyphClass: 2
Flags: MW
HStem: -162 59<81.6475 105.692> 32 61<123.564 131.813> 464 61<209.882 245.632 203.298 251.215> 497 20G<320.784 388.784 388.784 388.784>
VStem: -34.7305 65<-31 -31>
LayerCount: 2
Fore
SplineSet
-17.39453125 -127 m 0xd8
 -37.0078125 -103.666992188 -42.7861328125 -71.6669921875 -34.73046875 -31 c 1
 30.26953125 -31 l 1
 26.5234375 -53 30.150390625 -70.5 41.1494140625 -83.5 c 0
 52.1474609375 -96.5 69.6474609375 -103 93.6474609375 -103 c 0
 122.98046875 -103 146.467773438 -93.6669921875 164.110351562 -75 c 0
 181.752929688 -56.3330078125 194.9609375 -28 203.734375 10 c 2
 221.280273438 86 l 1
 190.96875 50 153.813476562 32 109.813476562 32 c 0
 69.146484375 32 39.6611328125 46.5 21.3564453125 75.5 c 0
 3.0517578125 104.5 0.6708984375 148.333007812 14.2158203125 207 c 2
 47.2294921875 350 l 2
 60.7734375 408.666992188 83.3935546875 452.5 115.088867188 481.5 c 0
 146.784179688 510.5 182.96484375 525 223.631835938 525 c 0xe8
 267.631835938 525 296.16796875 505.666992188 309.241210938 467 c 1
 320.784179688 517 l 1
 388.784179688 517 l 1
 273.119140625 16 l 2
 260.499023438 -38.6669921875 237.994140625 -82 205.606445312 -114 c 0
 173.21875 -146 131.358398438 -162 80.025390625 -162 c 0
 34.6923828125 -162 2.21875 -150.333007812 -17.39453125 -127 c 0xd8
208.0546875 124 m 0
 227.493164062 144.666992188 241.828125 175 251.0625 215 c 2
 280.151367188 341 l 2
 299.083007812 423 279.881835938 464 222.548828125 464 c 0
 197.21484375 464 175.2265625 454.666992188 156.583984375 436 c 0
 137.94140625 417.333007812 123.541015625 386 113.3828125 342 c 2
 84.0625 215 l 2
 73.904296875 171 73.5029296875 139.666992188 82.8603515625 121 c 0
 92.2177734375 102.333007812 110.23046875 93 136.897460938 93 c 0
 164.897460938 93 188.616210938 103.333007812 208.0546875 124 c 0
EndSplineSet
EndChar

StartChar: h
Encoding: 104 104 74
Width: 416
GlyphClass: 2
Flags: MW
HStem: 0 21G<-24.5742 43.4258 -24.5742 -24.5742 205.427 273.427 205.427 205.427> 464 61<219.549 285.299> 670 20G<134.725 202.725 202.725 202.725>
LayerCount: 2
Fore
SplineSet
134.724609375 690 m 1
 202.724609375 690 l 1
 152.395507812 472 l 1
 166.91015625 488.666992188 184.079101562 501.666992188 203.900390625 511 c 0
 223.721679688 520.333007812 243.966796875 525 264.6328125 525 c 0
 305.965820312 525 334.92578125 511.833007812 351.513671875 485.5 c 0
 368.100585938 459.166992188 370.853515625 422 359.771484375 374 c 2
 273.426757812 0 l 1
 205.426757812 0 l 1
 291.079101562 371 l 2
 298.004882812 401 295.981445312 424 285.008789062 440 c 0
 274.03515625 456 256.215820312 464 231.548828125 464 c 0
 207.548828125 464 186.201171875 456 167.5078125 440 c 0
 148.813476562 424 136.00390625 401 129.078125 371 c 2
 43.42578125 0 l 1
 -24.57421875 0 l 1
 134.724609375 690 l 1
EndSplineSet
EndChar

StartChar: i
Encoding: 105 105 75
Width: 199
GlyphClass: 2
Flags: MW
HStem: 0 21G<-18.5742 49.4258 -18.5742 -18.5742> 497 20G<100.784 168.784 168.784 168.784> 599 90<140.494 188.716 119.716 209.494>
VStem: -18.5742 228.068
LayerCount: 2
Fore
SplineSet
100.784179688 517 m 1
 168.784179688 517 l 1
 49.42578125 0 l 1
 -18.57421875 0 l 1
 100.784179688 517 l 1
140.494140625 689 m 1
 209.494140625 689 l 1
 188.715820312 599 l 1
 119.715820312 599 l 1
 140.494140625 689 l 1
EndSplineSet
EndChar

StartChar: j
Encoding: 106 106 76
Width: 195
GlyphClass: 2
Flags: MW
HStem: -152 61<-129.583 -126.666 -143.666 -114.582> 497 20G<96.7852 165.785 165.785 165.785> 599 90<136.494 184.716 115.716 205.494>
LayerCount: 2
Fore
SplineSet
136.494140625 689 m 1
 205.494140625 689 l 1
 184.715820312 599 l 1
 115.715820312 599 l 1
 136.494140625 689 l 1
-129.583007812 -91 m 1
 -114.58203125 -91 l 2
 -67.2490234375 -91 -37.5029296875 -64.6669921875 -25.34375 -12 c 2
 96.78515625 517 l 1
 165.78515625 517 l 1
 42.9638671875 -15 l 2
 32.6513671875 -59.6669921875 12.96875 -93.6669921875 -16.0849609375 -117 c 0
 -45.138671875 -140.333007812 -81.9990234375 -152 -126.666015625 -152 c 2
 -143.666015625 -152 l 1
 -129.583007812 -91 l 1
EndSplineSet
EndChar

StartChar: k
Encoding: 107 107 77
Width: 409
GlyphClass: 2
Flags: MW
HStem: 0 21G<-24.5742 43.4258 -24.5742 -24.5742 232.426 232.426 232.426 310.426> 497 20G<335.784 410.784 410.784 410.784> 670 20G<134.725 202.725 202.725 202.725>
LayerCount: 2
Fore
SplineSet
172.528320312 256 m 1
 78.7490234375 153 l 1
 43.42578125 0 l 1
 -24.57421875 0 l 1
 134.724609375 690 l 1
 202.724609375 690 l 1
 100.680664062 248 l 1
 335.784179688 517 l 1
 410.784179688 517 l 1
 228.841796875 318 l 1
 310.42578125 0 l 1
 232.42578125 0 l 1
 172.528320312 256 l 1
EndSplineSet
EndChar

StartChar: l
Encoding: 108 108 78
Width: 234
GlyphClass: 2
Flags: MW
HStem: 0 61<91.0933 144.51 129.51 130.427> 670 20G<134.726 203.726 203.726 203.726>
LayerCount: 2
Fore
SplineSet
19.005859375 35 m 0
 0.7255859375 58.3330078125 -3.2568359375 92.3330078125 7.0556640625 137 c 2
 134.725585938 690 l 1
 203.725585938 690 l 1
 76.748046875 140 l 2
 64.5888671875 87.3330078125 82.1767578125 61 129.509765625 61 c 2
 144.509765625 61 l 1
 130.426757812 0 l 1
 113.426757812 0 l 2
 68.759765625 0 37.2861328125 11.6669921875 19.005859375 35 c 0
EndSplineSet
EndChar

StartChar: m
Encoding: 109 109 79
Width: 646
GlyphClass: 2
Flags: MW
HStem: 0 21G<-24.5742 44.4258 -24.5742 -24.5742> 463.999 61<219.548 276.965> 497 20G<94.7842 94.7842>
LayerCount: 2
Fore
SplineSet
94.7841796875 517 m 1xa0
 161.78515625 516.999023438 l 1
 150.934570312 469.999023438 l 1
 164.782226562 486.666015625 181.693359375 499.999023438 201.668945312 509.999023438 c 0
 221.64453125 519.999023438 242.631835938 524.999023438 264.631835938 524.999023438 c 0
 289.298828125 524.999023438 309.952148438 519.166015625 326.591796875 507.499023438 c 0
 343.231445312 495.83203125 354.909179688 479.999023438 361.625 459.999023438 c 1
 379.063476562 480.666015625 398.923828125 496.666015625 421.20703125 507.999023438 c 0
 443.491210938 519.33203125 466.631835938 524.999023438 490.631835938 524.999023438 c 0
 534.631835938 524.999023438 564.92578125 511.83203125 581.512695312 485.499023438 c 0
 598.100585938 459.166015625 600.852539062 421.999023438 589.771484375 373.999023438 c 2
 503.426757812 -0.0009765625 l 1
 434.426757812 -0.0009765625 l 1
 520.078125 370.999023438 l 2
 527.004882812 400.999023438 525.147460938 423.999023438 514.508789062 439.999023438 c 0
 503.869140625 455.999023438 486.548828125 463.999023438 462.548828125 463.999023438 c 0
 437.881835938 463.999023438 416.1640625 455.83203125 397.392578125 439.499023438 c 0
 378.622070312 423.166015625 365.927734375 400.666015625 359.309570312 371.999023438 c 2
 273.426757812 -0.0009765625 l 1
 205.426757812 -0.0009765625 l 1
 291.078125 370.999023438 l 2
 297.850585938 400.333007812 295.7890625 423.166015625 284.892578125 439.499023438 c 0
 273.997070312 455.83203125 256.21484375 463.999023438 231.547851562 463.999023438 c 0xc0
 207.547851562 463.999023438 186.330078125 455.83203125 167.891601562 439.499023438 c 0
 149.454101562 423.166015625 136.849609375 400.333007812 130.078125 371 c 2
 44.42578125 0 l 1
 -24.57421875 0 l 1
 94.7841796875 517 l 1xa0
EndSplineSet
EndChar

StartChar: n
Encoding: 110 110 80
Width: 416
GlyphClass: 2
Flags: MW
HStem: 0 21G<-24.5742 43.4258 -24.5742 -24.5742> 463.999 61<219.548 285.298> 497 20G<94.7842 94.7842>
LayerCount: 2
Fore
SplineSet
94.7841796875 517 m 1xa0
 160.78515625 516.999023438 l 1
 149.934570312 469.999023438 l 1
 163.782226562 486.666015625 180.860351562 499.999023438 201.168945312 509.999023438 c 0
 221.477539062 519.999023438 242.631835938 524.999023438 264.631835938 524.999023438 c 0
 305.96484375 524.999023438 334.88671875 511.666015625 351.397460938 484.999023438 c 0
 367.908203125 458.33203125 370.69921875 421.33203125 359.771484375 373.999023438 c 2
 273.426757812 -0.0009765625 l 1
 205.426757812 -0.0009765625 l 1
 291.078125 370.999023438 l 2
 298.004882812 400.999023438 295.981445312 423.999023438 285.008789062 439.999023438 c 0
 274.03515625 455.999023438 256.21484375 463.999023438 231.547851562 463.999023438 c 0xc0
 207.547851562 463.999023438 186.163085938 455.83203125 167.391601562 439.499023438 c 0
 148.62109375 423.166015625 135.849609375 400.333007812 129.078125 371 c 2
 43.42578125 0 l 1
 -24.57421875 0 l 1
 94.7841796875 517 l 1xa0
EndSplineSet
EndChar

StartChar: o
Encoding: 111 111 81
Width: 409
GlyphClass: 2
Flags: MW
HStem: -8 61<119.662 144.578> 464.001 60.999<218.964 242.549>
LayerCount: 2
Fore
SplineSet
15.390625 34.5 m 0
 -5.4013671875 62.8330078125 -8.794921875 107.333007812 5.2119140625 168 c 2
 46.9990234375 349 l 2
 61.0048828125 409.666992188 84.9453125 454.166992188 118.819335938 482.5 c 0
 152.693359375 510.833007812 194.297851562 525 243.630859375 525 c 0
 291.630859375 525 325.821289062 510.666992188 346.203125 482 c 0
 366.584960938 453.333007812 369.849609375 409 355.998046875 349 c 2
 314.2109375 168 l 2
 300.358398438 108 276.623046875 63.6669921875 243.004882812 35 c 0
 209.38671875 6.3330078125 168.578125 -8 120.578125 -8 c 0
 71.2451171875 -8 36.1826171875 6.1669921875 15.390625 34.5 c 0
204.241210938 81.5 m 0
 223.294921875 100.5 237.900390625 132.000976562 248.05859375 176.000976562 c 2
 286.15234375 341.000976562 l 2
 296.310546875 385.000976562 296.25 416.500976562 285.96875 435.500976562 c 0
 275.688476562 454.500976562 256.548828125 464.000976562 228.548828125 464.000976562 c 0
 200.548828125 464.000976562 176.89453125 454.66796875 157.583984375 436.000976562 c 0
 138.274414062 417.333984375 123.463867188 385.666992188 113.15234375 341.000976562 c 2
 75.05859375 176.000976562 l 2
 64.74609375 131.333984375 64.935546875 99.6669921875 75.6259765625 81 c 0
 86.31640625 62.3330078125 105.662109375 53 133.662109375 53 c 0
 161.662109375 53 185.1875 62.5 204.241210938 81.5 c 0
EndSplineSet
EndChar

StartChar: p
Encoding: 112 112 82
Width: 412
GlyphClass: 2
Flags: MW
HStem: -152 21G<-59.666 8.33398 -59.666 -59.666> -8 61<127.66 154.994 127.66 160.913> 464 61<241.298 263.547> 497 20G<94.7842 162.783 162.783 162.783>
LayerCount: 2
Fore
SplineSet
94.7841796875 517 m 1xd0
 162.783203125 517 l 1xd0
 151.240234375 467 l 1
 182.833984375 505.666992188 219.96484375 525 262.631835938 525 c 0xe0
 303.96484375 525 333.784179688 510.5 352.088867188 481.5 c 0
 370.393554688 452.5 372.697265625 408.333007812 358.999023438 349 c 2
 317.211914062 168 l 2
 303.513671875 108.666992188 280.81640625 64.5 249.12109375 35.5 c 0
 217.426757812 6.5 181.24609375 -8 140.579101562 -8 c 0
 97.24609375 -8 68.4013671875 10 54.0458984375 46 c 1
 8.333984375 -152 l 1
 -59.666015625 -152 l 1
 94.7841796875 517 l 1xd0
208.740234375 81.5 m 0
 226.793945312 100.5 240.8984375 132 251.056640625 176 c 2
 289.149414062 341 l 2
 308.081054688 423 290.546875 464 236.546875 464 c 0xe0
 208.546875 464 184.7890625 453.5 165.274414062 432.5 c 0
 145.758789062 411.5 131.307617188 380.666992188 121.918945312 340 c 2
 83.826171875 175 l 2
 74.5908203125 135 74.9208984375 104.666992188 84.81640625 84 c 0
 94.7119140625 63.3330078125 113.66015625 53 141.66015625 53 c 0
 168.327148438 53 190.686523438 62.5 208.740234375 81.5 c 0
EndSplineSet
EndChar

StartChar: q
Encoding: 113 113 83
Width: 412
GlyphClass: 2
Flags: MW
HStem: -152 21G<166.334 234.334 166.334 166.334> -8 61<114.328 122.245> 464 61<203.964 245.964 203.964 251.213> 497 20G<320.784 388.784 388.784 388.784>
LayerCount: 2
Fore
SplineSet
212.045898438 46 m 1xd0
 181.067382812 10 143.911132812 -8 100.578125 -8 c 0
 59.9111328125 -8 30.42578125 6.5 12.1201171875 35.5 c 0
 -6.1845703125 64.5 -8.4873046875 108.666992188 5.2109375 168 c 2
 46.998046875 349 l 2
 60.6962890625 408.333007812 83.392578125 452.5 115.087890625 481.5 c 0
 146.783203125 510.5 183.297851562 525 224.630859375 525 c 0xe0
 267.297851562 525 295.500976562 505.666992188 309.241210938 467 c 1
 320.784179688 517 l 1
 388.784179688 517 l 1
 234.333984375 -152 l 1
 166.333984375 -152 l 1
 212.045898438 46 l 1xd0
198.817382812 84 m 0
 218.255859375 104.666992188 232.590820312 135 241.826171875 175 c 2
 279.918945312 340 l 2
 299.00390625 422.666992188 279.879882812 464 222.546875 464 c 0
 168.546875 464 132.081054688 423 113.149414062 341 c 2
 75.056640625 176 l 2
 64.8984375 132 64.458984375 100.5 73.7392578125 81.5 c 0
 83.01953125 62.5 100.994140625 53 127.661132812 53 c 0
 155.661132812 53 179.37890625 63.3330078125 198.817382812 84 c 0
EndSplineSet
EndChar

StartChar: r
Encoding: 114 114 84
Width: 290
GlyphClass: 2
Flags: MW
HStem: 0 21G<-24.5742 43.4258 -24.5742 -24.5742> 464 61<229.882 277.632> 497 20G<94.7842 160.784 160.784 160.784>
VStem: -24.5742 331.282
LayerCount: 2
Fore
SplineSet
94.7841796875 517 m 1xb0
 160.784179688 517 l 1xb0
 149.010742188 466 l 1
 164.9609375 486 183.384765625 500.833007812 204.284179688 510.5 c 0
 225.182617188 520.166992188 247.298828125 525 270.631835938 525 c 0
 284.631835938 525 296.657226562 523.666992188 306.708007812 521 c 1
 291.470703125 455 l 1
 274.85546875 461 258.881835938 464 243.548828125 464 c 0xd0
 216.21484375 464 191.880859375 455.333007812 170.545898438 438 c 0
 149.2109375 420.666992188 135.080078125 397 128.154296875 367 c 2
 43.42578125 0 l 1
 -24.57421875 0 l 1
 94.7841796875 517 l 1xb0
EndSplineSet
EndChar

StartChar: s
Encoding: 115 115 85
Width: 382
GlyphClass: 2
Flags: MW
HStem: -8 60<107.434 129.913> 466.001 59<208.968 230.679>
LayerCount: 2
Fore
SplineSet
4.1982421875 31.5 m 0
 -16.72265625 57.8330078125 -21.9462890625 93.6669921875 -11.48046875 139 c 2
 -10.095703125 145 l 1
 52.904296875 145 l 1
 51.51953125 139 l 2
 45.0546875 111 48.091796875 89.5 60.6279296875 74.5 c 0
 73.1650390625 59.5 93.43359375 52 121.43359375 52 c 0
 147.43359375 52 169.844726562 58.8330078125 188.666992188 72.5 c 0
 207.489257812 86.1669921875 220.131835938 107 226.595703125 135 c 0
 231.674804688 157 230.34375 174.333007812 222.600585938 187 c 0
 214.858398438 199.666992188 199.551757812 211.333984375 176.681640625 222 c 2
 117.915039062 249 l 2
 58.2255859375 276.333007812 35.6142578125 321.333007812 50.08203125 384 c 0
 59.9326171875 426.666992188 81.3203125 460.833984375 114.24609375 486.500976562 c 0
 147.171875 512.16796875 186.301757812 525.000976562 231.634765625 525.000976562 c 0
 276.967773438 525.000976562 309.799804688 512.000976562 330.129882812 486.000976562 c 0
 350.459960938 460.000976562 355.546875 425.000976562 345.388671875 381.000976562 c 2
 342.387695312 368.000976562 l 1
 279.387695312 368.000976562 l 1
 280.772460938 374.000976562 l 2
 287.544921875 403.333984375 285.444335938 426.000976562 274.471679688 442.000976562 c 0
 263.498046875 458.000976562 244.345703125 466.000976562 217.012695312 466.000976562 c 0
 192.345703125 466.000976562 171.267578125 459.16796875 153.779296875 445.500976562 c 0
 136.291015625 431.833984375 124.776367188 413.000976562 119.235351562 389.000976562 c 0
 115.080078125 371.000976562 116.129882812 355.333984375 122.384765625 342.000976562 c 0
 128.639648438 328.66796875 142.279296875 317.000976562 163.303710938 307.000976562 c 2
 222.0703125 280.000976562 l 2
 254.016601562 265.333984375 276.438476562 247.666992188 289.333984375 227 c 0
 302.229492188 206.333007812 304.3671875 177.333007812 295.748046875 140 c 0
 284.974609375 93.3330078125 262.752929688 57 229.083984375 31 c 0
 195.4140625 5 154.24609375 -8 105.579101562 -8 c 0
 58.912109375 -8 25.1181640625 5.1669921875 4.1982421875 31.5 c 0
EndSplineSet
EndChar

StartChar: t
Encoding: 116 116 86
Width: 295
GlyphClass: 2
Flags: MW
HStem: 0 60<104.092 182.277 168.277 168.426> 464 53<62.7842 116.549 50.5488 128.784 196.784 283.549>
LayerCount: 2
Fore
SplineSet
184.548828125 464 m 1
 109.516601562 139 l 2
 103.359375 112.333007812 105.114257812 92.5 114.779296875 79.5 c 0
 124.4453125 66.5 142.27734375 60 168.27734375 60 c 2
 182.27734375 60 l 1
 168.42578125 0 l 1
 151.42578125 0 l 2
 56.7587890625 0 19.8916015625 45.3330078125 40.82421875 136 c 2
 116.548828125 464 l 1
 50.548828125 464 l 1
 62.7841796875 517 l 1
 128.784179688 517 l 1
 153.71875 625 l 1
 228.875 656 l 1
 196.784179688 517 l 1
 295.784179688 517 l 1
 283.548828125 464 l 1
 184.548828125 464 l 1
EndSplineSet
EndChar

StartChar: u
Encoding: 117 117 87
Width: 416
GlyphClass: 2
Flags: MW
HStem: -8 61<121.33 147.913> 497 20G<94.7852 162.785 162.785 162.785 324.784 392.784 392.784 392.784>
LayerCount: 2
Fore
SplineSet
19.66015625 33.5 m 0
 1.7138671875 61.1669921875 -0.7939453125 103 12.134765625 159 c 2
 94.78515625 517 l 1
 162.78515625 517 l 1
 90.7548828125 205 l 2
 78.1337890625 150.333007812 74.6298828125 111.333007812 80.2431640625 88 c 0
 85.8564453125 64.6669921875 104.99609375 53 137.663085938 53 c 0
 159.663085938 53 177.484375 58 191.125976562 68 c 0
 204.768554688 78 216.21875 93.6669921875 225.475585938 115 c 0
 234.733398438 136.333007812 243.827148438 166.333007812 252.75390625 205 c 2
 324.784179688 517 l 1
 392.784179688 517 l 1
 310.133789062 159 l 2
 297.205078125 103 275.379882812 61.1669921875 244.66015625 33.5 c 0
 213.939453125 5.8330078125 173.24609375 -8 122.579101562 -8 c 0
 71.912109375 -8 37.60546875 5.8330078125 19.66015625 33.5 c 0
EndSplineSet
EndChar

StartChar: v
Encoding: 118 118 88
Width: 371
GlyphClass: 2
Flags: MW
HStem: 0 21G<67.4258 135.426 67.4258 67.4258> 497 20G<50.7842 124.784 124.784 124.784 317.784 391.784 391.784 391.784>
VStem: 50.7842 74<517 517> 67.4258 59.9336
LayerCount: 2
Fore
SplineSet
50.7841796875 517 m 1xe0
 124.784179688 517 l 1xe0
 127.359375 108 l 1
 317.784179688 517 l 1
 391.784179688 517 l 1
 135.42578125 0 l 1
 67.42578125 0 l 1xd0
 50.7841796875 517 l 1xe0
EndSplineSet
EndChar

StartChar: w
Encoding: 119 119 89
Width: 577
GlyphClass: 2
Flags: MW
HStem: 0 21G<48.4258 114.426 48.4258 48.4258 294.426 359.426 294.426 294.426> 497 20G<50.7842 124.784 124.784 124.784 293.784 351.784 351.784 351.784 522.784 597.784 597.784 597.784>
VStem: 48.4258 66<0 0> 50.7842 74<517 517> 293.695 58.0889
LayerCount: 2
Fore
SplineSet
50.7841796875 517 m 1xd8
 124.784179688 517 l 1xd8
 108.821289062 110 l 1
 293.784179688 517 l 1
 351.784179688 517 l 1
 350.821289062 110 l 1
 522.784179688 517 l 1
 597.784179688 517 l 1
 359.42578125 0 l 1
 294.42578125 0 l 1
 293.6953125 391 l 1
 114.42578125 0 l 1
 48.42578125 0 l 1xe8
 50.7841796875 517 l 1xd8
EndSplineSet
EndChar

StartChar: x
Encoding: 120 120 90
Width: 349
GlyphClass: 2
Flags: MW
HStem: 0 21G<-68.5742 3.42578 -68.5742 -68.5742 177.426 250.426 177.426 177.426> 497 20G<59.7842 132.784 132.784 132.784 286.784 359.784 359.784 359.784>
LayerCount: 2
Fore
SplineSet
177.42578125 0 m 1
 133.751953125 192 l 1
 3.42578125 0 l 1
 -68.57421875 0 l 1
 116.529296875 269 l 1
 59.7841796875 517 l 1
 132.784179688 517 l 1
 172.305664062 346 l 1
 286.784179688 517 l 1
 359.784179688 517 l 1
 188.453125 273 l 1
 250.42578125 0 l 1
 177.42578125 0 l 1
EndSplineSet
EndChar

StartChar: y
Encoding: 121 121 91
Width: 371
GlyphClass: 2
Flags: MW
HStem: -154 61<-74.1279 -43.0449 -74.1279 -43.0449> 497 20G<50.7842 124.784 124.784 124.784 317.784 391.784 391.784 391.784>
VStem: 50.7842 74<517 517> 68.6553 62.9365
LayerCount: 2
Fore
SplineSet
391.784179688 517 m 1xd0
 110.11328125 -48.9990234375 l 2
 91.1865234375 -87.666015625 67.9140625 -114.833007812 40.2978515625 -130.5 c 0
 12.6806640625 -146.166992188 -22.1279296875 -154 -64.1279296875 -154 c 2
 -74.1279296875 -154 l 1
 -60.044921875 -93 l 1
 -43.044921875 -93 l 2
 -17.044921875 -93 4.109375 -88 20.41796875 -78 c 0
 36.7265625 -68 50.2412109375 -51.3330078125 60.9609375 -28 c 2
 68.6552734375 -12 l 1xd0
 50.7841796875 517 l 1
 124.784179688 517 l 1xe0
 131.591796875 122 l 1
 317.784179688 517 l 1
 391.784179688 517 l 1xd0
EndSplineSet
EndChar

StartChar: z
Encoding: 122 122 92
Width: 376
GlyphClass: 2
Flags: MW
HStem: 0 62<-19.2607 -19.2607 53.7393 242.426 -33.5742 -19.2607> 455 62<85.7842 274.471 71.4707 361.784 347.471 347.471>
LayerCount: 2
Fore
SplineSet
347.470703125 455 m 1
 53.7392578125 62 l 1
 256.739257812 62 l 1
 242.42578125 0 l 1
 -33.57421875 0 l 1
 -19.2607421875 62 l 1
 274.470703125 455 l 1
 71.470703125 455 l 1
 85.7841796875 517 l 1
 361.784179688 517 l 1
 347.470703125 455 l 1
EndSplineSet
EndChar

StartChar: braceleft
Encoding: 123 123 93
Width: 307
GlyphClass: 2
Flags: MW
HStem: -84 65<97.7007 169.04 144.04 154.034> 298.998 63<35.4541 49.999> 674.999 65<289.596 344.269 305.269 329.263>
VStem: 35.4541 308.814
LayerCount: 2
Fore
SplineSet
44.4970703125 -56 m 0
 32.1396484375 -37.3330078125 30.3466796875 -9.00390625 39.1201171875 28.99609375 c 2
 83.908203125 222.99609375 l 2
 90.0654296875 249.663085938 89.6572265625 268.830078125 82.68359375 280.497070312 c 0
 75.7099609375 292.1640625 59.966796875 298.331054688 35.4541015625 298.998046875 c 1
 49.9990234375 361.998046875 l 1
 74.8193359375 362.665039062 93.41015625 368.83203125 105.770507812 380.499023438 c 0
 118.131835938 392.166015625 127.54296875 411.999023438 134.0078125 439.999023438 c 2
 177.1796875 626.999023438 l 2
 185.953125 664.999023438 200.827148438 693.33203125 221.803710938 711.999023438 c 0
 242.780273438 730.666015625 270.6015625 739.999023438 305.268554688 739.999023438 c 2
 344.268554688 739.999023438 l 1
 329.262695312 674.999023438 l 1
 304.262695312 674.999023438 l 2
 274.9296875 674.999023438 256.4921875 658.666015625 248.950195312 625.999023438 c 2
 209.702148438 455.999023438 l 2
 200.622070312 416.666015625 190.208984375 388.166015625 178.462890625 370.499023438 c 0
 166.717773438 352.83203125 148.510742188 339.665039062 123.842773438 330.999023438 c 1
 144.201171875 320.999023438 156.212890625 307.33203125 159.877929688 289.999023438 c 0
 163.543945312 272.666015625 160.834960938 244.333007812 151.754882812 205 c 2
 111.352539062 30 l 2
 103.810546875 -2.6669921875 114.70703125 -19 144.040039062 -19 c 2
 169.040039062 -19 l 1
 154.034179688 -84 l 1
 115.034179688 -84 l 2
 80.3671875 -84 56.8544921875 -74.6669921875 44.4970703125 -56 c 0
EndSplineSet
Substitution2: "'rtla' Right to Left Alternates lookup 0 subtable" braceright
EndChar

StartChar: bar
Encoding: 124 124 94
Width: 266
GlyphClass: 2
Flags: MW
VStem: -2.73633 256.005
LayerCount: 2
Fore
SplineSet
187.268554688 740 m 1
 253.268554688 740 l 1
 63.263671875 -83 l 1
 -2.736328125 -83 l 1
 187.268554688 740 l 1
EndSplineSet
EndChar

StartChar: braceright
Encoding: 125 125 95
Width: 307
GlyphClass: 2
Flags: MW
HStem: -84 65<-37.9609 -37.9609 -37.9609 -13.9668 -52.9668 -37.9609> 299.001 63<242.457 257.002> 675.002 65<137.269 146.262 122.262 176.269>
VStem: -52.9668 309.969
LayerCount: 2
Fore
SplineSet
-37.9609375 -19 m 1
 -13.9599609375 -18.998046875 l 2
 15.373046875 -18.998046875 33.810546875 -2.6650390625 41.3525390625 30.001953125 c 2
 81.75390625 205.001953125 l 2
 90.8349609375 244.334960938 101.208984375 272.66796875 112.877929688 290.000976562 c 0
 124.545898438 307.333984375 143.201171875 321.000976562 168.84375 331.000976562 c 1
 147.51171875 339.66796875 135.05078125 352.834960938 131.462890625 370.501953125 c 0
 127.875 388.168945312 130.62109375 416.668945312 139.702148438 456.001953125 c 2
 178.94921875 626.001953125 l 2
 186.491210938 658.668945312 175.594726562 675.001953125 146.26171875 675.001953125 c 2
 122.26171875 675.001953125 l 1
 137.268554688 740.001953125 l 1
 176.268554688 740.001953125 l 2
 210.935546875 740.001953125 234.448242188 730.668945312 246.805664062 712.001953125 c 0
 259.163085938 693.334960938 260.954101562 665.001953125 252.181640625 627.001953125 c 2
 209.008789062 440.001953125 l 2
 202.544921875 412.001953125 202.798828125 392.168945312 209.772460938 380.501953125 c 0
 216.745117188 368.83203125 232.48828125 362.665039062 257.001953125 362.000976562 c 1
 242.45703125 299.000976562 l 1
 217.63671875 298.333984375 199.045898438 292.166992188 186.685546875 280.500976562 c 0
 174.325195312 268.833984375 165.06640625 249.666992188 158.91015625 223 c 2
 114.122070312 29 l 2
 105.348632812 -9 90.474609375 -37.3330078125 69.498046875 -56 c 0
 48.521484375 -74.6669921875 20.7001953125 -84 -13.966796875 -84 c 2
 -52.966796875 -84 l 1
 -37.9609375 -19 l 1
EndSplineSet
Substitution2: "'rtla' Right to Left Alternates lookup 0 subtable" braceleft
EndChar

StartChar: asciitilde
Encoding: 126 126 96
Width: 420
GlyphClass: 2
Flags: MW
HStem: 216 67.999<251.326 255.293> 266.998 69.001<125.332 131.401>
LayerCount: 2
Fore
SplineSet
206.524414062 223.5 m 0x80
 196.01171875 228.5 184.5 235.665039062 171.98828125 244.998046875 c 0
 153.374023438 259.665039062 137.734375 266.998046875 125.067382812 266.998046875 c 0
 113.067382812 266.998046875 101.720703125 263.331054688 91.02734375 255.998046875 c 0
 80.333984375 248.6640625 66.525390625 234.331054688 49.6005859375 212.998046875 c 1
 3.21875 245.998046875 l 1
 24.9658203125 276.665039062 46.8662109375 299.33203125 68.9189453125 313.999023438 c 0
 90.97265625 328.666015625 113.665039062 335.999023438 136.998046875 335.999023438 c 0x40
 150.998046875 335.999023438 163.087890625 333.499023438 173.266601562 328.499023438 c 0
 183.4453125 323.499023438 195.046875 315.999023438 208.071289062 305.999023438 c 0
 218.891601562 297.999023438 227.583007812 292.33203125 234.146484375 288.999023438 c 0
 240.711914062 285.666015625 247.66015625 283.999023438 254.991210938 283.999023438 c 0
 267.658203125 283.999023438 279.171875 287.666015625 289.53125 294.999023438 c 0
 299.891601562 302.33203125 313.610351562 316.999023438 330.689453125 338.999023438 c 1
 377.071289062 305.999023438 l 1
 355.169921875 274.666015625 333.399414062 251.833007812 311.756835938 237.5 c 0
 290.115234375 223.166992188 267.29296875 216 243.29296875 216 c 0
 229.29296875 216 217.037109375 218.5 206.524414062 223.5 c 0x80
EndSplineSet
EndChar

StartChar: exclamdown
Encoding: 161 161 98
Width: 204
GlyphClass: 2
Flags: MW
HStem: -152 21G<-57.666 34.334 -57.666 -57.666> 420 97<102.784 158.391 80.3906 180.784>
VStem: -57.666 238.45
LayerCount: 2
Fore
SplineSet
102.784179688 517 m 1
 180.784179688 517 l 1
 158.390625 420 l 1
 80.390625 420 l 1
 102.784179688 517 l 1
69.4580078125 325 m 1
 126.458007812 325 l 1
 34.333984375 -152 l 1
 -57.666015625 -152 l 1
 69.4580078125 325 l 1
EndSplineSet
EndChar

StartChar: cent
Encoding: 162 162 99
Width: 409
GlyphClass: 2
Flags: W
LayerCount: 2
Fore
SplineSet
287.305664062 346 m 1
 290.538085938 359.998046875 l 2
 303.774414062 417.33203125 292.802734375 450.665039062 257.625 459.998046875 c 1
 164.584960938 56.998046875 l 1
 204.380859375 67.6650390625 230.743164062 100.998046875 243.671875 156.998046875 c 2
 246.903320312 170.998046875 l 1
 314.903320312 170.998046875 l 1
 311.90234375 157.998046875 l 2
 300.512695312 108.665039062 280.830078125 70.33203125 252.852539062 42.9990234375 c 0
 224.875976562 15.666015625 190.604492188 -0.6669921875 150.040039062 -6 c 1
 128.338867188 -100 l 1
 75.3388671875 -100 l 1
 96.8095703125 -7 l 1
 11.1181640625 3 -19.4140625 61.3330078125 5.2119140625 168 c 2
 46.9990234375 349 l 2
 59.7734375 404.333007812 80.9697265625 446.333007812 110.587890625 475 c 0
 140.206054688 503.666992188 176.477539062 520 219.400390625 524 c 1
 239.716796875 612 l 1
 292.716796875 612 l 1
 272.169921875 523 l 1
 310.271484375 517.665039062 337.0390625 501.498046875 352.47265625 474.5 c 0
 367.90625 447.5 369.927734375 409.333007812 358.538085938 360 c 2
 355.305664062 346 l 1
 287.305664062 346 l 1
71.9345703125 90.998046875 m 0
 78.470703125 71.6650390625 91.533203125 59.6630859375 111.123046875 54.99609375 c 1
 205.0859375 461.99609375 l 1
 183.341796875 457.329101562 164.73828125 445.329101562 149.274414062 425.99609375 c 0
 133.811523438 406.663085938 121.770507812 378.330078125 113.151367188 340.997070312 c 2
 75.0576171875 175.997070312 l 2
 66.4384765625 138.6640625 65.3974609375 110.331054688 71.9345703125 90.998046875 c 0
EndSplineSet
EndChar

StartChar: sterling
Encoding: 163 163 100
Width: 383
GlyphClass: 2
Flags: MW
HStem: 0.000976562 65.999<54.6631 273.427> 303 65<27.3857 73.3799 12.3799 88.3857 27.3857 147.379 162.385 264.379> 635 65<275.367 293.694>
VStem: 321.249 70<545 545>
LayerCount: 2
Fore
SplineSet
288.663085938 66 m 1
 273.426757812 0.0009765625 l 1
 -40.5732421875 0.0009765625 l 1
 -24.8740234375 68.0009765625 l 1
 -6.3603515625 76.0009765625 7.8330078125 87.66796875 17.7060546875 103.000976562 c 0
 27.5791015625 118.333984375 35.4404296875 138.666992188 41.2890625 164 c 2
 73.3798828125 303 l 1
 12.3798828125 303 l 1
 27.3857421875 368 l 1
 88.3857421875 368 l 1
 128.788085938 543 l 2
 140.177734375 592.333007812 160.233398438 630.833007812 188.953125 658.5 c 0
 217.673828125 686.166992188 253.700195312 700 297.033203125 700 c 0
 339.700195312 700 368.916992188 686.5 384.68359375 659.5 c 0
 400.450195312 632.5 402.638671875 594.333007812 391.249023438 545 c 1
 321.249023438 545 l 1
 328.63671875 577 329.11328125 600 322.678710938 614 c 0
 316.244140625 628 303.360351562 635 284.02734375 635 c 0
 244.02734375 635 218.178710938 609.666992188 206.481445312 559 c 2
 162.384765625 368 l 1
 279.384765625 368 l 1
 264.37890625 303 l 1
 147.37890625 303 l 1
 115.057617188 163 l 2
 109.978515625 141 102.629882812 122.166992188 93.0126953125 106.5 c 0
 83.396484375 90.8330078125 70.6123046875 77.3330078125 54.6630859375 66 c 1
 288.663085938 66 l 1
EndSplineSet
EndChar

StartChar: currency
Encoding: 164 164 101
Width: 584
GlyphClass: 2
Flags: MW
HStem: 127 69<235.008 258.413> 457 69<308.529 332.265>
LayerCount: 2
Fore
SplineSet
360.826171875 162 m 1
 320.106445312 138.666992188 279.079101562 127 237.74609375 127 c 0
 195.74609375 127 160.106445312 138.666992188 130.826171875 162 c 1
 47.3583984375 95 l 1
 9.1328125 146 l 1
 92.6005859375 213 l 1
 77.4755859375 245.666992188 74.9150390625 283.666992188 84.919921875 327 c 0
 95.078125 371 115.440429688 408.666992188 146.0078125 440 c 1
 93.9375 509 l 1
 155.481445312 559 l 1
 206.782226562 491 l 1
 246.168945312 514.333007812 287.1953125 526 329.862304688 526 c 0
 371.862304688 526 407.168945312 514.333007812 435.782226562 491 c 1
 519.481445312 559 l 1
 557.9375 509 l 1
 474.23828125 441 l 1
 489.721679688 407 492.616210938 369 482.919921875 327 c 0
 472.915039062 283.666992188 452.809570312 245.666992188 422.600585938 213 c 1
 474.901367188 145 l 1
 413.126953125 94 l 1
 360.826171875 162 l 1
353.83203125 233.5 m 0
 383.9375 258.5 403.299804688 289.666992188 411.918945312 327 c 0
 420.538085938 364.333007812 415.52734375 395.333007812 396.889648438 420 c 0
 378.250976562 444.666992188 350.598632812 457 313.931640625 457 c 0
 276.598632812 457 243.083984375 444.666992188 213.389648438 420 c 0
 183.694335938 395.333007812 164.538085938 364.333007812 155.918945312 327 c 0
 147.145507812 289 151.912109375 257.666992188 170.216796875 233 c 0
 188.522460938 208.333007812 216.341796875 196 253.674804688 196 c 0
 290.341796875 196 323.727539062 208.5 353.83203125 233.5 c 0
EndSplineSet
EndChar

StartChar: yen
Encoding: 165 165 102
Width: 389
GlyphClass: 2
Flags: MW
HStem: 0 21G<74.4258 147.426 74.4258 74.4258> 147 59<0.984375 108.363 -12.6367 121.984 194.984 302.363> 273 60<30.3047 136.305 30.3047 137.453 16.4531 136.305 239.305 331.453> 670 20G<83.7246 166.725 166.725 166.725 375.725 456.725 456.725 456.725>
VStem: 83.7246 83<690 690>
LayerCount: 2
Fore
SplineSet
108.36328125 147 m 1
 -12.63671875 147 l 1
 0.984375 206 l 1
 121.984375 206 l 1
 137.453125 273 l 1
 16.453125 273 l 1
 30.3046875 333 l 1
 136.3046875 333 l 1
 83.724609375 690 l 1
 166.724609375 690 l 1
 199.000976562 375 l 1
 375.724609375 690 l 1
 456.724609375 690 l 1
 239.3046875 333 l 1
 345.3046875 333 l 1
 331.453125 273 l 1
 210.453125 273 l 1
 194.984375 206 l 1
 315.984375 206 l 1
 302.36328125 147 l 1
 181.36328125 147 l 1
 147.42578125 0 l 1
 74.42578125 0 l 1
 108.36328125 147 l 1
EndSplineSet
EndChar

StartChar: brokenbar
Encoding: 166 166 103
Width: 266
GlyphClass: 2
Flags: MW
VStem: -2.73633 256.005
LayerCount: 2
Fore
SplineSet
187.268554688 740 m 1
 253.268554688 740 l 1
 172.002929688 388 l 1
 106.002929688 388 l 1
 187.268554688 740 l 1
78.9912109375 271 m 1
 144.991210938 271 l 1
 63.263671875 -83 l 1
 -2.736328125 -83 l 1
 78.9912109375 271 l 1
EndSplineSet
EndChar

StartChar: section
Encoding: 167 167 104
Width: 428
GlyphClass: 2
Flags: MW
HStem: -168 64<92.0806 113.306> -26 20G<-11.9609 57.0391 57.0391 57.0391> 650 65<274.494 296.156>
VStem: 327.325 69<554 554>
LayerCount: 2
Fore
SplineSet
-8.125 -128 m 0
 -23.3017578125 -101.333007812 -24.5810546875 -60.6669921875 -11.9609375 -6 c 1
 57.0390625 -6 l 1
 49.0361328125 -40.6669921875 48.431640625 -65.6669921875 55.224609375 -81 c 0
 62.017578125 -96.3330078125 78.7470703125 -104 105.4140625 -104 c 0
 130.081054688 -104 149.569335938 -96.8330078125 163.877929688 -82.5 c 0
 178.1875 -68.1669921875 188.497070312 -47.333984375 194.807617188 -20.0009765625 c 0
 200.194335938 3.33203125 201.46484375 21.83203125 198.620117188 35.4990234375 c 0
 195.775390625 49.166015625 187.891601562 60.4990234375 174.969726562 69.4990234375 c 0
 162.047851562 78.4990234375 142.176757812 86.9990234375 115.357421875 94.9990234375 c 0
 75.4599609375 106.999023438 50.0263671875 127.499023438 39.0546875 156.499023438 c 0
 28.0830078125 185.499023438 28.369140625 224.999023438 39.912109375 274.999023438 c 0
 59.458984375 359.666015625 100.951171875 412.333007812 164.389648438 433 c 1
 140.852539062 443.666992188 126.329101562 460.166992188 120.817382812 482.5 c 0
 115.306640625 504.833007812 116.4765625 533 124.326171875 567 c 0
 135.099609375 613.666992188 155.155273438 650 184.490234375 676 c 0
 213.826171875 702 251.494140625 715 297.494140625 715 c 0
 346.161132812 715 377.80078125 701.166992188 392.413085938 673.5 c 0
 407.026367188 645.833007812 408.330078125 606 396.325195312 554 c 1
 327.325195312 554 l 1
 334.8671875 586.668945312 335.779296875 610.8359375 330.0625 626.5 c 0
 324.346679688 642.166992188 308.822265625 650 283.489257812 650 c 0
 258.822265625 650 239.873046875 643 226.640625 629 c 0
 213.408203125 615 203.637695312 594.333007812 197.327148438 567 c 0
 189.939453125 535 191.846679688 511.5 203.05078125 496.5 c 0
 214.254882812 481.5 238.21484375 468.333007812 274.931640625 457 c 0
 314.982421875 445.666992188 340.159179688 425.5 350.463867188 396.5 c 0
 360.768554688 367.5 359.918945312 327 347.913085938 275 c 0
 328.520507812 191 287.92578125 139.333007812 226.12890625 120 c 1
 250.845703125 108.666992188 266.048828125 91.5 271.739257812 68.5 c 0
 277.4296875 45.5 276.272460938 16.6669921875 268.26953125 -18 c 0
 257.1875 -66 236.478515625 -103 206.142578125 -129 c 0
 175.807617188 -155 136.97265625 -168 89.6396484375 -168 c 0
 39.6396484375 -168 7.05078125 -154.666992188 -8.125 -128 c 0
236.943359375 188.499023438 m 0
 254.150390625 208.166015625 267.138671875 236.999023438 275.911132812 274.999023438 c 0
 284.9921875 314.33203125 285.635742188 343.83203125 277.842773438 363.499023438 c 0
 270.05078125 383.166015625 251.487304688 392.999023438 222.154296875 392.999023438 c 0
 192.154296875 392.999023438 168.512695312 382.999023438 151.228515625 362.999023438 c 0
 133.944335938 342.999023438 120.838867188 313.666015625 111.912109375 274.999023438 c 0
 103.139648438 236.999023438 102.815429688 208.166015625 110.942382812 188.499023438 c 0
 119.068359375 168.83203125 138.131835938 158.999023438 168.131835938 158.999023438 c 0
 196.798828125 158.999023438 219.735351562 168.83203125 236.943359375 188.499023438 c 0
166.721679688 689.999023438 m 1024
EndSplineSet
EndChar

StartChar: dieresis
Encoding: 168 168 105
Width: 501
GlyphClass: 2
Flags: MW
HStem: 579 86<206.953 262.099 187.099 281.953 206.953 339.099 358.953 414.099>
VStem: 187.099 246.854<579 665>
LayerCount: 2
Fore
SplineSet
206.953125 665 m 1
 281.953125 665 l 1
 262.098632812 579 l 1
 187.098632812 579 l 1
 206.953125 665 l 1
358.953125 665 m 1
 433.953125 665 l 1
 414.098632812 579 l 1
 339.098632812 579 l 1
 358.953125 665 l 1
EndSplineSet
EndChar

StartChar: copyright
Encoding: 169 169 106
Width: 746
GlyphClass: 2
Flags: MW
HStem: -10 48.999<255.762 320.451> 144.999 47<326.084 342.9> 491 46.999<395.115 426.115> 640.999 49.002<415.725 480.411>
LayerCount: 2
Fore
SplineSet
124.543945312 33 m 0
 82.830078125 61.6669921875 55.3837890625 102.333007812 42.2099609375 155 c 0
 29.0361328125 207.666992188 30.6064453125 269.333984375 46.9208984375 340.000976562 c 0
 63.3896484375 411.333984375 90.5361328125 473.333984375 128.362304688 526.000976562 c 0
 166.188476562 578.66796875 212.5390625 619.16796875 267.413085938 647.500976562 c 0
 322.287109375 675.833984375 382.724609375 690.000976562 448.724609375 690.000976562 c 0
 516.057617188 690.000976562 570.416015625 675.66796875 611.797851562 647.000976562 c 0
 653.1796875 618.333984375 680.458007812 577.666992188 693.631835938 525 c 0
 706.805664062 472.333007812 705.235351562 410.666015625 688.920898438 340 c 0
 672.452148438 268.666992188 645.471679688 206.666992188 607.979492188 154 c 0
 570.485351562 101.333007812 524.301757812 60.8330078125 469.428710938 32.5 c 0
 414.5546875 4.1669921875 353.784179688 -10 287.1171875 -10 c 0
 220.450195312 -10 166.258789062 4.3330078125 124.543945312 33 c 0
514.782226562 118.499023438 m 0
 573.018554688 171.499023438 613.064453125 245.33203125 634.919921875 339.999023438 c 0
 656.928710938 435.33203125 651.013671875 509.33203125 617.172851562 561.999023438 c 0
 583.33203125 614.666015625 523.411132812 640.999023438 437.411132812 640.999023438 c 0
 351.411132812 640.999023438 279.459960938 614.499023438 221.556640625 561.499023438 c 0
 163.654296875 508.499023438 123.775390625 434.666015625 101.919921875 339.999023438 c 0
 79.91015625 244.666015625 85.826171875 170.666015625 119.666992188 117.999023438 c 0
 153.5078125 65.33203125 213.095703125 38.9990234375 298.428710938 38.9990234375 c 0
 384.428710938 38.9990234375 456.545898438 65.4990234375 514.782226562 118.499023438 c 0
238.375 276.999023438 m 2
 268.387695312 406.999023438 l 2
 288.549804688 494.33203125 337.631835938 537.999023438 415.631835938 537.999023438 c 0
 452.298828125 537.999023438 478.284179688 527.83203125 493.58984375 507.499023438 c 0
 508.895507812 487.166015625 511.77734375 456.333007812 502.235351562 415 c 2
 499.6953125 404 l 1
 446.6953125 404 l 1
 449.00390625 414 l 2
 460.85546875 465.333007812 446.448242188 491 405.78125 491 c 0
 384.448242188 491 366.703125 484.166992188 352.547851562 470.5 c 0
 338.392578125 456.833007812 327.543945312 433.666015625 320.002929688 400.999023438 c 2
 292.759765625 282.999023438 l 2
 285.21875 250.33203125 285.33203125 226.999023438 293.099609375 212.999023438 c 0
 300.8671875 198.999023438 315.41796875 191.999023438 336.750976562 191.999023438 c 0
 377.41796875 191.999023438 403.676757812 217.666015625 415.528320312 268.999023438 c 2
 418.067382812 279.999023438 l 1
 471.067382812 279.999023438 l 1
 468.528320312 268.999023438 l 2
 458.985351562 227.666015625 441.662109375 196.666015625 416.557617188 175.999023438 c 0
 391.453125 155.33203125 360.900390625 144.999023438 324.900390625 144.999023438 c 0
 246.900390625 144.999023438 218.05859375 188.999023438 238.375 276.999023438 c 2
EndSplineSet
EndChar

StartChar: ordfeminine
Encoding: 170 170 107
Width: 294
GlyphClass: 2
Flags: MW
HStem: 425 56.999<122.545 173.371> 566.999 46.001<188.328 239.948 197.948 229.328> 692 56<218.115 232.187>
LayerCount: 2
Fore
SplineSet
302.881835938 721 m 0
 316.725585938 703 319.954101562 677.999023438 312.56640625 645.999023438 c 2
 262.69921875 429.999023438 l 1
 200.69921875 429.999023438 l 1
 207.163085938 457.999023438 l 1
 195.879882812 446.666015625 184.956054688 438.333007812 174.391601562 433 c 0
 163.827148438 427.666992188 151.211914062 425 136.544921875 425 c 0
 108.544921875 425 89.173828125 433.5 78.431640625 450.5 c 0
 67.689453125 467.5 65.8583984375 491.333007812 72.9384765625 522 c 0
 79.5576171875 550.666992188 93.8798828125 573 115.907226562 589 c 0
 137.93359375 605 165.28125 613 197.948242188 613 c 2
 239.948242188 613 l 1
 248.720703125 651 l 2
 255.03125 678.333007812 245.186523438 692 219.186523438 692 c 0
 207.186523438 692 197.122070312 688.833007812 188.993164062 682.5 c 0
 180.864257812 676.166015625 175.491210938 667.333007812 172.875 656 c 2
 171.720703125 651 l 1
 111.720703125 651 l 1
 112.413085938 654 l 2
 119.33984375 684 133.688476562 707.166992188 155.458984375 723.5 c 0
 177.229492188 739.833007812 203.115234375 748 233.115234375 748 c 0
 265.782226562 748 289.037109375 739 302.881835938 721 c 0
201.08984375 494.499023438 m 0
 210.680664062 502.833984375 217.168945312 514.333984375 220.5546875 528.999023438 c 2
 229.328125 566.999023438 l 1
 196.328125 566.999023438 l 2
 180.328125 566.999023438 167.55859375 563.666015625 158.01953125 556.999023438 c 0
 148.479492188 550.33203125 141.940429688 539.33203125 138.400390625 523.999023438 c 0
 131.936523438 495.999023438 141.37109375 481.999023438 166.704101562 481.999023438 c 0
 180.037109375 481.999023438 191.499023438 486.166015625 201.08984375 494.499023438 c 0
248.970703125 846.999023438 m 1024
EndSplineSet
EndChar

StartChar: guillemotleft
Encoding: 171 171 108
Width: 422
GlyphClass: 2
Flags: W
LayerCount: 2
Fore
SplineSet
-2.625 264 m 1
 218.624023438 447 l 1
 201.078125 371 l 1
 72.375 264 l 1
 151.671875 157 l 1
 134.125976562 81 l 1
 -2.625 264 l 1
162.375 264 m 1
 382.624023438 447 l 1
 365.078125 371 l 1
 237.375 264 l 1
 315.671875 157 l 1
 298.125976562 81 l 1
 162.375 264 l 1
EndSplineSet
EndChar

StartChar: logicalnot
Encoding: 172 172 109
Width: 420
GlyphClass: 2
Flags: MW
HStem: 264 61<33.458 288.375 19.375 370.458>
LayerCount: 2
Fore
SplineSet
288.375 264 m 1
 19.375 264 l 1
 33.4580078125 325 l 1
 370.458007812 325 l 1
 331.209960938 155 l 1
 263.209960938 155 l 1
 288.375 264 l 1
EndSplineSet
EndChar

StartChar: uni00AD
Encoding: 173 173 110
Width: 375
GlyphClass: 2
Flags: MW
HStem: 315 65<54.1553 314.149 39.1494 329.155>
VStem: 39.1494 290.006<315 380>
LayerCount: 2
Fore
SplineSet
54.1552734375 380 m 1
 329.155273438 380 l 1
 314.149414062 315 l 1
 39.1494140625 315 l 1
 54.1552734375 380 l 1
EndSplineSet
EndChar

StartChar: registered
Encoding: 174 174 111
Width: 472
GlyphClass: 2
Flags: MW
HStem: 307 31.999<208.355 250.303> 480.999 33<250.091 266.472 242.472 273.091> 573.999 32<263.942 286.942 263.942 263.942> 656.999 32.001<284.828 326.104>
LayerCount: 2
Fore
SplineSet
106.807617188 359 m 0
 83.1435546875 393.666992188 78.0849609375 440.333007812 91.62890625 499 c 0
 105.01953125 557 131.677734375 603.166992188 171.604492188 637.5 c 0
 211.530273438 671.833007812 258.161132812 689 311.494140625 689 c 0
 366.161132812 689 405.197265625 671.833007812 428.604492188 637.5 c 0
 452.010742188 603.166992188 457.01953125 557 443.62890625 499 c 0
 430.084960938 440.333007812 403.477539062 393.666015625 363.807617188 359 c 0
 324.13671875 324.333007812 277.302734375 307 223.302734375 307 c 0
 169.302734375 307 130.470703125 324.333007812 106.807617188 359 c 0
344.6171875 381.999023438 m 0
 375.90234375 410.666015625 397.23828125 449.666015625 408.627929688 498.999023438 c 0
 420.017578125 548.33203125 416.444335938 586.999023438 397.908203125 614.999023438 c 0
 379.373046875 642.999023438 348.104492188 656.999023438 304.104492188 656.999023438 c 0
 259.4375 656.999023438 221.5 642.83203125 190.291992188 614.499023438 c 0
 159.083984375 586.166015625 137.862304688 547.666015625 126.626953125 498.999023438 c 0
 114.9296875 448.33203125 118.181640625 408.999023438 136.384765625 380.999023438 c 0
 154.586914062 352.999023438 186.021484375 338.999023438 230.688476562 338.999023438 c 0
 275.35546875 338.999023438 313.33203125 353.33203125 344.6171875 381.999023438 c 0
235.331054688 605.999023438 m 1
 297.331054688 605.999023438 l 2
 338.6640625 605.999023438 354.559570312 585.33203125 345.016601562 543.999023438 c 0
 339.014648438 517.999023438 325.114257812 499.666015625 303.319335938 488.999023438 c 1
 316.38671875 393.999023438 l 1
 277.38671875 393.999023438 l 1
 266.471679688 480.999023438 l 1
 242.471679688 480.999023438 l 1
 222.38671875 393.999023438 l 1
 186.38671875 393.999023438 l 1
 235.331054688 605.999023438 l 1
273.090820312 513.999023438 m 2
 283.7578125 513.999023438 291.795898438 516.33203125 297.20703125 520.999023438 c 0
 302.6171875 525.666015625 306.630859375 533.666015625 309.248046875 544.999023438 c 0
 311.709960938 555.666015625 311.274414062 563.166015625 307.942382812 567.499023438 c 0
 304.609375 571.83203125 297.609375 573.999023438 286.942382812 573.999023438 c 2
 263.942382812 573.999023438 l 1
 250.090820312 513.999023438 l 1
 273.090820312 513.999023438 l 2
EndSplineSet
EndChar

StartChar: macron
Encoding: 175 175 112
Width: 501
GlyphClass: 2
Flags: MW
HStem: 591 61<201.952 418.869 187.869 432.952>
VStem: 187.869 245.083<591 652>
LayerCount: 2
Fore
SplineSet
201.952148438 652 m 1
 432.952148438 652 l 1
 418.869140625 591 l 1
 187.869140625 591 l 1
 201.952148438 652 l 1
EndSplineSet
EndChar

StartChar: degree
Encoding: 176 176 113
Width: 352
GlyphClass: 2
Flags: MW
HStem: 453 50<198.219 214.675> 650 49.999<236.367 252.824>
LayerCount: 2
Fore
SplineSet
116.58984375 488 m 0
 98.3095703125 511.333007812 93.248046875 540.666015625 101.405273438 575.999023438 c 0
 109.5625 611.33203125 128.206054688 640.83203125 157.337890625 664.499023438 c 0
 186.46875 688.166015625 218.700195312 699.999023438 254.033203125 699.999023438 c 0
 289.366210938 699.999023438 316.134765625 688.166015625 334.337890625 664.499023438 c 0
 352.540039062 640.83203125 357.5625 611.33203125 349.405273438 575.999023438 c 0
 341.248046875 540.666015625 322.643554688 511.333007812 293.58984375 488 c 0
 264.53515625 464.666992188 232.341796875 453 197.008789062 453 c 0
 161.67578125 453 134.869140625 464.666992188 116.58984375 488 c 0
264.28515625 523.5 m 0
 280.7734375 537.166992188 291.48046875 554.666992188 296.40625 576 c 0
 301.331054688 597.333007812 298.7421875 615 288.641601562 629 c 0
 278.541015625 643 263.157226562 650 242.490234375 650 c 0
 221.823242188 650 203.20703125 643 186.641601562 629 c 0
 170.076171875 615 159.331054688 597.333007812 154.40625 576 c 0
 149.48046875 554.666992188 152.107421875 537.166992188 162.28515625 523.5 c 0
 172.462890625 509.833007812 187.885742188 503 208.552734375 503 c 0
 229.219726562 503 247.796875 509.833007812 264.28515625 523.5 c 0
EndSplineSet
EndChar

StartChar: plusminus
Encoding: 177 177 114
Width: 420
GlyphClass: 2
Flags: MW
HStem: 24 66<-22.7959 302.967 -38.0332 318.204> 283 66<36.999 159.762 21.7617 174.999 239.999 362.762 36.999 224.762>
LayerCount: 2
Fore
SplineSet
377.999023438 349 m 1
 362.76171875 283 l 1
 224.76171875 283 l 1
 193.1328125 146 l 1
 128.1328125 146 l 1
 159.76171875 283 l 1
 21.76171875 283 l 1
 36.9990234375 349 l 1
 174.999023438 349 l 1
 206.627929688 486 l 1
 271.627929688 486 l 1
 239.999023438 349 l 1
 377.999023438 349 l 1
-22.7958984375 90 m 1
 318.204101562 90 l 1
 302.966796875 24 l 1
 -38.033203125 24 l 1
 -22.7958984375 90 l 1
EndSplineSet
EndChar

StartChar: uni00B2
Encoding: 178 178 115
Width: 271
GlyphClass: 2
Flags: MW
HStem: 430 62<142.013 253.699> 794 61<235.152 240.402>
VStem: 118.036 67<726 726>
LayerCount: 2
Fore
SplineSet
61.55078125 490 m 1
 217.645507812 668 l 2
 228.5703125 680.666992188 236.776367188 691.666992188 242.264648438 701 c 0
 247.751953125 710.333007812 251.881835938 721 254.65234375 733 c 2
 259.26953125 753 l 2
 262.194335938 765.666992188 261.669921875 775.666992188 257.6953125 783 c 0
 253.721679688 790.333007812 246.068359375 794 234.735351562 794 c 0
 212.068359375 794 197.1953125 778.666992188 190.115234375 748 c 2
 185.036132812 726 l 1
 118.036132812 726 l 1
 124.961914062 756 l 2
 131.887695312 786 146.76171875 810 169.584960938 828 c 0
 192.407226562 846 219.485351562 855 250.818359375 855 c 0
 281.485351562 855 303.868164062 845.833007812 317.96875 827.5 c 0
 332.069335938 809.166992188 335.657226562 785 328.731445312 755 c 2
 323.190429688 731 l 2
 319.188476562 713.666992188 312.904296875 698 304.33984375 684 c 0
 295.7734375 670 283.823242188 654.333007812 268.48828125 637 c 2
 142.012695312 492 l 1
 268.012695312 492 l 1
 253.69921875 430 l 1
 47.69921875 430 l 1
 61.55078125 490 l 1
EndSplineSet
EndChar

StartChar: uni00B3
Encoding: 179 179 116
Width: 268
GlyphClass: 2
Flags: MW
HStem: 424 61.001<153.733 161.981> 615.001 61<181.495 185.412 167.412 199.495> 794.001 61<230.153 242.071>
LayerCount: 2
Fore
SplineSet
76.931640625 450.5 m 0
 63.34375 468.166992188 60.091796875 492.333984375 67.171875 523.000976562 c 2
 72.943359375 548.000976562 l 1
 138.943359375 548.000976562 l 1
 133.633789062 525.000976562 l 2
 130.708984375 512.333984375 131.439453125 502.500976562 135.823242188 495.500976562 c 0
 140.20703125 488.500976562 148.06640625 485.000976562 159.399414062 485.000976562 c 0
 183.399414062 485.000976562 198.938476562 500.333984375 206.018554688 531.000976562 c 2
 214.330078125 567.000976562 l 2
 218.178710938 583.671875 217.821289062 595.838867188 213.256835938 603.500976562 c 0
 208.694335938 611.16796875 199.412109375 615.000976562 185.412109375 615.000976562 c 2
 167.412109375 615.000976562 l 1
 181.495117188 676.000976562 l 1
 199.495117188 676.000976562 l 2
 224.828125 676.000976562 240.880859375 690.66796875 247.653320312 720.000976562 c 2
 254.579101562 750.000976562 l 2
 261.3515625 779.333984375 253.404296875 794.000976562 230.737304688 794.000976562 c 0
 219.404296875 794.000976562 210.095703125 790.500976562 202.813476562 783.500976562 c 0
 195.530273438 776.500976562 190.426757812 766.66796875 187.502929688 754.000976562 c 2
 182.192382812 731.000976562 l 1
 115.192382812 731.000976562 l 1
 121.1953125 757.000976562 l 2
 128.12109375 787.000976562 142.790039062 810.833984375 165.202148438 828.500976562 c 0
 187.614257812 846.16796875 214.486328125 855.000976562 245.819335938 855.000976562 c 0
 277.819335938 855.000976562 300.741210938 846.000976562 314.5859375 828.000976562 c 0
 328.4296875 810.000976562 331.658203125 785.000976562 324.270507812 753.000976562 c 2
 318.729492188 729.000976562 l 2
 314.112304688 709.000976562 306.802734375 692.500976562 296.801757812 679.500976562 c 0
 286.80078125 666.500976562 273.286132812 656.333984375 256.260742188 649.000976562 c 1
 271.900390625 641.66796875 281.4765625 631.16796875 284.98828125 617.500976562 c 0
 288.5 603.833984375 287.638671875 585.666992188 282.405273438 563 c 2
 274.325195312 528 l 2
 266.9375 496 251.588867188 470.666992188 228.279296875 452 c 0
 204.969726562 433.333007812 177.647460938 424 146.314453125 424 c 0
 113.647460938 424 90.5205078125 432.833007812 76.931640625 450.5 c 0
EndSplineSet
EndChar

StartChar: acute
Encoding: 180 180 117
Width: 501
GlyphClass: 2
Flags: MW
HStem: 576 129<225.406 420.188 225.406 420.188>
VStem: 225.406 194.781<576 705>
LayerCount: 2
Fore
SplineSet
346.1875 705 m 1
 420.1875 705 l 1
 281.40625 576 l 1
 225.40625 576 l 1
 346.1875 705 l 1
EndSplineSet
EndChar

StartChar: uni00B5
Encoding: 181 181 118
Width: 413
GlyphClass: 2
Flags: MW
HStem: -154 21G<-60.1279 7.87207 -60.1279 -60.1279> -8 60<94.5791 146.097> 0 21G<205.426 270.426 205.426 205.426> 497 20G<94.7842 161.784 161.784 161.784 321.784 389.784 389.784 389.784>
LayerCount: 2
Fore
SplineSet
94.7841796875 517 m 1xd0
 161.784179688 517 l 1
 75.6708984375 144 l 2
 68.7451171875 114 70.806640625 91.1669921875 81.8564453125 75.5 c 0
 92.90625 59.8330078125 110.430664062 52 134.430664062 52 c 0xd0
 157.763671875 52 178.81640625 60.1669921875 197.586914062 76.5 c 0
 216.357421875 92.8330078125 229.052734375 115.333007812 235.670898438 144 c 2
 321.784179688 517 l 1
 389.784179688 517 l 1
 270.42578125 0 l 1
 205.42578125 0 l 1xb0
 216.276367188 47 l 1
 202.12109375 29 185.6328125 15.3330078125 166.810546875 6 c 0
 147.989257812 -3.3330078125 128.579101562 -8 108.579101562 -8 c 0
 80.5791015625 -8 60.2470703125 0.6669921875 47.5810546875 18 c 1
 7.8720703125 -154 l 1
 -60.1279296875 -154 l 1
 94.7841796875 517 l 1xd0
EndSplineSet
EndChar

StartChar: paragraph
Encoding: 182 182 119
Width: 520
GlyphClass: 2
Flags: MW
HStem: -152 21G<107.334 173.334 107.334 107.334 245.334 311.334 245.334 245.334> 625 65<352.719 424.719 352.719 352.719>
LayerCount: 2
Fore
SplineSet
204.529296875 269 m 1
 155.606445312 273.666992188 120.518554688 295.666992188 99.2666015625 335 c 0
 78.0146484375 374.333984375 74.005859375 422.666992188 87.2421875 480 c 0
 96.1689453125 518.666992188 112.327148438 554 135.71484375 586 c 0
 159.102539062 618 187.951171875 643.333007812 222.260742188 662 c 0
 256.5703125 680.666992188 293.724609375 690 333.724609375 690 c 2
 505.724609375 690 l 1
 311.333984375 -152 l 1
 245.333984375 -152 l 1
 424.71875 625 l 1
 352.71875 625 l 1
 173.333984375 -152 l 1
 107.333984375 -152 l 1
 204.529296875 269 l 1
EndSplineSet
EndChar

StartChar: periodcentered
Encoding: 183 183 120
Width: 160
GlyphClass: 2
Flags: MW
HStem: 226 89<30.1494 87.6016 9.60156 108.149>
VStem: 9.60156 98.5479<226 315>
LayerCount: 2
Fore
SplineSet
30.1494140625 315 m 1
 108.149414062 315 l 1
 87.6015625 226 l 1
 9.6015625 226 l 1
 30.1494140625 315 l 1
EndSplineSet
EndChar

StartChar: cedilla
Encoding: 184 184 121
Width: 501
GlyphClass: 2
Flags: MW
HStem: -152 164<65.334 237.196 65.334 237.196>
VStem: 65.334 171.862<-152 12>
LayerCount: 2
Fore
SplineSet
172.196289062 12 m 1
 237.196289062 12 l 1
 141.333984375 -152 l 1
 65.333984375 -152 l 1
 172.196289062 12 l 1
EndSplineSet
EndChar

StartChar: uni00B9
Encoding: 185 185 122
Width: 199
GlyphClass: 2
Flags: MW
VStem: 98.6992 167.503
LayerCount: 2
Fore
SplineSet
177.194335938 770 m 1
 103.650390625 720 l 1
 121.889648438 799 l 1
 195.202148438 848 l 1
 266.202148438 848 l 1
 169.69921875 430 l 1
 98.69921875 430 l 1
 177.194335938 770 l 1
EndSplineSet
EndChar

StartChar: ordmasculine
Encoding: 186 186 123
Width: 295
GlyphClass: 2
Flags: MW
HStem: 425 59<162.166 179.878> 690 58<219.782 237.391>
LayerCount: 2
Fore
SplineSet
83.2490234375 545 m 2
 102.641601562 629 l 2
 112.337890625 671 128.5078125 701.333007812 151.150390625 720 c 0
 173.79296875 738.666992188 202.448242188 748 237.115234375 748 c 0
 271.782226562 748 295.959960938 738.666992188 309.650390625 720 c 0
 323.340820312 701.333007812 325.337890625 671 315.641601562 629 c 2
 296.249023438 545 l 2
 286.552734375 503 270.510742188 472.5 248.124023438 453.5 c 0
 225.73828125 434.5 197.211914062 425 162.544921875 425 c 0
 91.2119140625 425 64.779296875 465 83.2490234375 545 c 2
231.017578125 544 m 2
 250.873046875 630 l 2
 260.107421875 670 251.057617188 690 223.724609375 690 c 0
 195.724609375 690 177.107421875 670 167.873046875 630 c 2
 148.017578125 544 l 2
 138.783203125 504 148.166015625 484 176.166015625 484 c 0
 203.499023438 484 221.783203125 504 231.017578125 544 c 2
252.970703125 847 m 1024
EndSplineSet
EndChar

StartChar: guillemotright
Encoding: 187 187 124
Width: 422
GlyphClass: 2
Flags: W
LayerCount: 2
Fore
SplineSet
11.671875 157 m 1
 140.375 264 l 1
 61.078125 371 l 1
 78.6240234375 447 l 1
 215.375 264 l 1
 -5.8740234375 81 l 1
 11.671875 157 l 1
176.671875 157 m 1
 305.375 264 l 1
 226.078125 371 l 1
 243.624023438 447 l 1
 379.375 264 l 1
 159.125976562 81 l 1
 176.671875 157 l 1
EndSplineSet
EndChar

StartChar: onequarter
Encoding: 188 188 125
Width: 635
GlyphClass: 3
Flags: MW
HStem: 0 21G<51.4258 114.426 51.4258 51.4258 425.426 425.426 425.426 495.426> 74 62<322.824 322.824 392.824 442.51 308.51 322.824 526.824 543.51> 670 20G<158.725 229.725 229.725 229.725 458.725 521.725 521.725 521.725>
LayerCount: 2
Fore
SplineSet
62.2216796875 272 m 1
 140.716796875 612 l 1
 67.173828125 562 l 1
 85.412109375 641 l 1
 158.724609375 690 l 1
 229.724609375 690 l 1
 133.221679688 272 l 1
 62.2216796875 272 l 1
521.724609375 690 m 1
 114.42578125 0 l 1
 51.42578125 0 l 1
 458.724609375 690 l 1
 521.724609375 690 l 1
543.509765625 74 m 1
 512.509765625 74 l 1
 495.42578125 0 l 1
 425.42578125 0 l 1
 442.509765625 74 l 1
 308.509765625 74 l 1
 322.82421875 136 l 1
 479.928710938 418 l 1
 549.928710938 418 l 1
 392.82421875 136 l 1
 456.82421875 136 l 1
 478.987304688 232 l 1
 548.987304688 232 l 1
 526.82421875 136 l 1
 557.82421875 136 l 1
 543.509765625 74 l 1
EndSplineSet
Ligature2: "'frac' Diagonal Fractions lookup 2 subtable" one slash four
EndChar

StartChar: onehalf
Encoding: 189 189 126
Width: 644
GlyphClass: 3
Flags: MW
HStem: 0 62<415.739 527.426> 364 61<508.878 514.128> 670 20G<158.725 229.725 229.725 229.725 458.725 521.725 521.725 521.725>
VStem: 391.763 67<296 296>
LayerCount: 2
Fore
SplineSet
140.716796875 612 m 1
 67.173828125 562 l 1
 85.412109375 641 l 1
 158.724609375 690 l 1
 229.724609375 690 l 1
 133.221679688 272 l 1
 62.2216796875 272 l 1
 140.716796875 612 l 1
458.724609375 690 m 1
 521.724609375 690 l 1
 114.42578125 0 l 1
 51.42578125 0 l 1
 458.724609375 690 l 1
335.27734375 60 m 1
 491.372070312 238 l 2
 502.296875 250.666992188 510.502929688 261.666992188 515.991210938 271 c 0
 521.478515625 280.333007812 525.608398438 291 528.37890625 303 c 2
 532.99609375 323 l 2
 535.920898438 335.666992188 535.396484375 345.666992188 531.421875 353 c 0
 527.448242188 360.333007812 519.794921875 364 508.461914062 364 c 0
 485.794921875 364 470.921875 348.666992188 463.841796875 318 c 2
 458.762695312 296 l 1
 391.762695312 296 l 1
 398.688476562 326 l 2
 405.615234375 356 420.48828125 380 443.311523438 398 c 0
 466.133789062 416 493.211914062 425 524.544921875 425 c 0
 555.211914062 425 577.595703125 415.833007812 591.696289062 397.5 c 0
 605.795898438 379.166992188 609.383789062 355 602.458007812 325 c 2
 596.916992188 301 l 2
 592.915039062 283.666992188 586.631835938 268 578.06640625 254 c 0
 569.49609375 240 557.545898438 224.333007812 542.215820312 207 c 2
 415.739257812 62 l 1
 541.739257812 62 l 1
 527.42578125 0 l 1
 321.42578125 0 l 1
 335.27734375 60 l 1
EndSplineSet
Ligature2: "'frac' Diagonal Fractions lookup 2 subtable" one slash two
EndChar

StartChar: threequarters
Encoding: 190 190 127
Width: 662
GlyphClass: 3
Flags: MW
HStem: -0.000976562 21G<102.428 165.428 102.428 102.428 452.428 452.428 452.428 522.428> 73.999 62<349.825 349.825 419.825 469.512 335.512 349.825 553.825 570.512> 265.999 61.001<117.254 125.505> 457.001 61<145.017 148.934 130.934 163.017> 636.001 61<193.674 205.592> 669.999 20G<509.727 572.727 572.727 572.727>
LayerCount: 2
Fore
SplineSet
191.80078125 294 m 0xf8
 168.491210938 275.333007812 141.171875 265.999023438 109.838867188 265.999023438 c 0
 77.171875 265.999023438 54.0439453125 274.83203125 40.455078125 292.499023438 c 0
 26.8671875 310.166015625 23.61328125 334.333007812 30.693359375 365 c 2
 36.46484375 390 l 1
 102.46484375 390 l 1
 97.1552734375 367 l 2
 94.23046875 354.333007812 94.9609375 344.5 99.3447265625 337.5 c 0
 103.728515625 330.5 111.587890625 327 122.920898438 327 c 0
 146.920898438 327 162.4609375 342.333007812 169.540039062 373 c 2
 177.8515625 409 l 2
 181.69921875 425.666992188 181.341796875 437.833984375 176.778320312 445.500976562 c 0
 172.215820312 453.16796875 162.93359375 457.000976562 148.93359375 457.000976562 c 2
 130.93359375 457.000976562 l 1
 145.016601562 518.000976562 l 1
 163.016601562 518.000976562 l 2
 188.349609375 518.000976562 204.40234375 532.66796875 211.174804688 562.000976562 c 2
 218.100585938 592.000976562 l 2
 224.873046875 621.333984375 216.92578125 636.000976562 194.258789062 636.000976562 c 0
 182.92578125 636.000976562 173.618164062 632.500976562 166.334960938 625.500976562 c 0
 159.051757812 618.500976562 153.94921875 608.66796875 151.024414062 596.000976562 c 2
 145.71484375 573.000976562 l 1
 78.71484375 573.000976562 l 1
 84.716796875 599.000976562 l 2
 91.642578125 629.000976562 106.3125 652.833984375 128.723632812 670.500976562 c 0
 151.135742188 688.16796875 178.0078125 697.000976562 209.340820312 697.000976562 c 0
 241.340820312 697.000976562 264.263671875 688.000976562 278.107421875 670.000976562 c 0
 291.952148438 652.000976562 295.180664062 627.000976562 287.79296875 595.000976562 c 2
 282.251953125 571.000976562 l 2
 277.634765625 551.000976562 270.325195312 534.500976562 260.323242188 521.500976562 c 0
 250.322265625 508.500976562 236.80859375 498.333984375 219.782226562 491.000976562 c 1
 235.421875 483.66796875 244.998046875 473.16796875 248.509765625 459.500976562 c 0
 252.021484375 445.833007812 251.16015625 427.666015625 245.927734375 405 c 2
 237.846679688 370 l 2
 230.458984375 338 215.110351562 312.666992188 191.80078125 294 c 0xf8
572.7265625 689.999023438 m 1xf4
 165.427734375 -0.0009765625 l 1
 102.427734375 -0.0009765625 l 1
 509.7265625 689.999023438 l 1
 572.7265625 689.999023438 l 1xf4
570.51171875 73.9990234375 m 1
 539.51171875 73.9990234375 l 1
 522.427734375 -0.0009765625 l 1
 452.427734375 -0.0009765625 l 1
 469.51171875 73.9990234375 l 1
 335.51171875 73.9990234375 l 1
 349.825195312 135.999023438 l 1
 506.930664062 417.999023438 l 1
 576.930664062 417.999023438 l 1
 419.825195312 135.999023438 l 1
 483.825195312 135.999023438 l 1
 505.989257812 231.999023438 l 1
 575.989257812 231.999023438 l 1
 553.825195312 135.999023438 l 1
 584.825195312 135.999023438 l 1
 570.51171875 73.9990234375 l 1
EndSplineSet
Ligature2: "'frac' Diagonal Fractions lookup 2 subtable" three slash four
EndChar

StartChar: questiondown
Encoding: 191 191 128
Width: 363
GlyphClass: 2
Flags: MW
HStem: -164 65.001<52.9028 91.9028 52.9028 112.23> 420 97<180.784 236.391 158.391 258.784>
VStem: 181.966 73<24 24>
LayerCount: 2
Fore
SplineSet
180.784179688 517 m 1
 258.784179688 517 l 1
 236.390625 420 l 1
 158.390625 420 l 1
 180.784179688 517 l 1
-36.3935546875 -120.5 m 0
 -55.03125 -91.5 -58.5029296875 -51.6669921875 -46.8046875 -1 c 0
 -40.95703125 24.3330078125 -32.2236328125 47 -20.6064453125 67 c 0
 -8.98828125 87 10.2578125 113.333007812 37.1328125 146 c 2
 84.2919921875 203 l 2
 100.087890625 222.333007812 111.038085938 238 117.141601562 250 c 0
 123.245117188 262 128.529296875 277.666992188 132.9921875 297 c 2
 141.073242188 332 l 1
 214.073242188 332 l 1
 205.069335938 293 l 2
 199.682617188 269.666992188 193.08984375 250.5 185.293945312 235.5 c 0
 177.498046875 220.5 162.598632812 200 140.595703125 174 c 2
 85.3583984375 108 l 2
 67.919921875 87.3330078125 54.931640625 69.3330078125 46.3916015625 54 c 0
 37.8515625 38.6669921875 31.119140625 20.333984375 26.1943359375 -0.9990234375 c 0
 11.1103515625 -66.33203125 28.236328125 -98.9990234375 77.5693359375 -98.9990234375 c 0
 106.236328125 -98.9990234375 128.30078125 -89.33203125 143.764648438 -69.9990234375 c 0
 159.227539062 -50.666015625 171.9609375 -19.3330078125 181.965820312 24 c 1
 254.965820312 24 l 1
 224.697265625 -101.333007812 160.896484375 -164 63.5634765625 -164 c 0
 15.5634765625 -164 -17.755859375 -149.5 -36.3935546875 -120.5 c 0
EndSplineSet
EndChar

StartChar: Agrave
Encoding: 192 192 129
Width: 461
GlyphClass: 2
Flags: MW
HStem: 0 21G<-74.5742 1.42578 -74.5742 -74.5742 291.426 291.426 291.426 368.426> 176 63<116.604 286.604 116.604 288.059 86.0586 286.604> 670 20G<272.725 339.725 339.725 339.725>
VStem: 280.329 59.3955 288.059 80.3672
LayerCount: 2
Fore
SplineSet
288.05859375 176 m 1xe8
 86.05859375 176 l 1
 1.42578125 0 l 1
 -74.57421875 0 l 1
 272.724609375 690 l 1
 339.724609375 690 l 1xf0
 368.42578125 0 l 1
 291.42578125 0 l 1
 288.05859375 176 l 1xe8
286.603515625 239 m 1
 280.329101562 580 l 1
 116.603515625 239 l 1
 286.603515625 239 l 1
318.345703125 749 m 1
 239.127929688 878 l 1
 313.127929688 878 l 1
 374.345703125 749 l 1
 318.345703125 749 l 1
EndSplineSet
EndChar

StartChar: Aacute
Encoding: 193 193 130
Width: 461
GlyphClass: 2
Flags: MW
HStem: 0 21G<-74.5742 1.42578 -74.5742 -74.5742 291.426 291.426 291.426 368.426> 176 63<116.604 286.604 116.604 288.059 86.0586 286.604> 670 20G<272.725 339.725 339.725 339.725>
VStem: 280.329 59.3955 288.059 80.3672
LayerCount: 2
Fore
SplineSet
288.05859375 176 m 1xe8
 86.05859375 176 l 1
 1.42578125 0 l 1
 -74.57421875 0 l 1
 272.724609375 690 l 1
 339.724609375 690 l 1xf0
 368.42578125 0 l 1
 291.42578125 0 l 1
 288.05859375 176 l 1xe8
286.603515625 239 m 1
 280.329101562 580 l 1
 116.603515625 239 l 1
 286.603515625 239 l 1
377.127929688 878 m 1
 451.127929688 878 l 1
 312.345703125 749 l 1
 256.345703125 749 l 1
 377.127929688 878 l 1
EndSplineSet
EndChar

StartChar: Acircumflex
Encoding: 194 194 131
Width: 461
GlyphClass: 2
Flags: MW
HStem: 0 21G<-74.5742 1.42578 -74.5742 -74.5742 291.426 291.426 291.426 368.426> 176 63<116.604 286.604 116.604 288.059 86.0586 286.604> 670 20G<272.725 339.725 339.725 339.725>
VStem: 280.329 59.3955 288.059 80.3672
LayerCount: 2
Fore
SplineSet
288.05859375 176 m 1xe8
 86.05859375 176 l 1
 1.42578125 0 l 1
 -74.57421875 0 l 1
 272.724609375 690 l 1
 339.724609375 690 l 1xf0
 368.42578125 0 l 1
 291.42578125 0 l 1
 288.05859375 176 l 1xe8
286.603515625 239 m 1
 280.329101562 580 l 1
 116.603515625 239 l 1
 286.603515625 239 l 1
318.513671875 884 m 1
 382.513671875 884 l 1
 449.499023438 741 l 1
 382.499023438 741 l 1
 340.27734375 831 l 1
 255.499023438 741 l 1
 188.499023438 741 l 1
 318.513671875 884 l 1
EndSplineSet
EndChar

StartChar: Atilde
Encoding: 195 195 132
Width: 461
GlyphClass: 2
Flags: MW
HStem: 0 21G<-74.5742 1.42578 -74.5742 -74.5742 291.426 291.426 291.426 368.426> 176 63<116.604 286.604 116.604 288.059 86.0586 286.604> 670 20G<272.725 339.725 339.725 339.725> 745 67<360.091 391.893> 780 68<273.169 302.204>
VStem: 280.329 59.3955 288.059 80.3672
LayerCount: 2
Fore
SplineSet
288.05859375 176 m 1xe2
 86.05859375 176 l 1
 1.42578125 0 l 1
 -74.57421875 0 l 1
 272.724609375 690 l 1
 339.724609375 690 l 1xe4
 368.42578125 0 l 1
 291.42578125 0 l 1
 288.05859375 176 l 1xe2
286.603515625 239 m 1
 280.329101562 580 l 1
 116.603515625 239 l 1
 286.603515625 239 l 1
227.352539062 814 m 1
 242.276367188 826.666992188 254.651367188 835.5 264.47265625 840.5 c 0
 274.293945312 845.5 285.204101562 848 297.204101562 848 c 0xe8
 307.204101562 848 315.357421875 846.5 321.665039062 843.5 c 0
 327.97265625 840.5 335.100585938 836 343.047851562 830 c 0
 350.99609375 824 358.124023438 819.5 364.431640625 816.5 c 0
 370.739257812 813.5 378.225585938 812 386.892578125 812 c 0
 396.892578125 812 405.969726562 814.5 414.124023438 819.5 c 0
 422.278320312 824.5 434.381835938 834.333007812 450.434570312 849 c 1
 434.274414062 779 l 1
 420.681640625 766.333007812 408.975585938 757.5 399.15625 752.5 c 0
 389.334960938 747.5 378.090820312 745 365.424804688 745 c 0xf0
 354.756835938 745 345.974609375 746.666992188 339.078125 750 c 0
 332.180664062 753.333007812 324.090820312 758 314.80859375 764 c 0
 306.706054688 769.333007812 300.296875 773.333007812 295.579101562 776 c 0
 290.862304688 778.666992188 285.169921875 780 278.502929688 780 c 0xe8
 267.8359375 780 257.719726562 777.333007812 248.15625 772 c 0
 238.591796875 766.666992188 226.116210938 756.666992188 210.729492188 742 c 1
 227.352539062 814 l 1
EndSplineSet
EndChar

StartChar: Adieresis
Encoding: 196 196 133
Width: 461
GlyphClass: 2
Flags: MW
HStem: 0 21G<-74.5742 1.42578 -74.5742 -74.5742 291.426 291.426 291.426 368.426> 176 63<116.604 286.604 116.604 288.059 86.0586 286.604> 670 20G<272.725 339.725 339.725 339.725> 752 86<226.894 282.039 207.039 301.894 226.894 359.039 378.894 434.039>
VStem: 280.329 59.3955 288.059 80.3672
LayerCount: 2
Fore
SplineSet
288.05859375 176 m 1xf4
 86.05859375 176 l 1
 1.42578125 0 l 1
 -74.57421875 0 l 1
 272.724609375 690 l 1
 339.724609375 690 l 1xf8
 368.42578125 0 l 1
 291.42578125 0 l 1
 288.05859375 176 l 1xf4
286.603515625 239 m 1
 280.329101562 580 l 1
 116.603515625 239 l 1
 286.603515625 239 l 1
226.893554688 838 m 1
 301.893554688 838 l 1
 282.0390625 752 l 1
 207.0390625 752 l 1
 226.893554688 838 l 1
378.893554688 838 m 1
 453.893554688 838 l 1
 434.0390625 752 l 1
 359.0390625 752 l 1
 378.893554688 838 l 1
EndSplineSet
EndChar

StartChar: Aring
Encoding: 197 197 134
Width: 461
GlyphClass: 2
Flags: MW
HStem: 0 21G<291.426 368.426 291.426 291.426> 176.001 63<86.0586 286.604> 824.002 37.999<332.768 343.995>
VStem: 280.329 59.3955 288.059 80.3672
LayerCount: 2
Fore
SplineSet
288.05859375 176 m 1xe8
 86.05859375 176.000976562 l 1
 1.42578125 0.0009765625 l 1
 -74.57421875 0.0009765625 l 1
 272.724609375 690.000976562 l 1
 257.598632812 696.672851562 246.727539062 707.33984375 240.112304688 722.000976562 c 0
 233.499023438 736.66796875 232.423828125 753.66796875 236.88671875 773.000976562 c 0
 242.735351562 798.333984375 255.955078125 819.500976562 276.546875 836.500976562 c 0
 297.138671875 853.500976562 320.1015625 862.000976562 345.434570312 862.000976562 c 0
 371.434570312 862.000976562 390.971679688 853.500976562 404.046875 836.500976562 c 0
 417.122070312 819.500976562 420.735351562 798.333984375 414.88671875 773.000976562 c 0
 410.423828125 753.66796875 401.499023438 736.66796875 388.112304688 722.000976562 c 0
 374.7265625 707.333984375 358.596679688 696.666992188 339.724609375 690 c 1xf0
 368.42578125 0 l 1
 291.42578125 0 l 1
 288.05859375 176 l 1xe8
282.076171875 737.000976562 m 0
 288.920898438 727.66796875 299.34375 723.000976562 313.34375 723.000976562 c 0
 328.010742188 723.000976562 340.920898438 727.66796875 352.076171875 737.000976562 c 0
 363.23046875 746.333984375 370.500976562 758.333984375 373.88671875 773.000976562 c 0
 377.2734375 787.670898438 375.583007812 799.837890625 368.814453125 809.501953125 c 0
 362.045898438 819.168945312 351.328125 824.001953125 336.661132812 824.001953125 c 0
 322.661132812 824.001953125 310.045898438 819.168945312 298.814453125 809.501953125 c 0
 287.58203125 799.834960938 280.2734375 787.66796875 276.88671875 773.000976562 c 0
 273.500976562 758.333984375 275.23046875 746.333984375 282.076171875 737.000976562 c 0
286.603515625 239.000976562 m 1
 280.329101562 580.000976562 l 1
 116.603515625 239.000976562 l 1
 286.603515625 239.000976562 l 1
EndSplineSet
EndChar

StartChar: AE
Encoding: 198 198 135
Width: 688
GlyphClass: 2
Flags: MW
HStem: 0 65<357.433 568.426> 172 64<156.91 310.135 115.135 324.91> 318 66<431.079 608.842 415.842 624.079> 625 65<486.719 486.719 486.719 712.719>
LayerCount: 2
Fore
SplineSet
486.71875 625 m 1
 431.079101562 384 l 1
 624.079101562 384 l 1
 608.841796875 318 l 1
 415.841796875 318 l 1
 357.432617188 65 l 1
 583.432617188 65 l 1
 568.42578125 0 l 1
 270.42578125 0 l 1
 310.134765625 172 l 1
 115.134765625 172 l 1
 1.42578125 0 l 1
 -74.57421875 0 l 1
 385.724609375 690 l 1
 727.724609375 690 l 1
 712.71875 625 l 1
 486.71875 625 l 1
324.91015625 236 m 1
 415.1796875 627 l 1
 156.91015625 236 l 1
 324.91015625 236 l 1
EndSplineSet
EndChar

StartChar: Ccedilla
Encoding: 199 199 136
Width: 478
GlyphClass: 2
Flags: MW
HStem: -152 21G<41.333 117.333 41.333 41.333> 633 66<289.468 320.563>
LayerCount: 2
Fore
SplineSet
382.3203125 489 m 1
 383.934570312 496 l 2
 394.862304688 543.333007812 392.698242188 578 377.444335938 600 c 0
 362.190429688 622 337.563476562 633 303.563476562 633 c 0
 264.896484375 633 233.086914062 620.833007812 208.13671875 596.5 c 0
 183.185546875 572.166992188 164.70703125 534 152.702148438 482 c 2
 87.59765625 200 l 2
 65.7421875 105.333007812 93.4814453125 58 170.814453125 58 c 0
 205.481445312 58 235.353515625 69 260.432617188 91 c 0
 285.51171875 113 303.284179688 146.666992188 313.75 192 c 2
 315.828125 201 l 1
 386.828125 201 l 1
 384.51953125 191 l 2
 371.590820312 135 349.227539062 90.8330078125 317.4296875 58.5 c 0
 285.631835938 26.1669921875 248.06640625 5.6669921875 204.732421875 -3 c 1
 117.333007812 -152 l 1
 41.3330078125 -152 l 1
 135.80859375 -7 l 1
 85.3994140625 -3 48.8623046875 16.3330078125 26.19921875 51 c 0
 3.53515625 85.6669921875 -0.25390625 135.666992188 14.8291015625 201 c 2
 81.3193359375 489 l 2
 97.48046875 559 126.767578125 611.5 169.180664062 646.5 c 0
 211.594726562 681.5 261.134765625 699 317.801757812 699 c 0
 372.46875 699 413.288085938 682.333007812 440.258789062 649 c 0
 467.23046875 615.665039062 472.943359375 565.33203125 457.3984375 498 c 2
 455.3203125 489 l 1
 382.3203125 489 l 1
EndSplineSet
EndChar

StartChar: Egrave
Encoding: 200 200 137
Width: 403
GlyphClass: 2
Flags: MW
HStem: 0 65<63.4326 283.426> 318 66<137.079 323.842 121.842 339.079> 625 65<192.719 192.719 192.719 427.719>
LayerCount: 2
Fore
SplineSet
192.71875 625 m 1
 137.079101562 384 l 1
 339.079101562 384 l 1
 323.841796875 318 l 1
 121.841796875 318 l 1
 63.4326171875 65 l 1
 298.432617188 65 l 1
 283.42578125 0 l 1
 -23.57421875 0 l 1
 135.724609375 690 l 1
 442.724609375 690 l 1
 427.71875 625 l 1
 192.71875 625 l 1
300.345703125 749 m 1
 221.127929688 878 l 1
 295.127929688 878 l 1
 356.345703125 749 l 1
 300.345703125 749 l 1
EndSplineSet
EndChar

StartChar: Eacute
Encoding: 201 201 138
Width: 403
GlyphClass: 2
Flags: MW
HStem: 0 65<63.4326 283.426> 318 66<137.079 323.842 121.842 339.079> 625 65<192.719 192.719 192.719 427.719>
LayerCount: 2
Fore
SplineSet
192.71875 625 m 1
 137.079101562 384 l 1
 339.079101562 384 l 1
 323.841796875 318 l 1
 121.841796875 318 l 1
 63.4326171875 65 l 1
 298.432617188 65 l 1
 283.42578125 0 l 1
 -23.57421875 0 l 1
 135.724609375 690 l 1
 442.724609375 690 l 1
 427.71875 625 l 1
 192.71875 625 l 1
359.127929688 878 m 1
 433.127929688 878 l 1
 294.345703125 749 l 1
 238.345703125 749 l 1
 359.127929688 878 l 1
EndSplineSet
EndChar

StartChar: Ecircumflex
Encoding: 202 202 139
Width: 403
GlyphClass: 2
Flags: MW
HStem: 0 65<63.4326 283.426> 318 66<137.079 323.842 121.842 339.079> 625 65<192.719 192.719 192.719 427.719>
LayerCount: 2
Fore
SplineSet
192.71875 625 m 1
 137.079101562 384 l 1
 339.079101562 384 l 1
 323.841796875 318 l 1
 121.841796875 318 l 1
 63.4326171875 65 l 1
 298.432617188 65 l 1
 283.42578125 0 l 1
 -23.57421875 0 l 1
 135.724609375 690 l 1
 442.724609375 690 l 1
 427.71875 625 l 1
 192.71875 625 l 1
300.513671875 884 m 1
 364.513671875 884 l 1
 431.499023438 741 l 1
 364.499023438 741 l 1
 322.27734375 831 l 1
 237.499023438 741 l 1
 170.499023438 741 l 1
 300.513671875 884 l 1
EndSplineSet
EndChar

StartChar: Edieresis
Encoding: 203 203 140
Width: 403
GlyphClass: 2
Flags: MW
HStem: 0 65<63.4326 283.426> 318 66<137.079 323.842 121.842 339.079> 625 65<192.719 192.719 192.719 427.719> 752 86<208.894 264.039 189.039 283.894 208.894 341.039 360.894 416.039>
LayerCount: 2
Fore
SplineSet
192.71875 625 m 1
 137.079101562 384 l 1
 339.079101562 384 l 1
 323.841796875 318 l 1
 121.841796875 318 l 1
 63.4326171875 65 l 1
 298.432617188 65 l 1
 283.42578125 0 l 1
 -23.57421875 0 l 1
 135.724609375 690 l 1
 442.724609375 690 l 1
 427.71875 625 l 1
 192.71875 625 l 1
208.893554688 838 m 1
 283.893554688 838 l 1
 264.0390625 752 l 1
 189.0390625 752 l 1
 208.893554688 838 l 1
360.893554688 838 m 1
 435.893554688 838 l 1
 416.0390625 752 l 1
 341.0390625 752 l 1
 360.893554688 838 l 1
EndSplineSet
EndChar

StartChar: Igrave
Encoding: 204 204 141
Width: 204
GlyphClass: 2
Flags: MW
HStem: 0 21G<-17.5742 54.4258 -17.5742 -17.5742> 670 20G<141.725 213.725 213.725 213.725>
VStem: -17.5742 262.92
LayerCount: 2
Fore
SplineSet
141.724609375 690 m 1
 213.724609375 690 l 1
 54.42578125 0 l 1
 -17.57421875 0 l 1
 141.724609375 690 l 1
189.345703125 749 m 1
 110.127929688 878 l 1
 184.127929688 878 l 1
 245.345703125 749 l 1
 189.345703125 749 l 1
EndSplineSet
EndChar

StartChar: Iacute
Encoding: 205 205 142
Width: 204
GlyphClass: 2
Flags: MW
HStem: 0 21G<-17.5742 54.4258 -17.5742 -17.5742> 670 20G<141.725 213.725 213.725 213.725>
LayerCount: 2
Fore
SplineSet
141.724609375 690 m 1
 213.724609375 690 l 1
 54.42578125 0 l 1
 -17.57421875 0 l 1
 141.724609375 690 l 1
248.127929688 878 m 1
 322.127929688 878 l 1
 183.345703125 749 l 1
 127.345703125 749 l 1
 248.127929688 878 l 1
EndSplineSet
EndChar

StartChar: Icircumflex
Encoding: 206 206 143
Width: 204
GlyphClass: 2
Flags: MW
HStem: 0 21G<-17.5742 54.4258 -17.5742 -17.5742> 670 20G<141.725 213.725 213.725 213.725>
LayerCount: 2
Fore
SplineSet
141.724609375 690 m 1
 213.724609375 690 l 1
 54.42578125 0 l 1
 -17.57421875 0 l 1
 141.724609375 690 l 1
189.513671875 884 m 1
 253.513671875 884 l 1
 320.499023438 741 l 1
 253.499023438 741 l 1
 211.27734375 831 l 1
 126.499023438 741 l 1
 59.4990234375 741 l 1
 189.513671875 884 l 1
EndSplineSet
EndChar

StartChar: Idieresis
Encoding: 207 207 144
Width: 204
GlyphClass: 2
Flags: MW
HStem: 0 21G<-17.5742 54.4258 -17.5742 -17.5742> 670 20G<141.725 213.725 213.725 213.725> 752 86<97.8936 153.039 78.0391 172.894 97.8936 230.039 249.894 305.039>
LayerCount: 2
Fore
SplineSet
141.724609375 690 m 1
 213.724609375 690 l 1
 54.42578125 0 l 1
 -17.57421875 0 l 1
 141.724609375 690 l 1
97.8935546875 838 m 1
 172.893554688 838 l 1
 153.0390625 752 l 1
 78.0390625 752 l 1
 97.8935546875 838 l 1
249.893554688 838 m 1
 324.893554688 838 l 1
 305.0390625 752 l 1
 230.0390625 752 l 1
 249.893554688 838 l 1
EndSplineSet
EndChar

StartChar: Eth
Encoding: 208 208 145
Width: 505
GlyphClass: 2
Flags: MW
HStem: 0 65<92.4326 183.426> 318 65<34.8486 77.8418 19.8418 92.8486 34.8486 150.842 165.849 257.842> 625 65<221.719 327.719 221.719 221.719>
LayerCount: 2
Fore
SplineSet
465.719726562 638 m 0
 491.715820312 603.333007812 496.633789062 551 480.473632812 481 c 2
 417.676757812 209 l 2
 401.669921875 139.666992188 372.626953125 87.5 330.545898438 52.5 c 0
 288.465820312 17.5 239.42578125 0 183.42578125 0 c 2
 4.42578125 0 l 1
 77.841796875 318 l 1
 19.841796875 318 l 1
 34.8486328125 383 l 1
 92.8486328125 383 l 1
 163.724609375 690 l 1
 342.724609375 690 l 2
 398.724609375 690 439.72265625 672.666992188 465.719726562 638 c 0
405.857421875 474 m 2
 417.5546875 524.666992188 416.622070312 562.5 403.060546875 587.5 c 0
 389.499023438 612.5 364.385742188 625 327.71875 625 c 2
 221.71875 625 l 1
 165.848632812 383 l 1
 272.848632812 383 l 1
 257.841796875 318 l 1
 150.841796875 318 l 1
 92.4326171875 65 l 1
 198.432617188 65 l 2
 234.432617188 65 265.03515625 77 290.243164062 101 c 0
 315.451171875 125 333.518554688 160.666992188 344.446289062 208 c 2
 405.857421875 474 l 2
EndSplineSet
EndChar

StartChar: Ntilde
Encoding: 209 209 146
Width: 502
GlyphClass: 2
Flags: MW
HStem: 0 21G<-23.5742 49.4258 -23.5742 -23.5742 285.426 358.426 285.426 285.426> 670 20G<135.725 208.725 208.725 208.725 444.725 517.725 517.725 517.725> 745 67<381.09 412.892> 780 68<294.169 323.203>
LayerCount: 2
Fore
SplineSet
517.724609375 690 m 1xc0
 358.42578125 0 l 1
 285.42578125 0 l 1
 171.786132812 530 l 1
 49.42578125 0 l 1
 -23.57421875 0 l 1
 135.724609375 690 l 1
 208.724609375 690 l 1
 322.133789062 159 l 1
 444.724609375 690 l 1
 517.724609375 690 l 1xc0
248.352539062 814 m 1
 263.276367188 826.666992188 275.650390625 835.5 285.471679688 840.5 c 0
 295.29296875 845.5 306.203125 848 318.203125 848 c 0xd0
 328.203125 848 336.356445312 846.5 342.6640625 843.5 c 0
 348.971679688 840.5 356.099609375 836 364.046875 830 c 0
 371.995117188 824 379.123046875 819.5 385.430664062 816.5 c 0
 391.73828125 813.5 399.224609375 812 407.891601562 812 c 0
 417.891601562 812 426.96875 814.5 435.123046875 819.5 c 0
 443.27734375 824.5 455.380859375 834.333007812 471.43359375 849 c 1
 455.2734375 779 l 1
 441.681640625 766.333007812 429.975585938 757.5 420.155273438 752.5 c 0
 410.333007812 747.5 399.088867188 745 386.423828125 745 c 0xe0
 375.755859375 745 366.973632812 746.666992188 360.077148438 750 c 0
 353.1796875 753.333007812 345.08984375 758 335.807617188 764 c 0
 327.705078125 769.333007812 321.295898438 773.333007812 316.579101562 776 c 0
 311.862304688 778.666992188 306.169921875 780 299.502929688 780 c 0xd0
 288.8359375 780 278.719726562 777.333007812 269.15625 772 c 0
 259.591796875 766.666992188 247.116210938 756.666992188 231.729492188 742 c 1
 248.352539062 814 l 1
EndSplineSet
EndChar

StartChar: Ograve
Encoding: 210 210 147
Width: 478
GlyphClass: 2
Flags: MW
HStem: -8 66.001<131.483 181.579> 633.001 66<288.469 320.899>
LayerCount: 2
Fore
SplineSet
29.69921875 44.5 m 0
 3.779296875 79.5 -1.1767578125 131.66796875 14.830078125 201.000976562 c 2
 81.3203125 489.000976562 l 2
 97.634765625 559.66796875 126.793945312 612.334960938 168.797851562 647.000976562 c 0
 210.80078125 681.66796875 260.135742188 699.000976562 316.802734375 699.000976562 c 0
 373.469726562 699.000976562 414.80078125 681.66796875 440.797851562 647.000976562 c 0
 466.793945312 612.333984375 471.634765625 559.666992188 455.3203125 489 c 2
 388.830078125 201 l 2
 372.823242188 131.666992188 343.612304688 79.5 301.19921875 44.5 c 0
 258.786132812 9.5 209.579101562 -8 153.579101562 -8 c 0
 96.912109375 -8 55.619140625 9.5 29.69921875 44.5 c 0
261.51171875 93.5009765625 m 0
 286.642578125 117.16796875 304.671875 152.66796875 315.599609375 200.000976562 c 2
 380.704101562 482.000976562 l 2
 392.401367188 532.66796875 391.469726562 570.500976562 377.908203125 595.500976562 c 0
 364.346679688 620.500976562 339.232421875 633.000976562 302.565429688 633.000976562 c 0
 263.8984375 633.000976562 232.217773438 620.66796875 207.5234375 596.000976562 c 0
 182.828125 571.333984375 164.555664062 533.333984375 152.704101562 482.000976562 c 2
 87.599609375 200.000976562 l 2
 65.744140625 105.333984375 93.1494140625 58.0009765625 169.81640625 58.0009765625 c 0
 205.81640625 58.0009765625 236.380859375 69.833984375 261.51171875 93.5009765625 c 0
326.346679688 749.000976562 m 1
 247.127929688 878.000976562 l 1
 321.127929688 878.000976562 l 1
 382.346679688 749.000976562 l 1
 326.346679688 749.000976562 l 1
EndSplineSet
EndChar

StartChar: Oacute
Encoding: 211 211 148
Width: 478
GlyphClass: 2
Flags: MW
HStem: -8 66.001<131.483 181.579> 633.001 66<288.469 320.899>
LayerCount: 2
Fore
SplineSet
29.69921875 44.5 m 0
 3.779296875 79.5 -1.1767578125 131.66796875 14.830078125 201.000976562 c 2
 81.3203125 489.000976562 l 2
 97.634765625 559.66796875 126.793945312 612.334960938 168.797851562 647.000976562 c 0
 210.80078125 681.66796875 260.135742188 699.000976562 316.802734375 699.000976562 c 0
 373.469726562 699.000976562 414.80078125 681.66796875 440.797851562 647.000976562 c 0
 466.793945312 612.333984375 471.634765625 559.666992188 455.3203125 489 c 2
 388.830078125 201 l 2
 372.823242188 131.666992188 343.612304688 79.5 301.19921875 44.5 c 0
 258.786132812 9.5 209.579101562 -8 153.579101562 -8 c 0
 96.912109375 -8 55.619140625 9.5 29.69921875 44.5 c 0
261.51171875 93.5009765625 m 0
 286.642578125 117.16796875 304.671875 152.66796875 315.599609375 200.000976562 c 2
 380.704101562 482.000976562 l 2
 392.401367188 532.66796875 391.469726562 570.500976562 377.908203125 595.500976562 c 0
 364.346679688 620.500976562 339.232421875 633.000976562 302.565429688 633.000976562 c 0
 263.8984375 633.000976562 232.217773438 620.66796875 207.5234375 596.000976562 c 0
 182.828125 571.333984375 164.555664062 533.333984375 152.704101562 482.000976562 c 2
 87.599609375 200.000976562 l 2
 65.744140625 105.333984375 93.1494140625 58.0009765625 169.81640625 58.0009765625 c 0
 205.81640625 58.0009765625 236.380859375 69.833984375 261.51171875 93.5009765625 c 0
385.127929688 878.000976562 m 1
 459.127929688 878.000976562 l 1
 320.346679688 749.000976562 l 1
 264.346679688 749.000976562 l 1
 385.127929688 878.000976562 l 1
EndSplineSet
EndChar

StartChar: Ocircumflex
Encoding: 212 212 149
Width: 478
GlyphClass: 2
Flags: MW
HStem: -8 66.001<131.483 181.579> 633.001 66<288.469 320.899>
LayerCount: 2
Fore
SplineSet
29.69921875 44.5 m 0
 3.779296875 79.5 -1.1767578125 131.66796875 14.830078125 201.000976562 c 2
 81.3203125 489.000976562 l 2
 97.634765625 559.66796875 126.793945312 612.334960938 168.797851562 647.000976562 c 0
 210.80078125 681.66796875 260.135742188 699.000976562 316.802734375 699.000976562 c 0
 373.469726562 699.000976562 414.80078125 681.66796875 440.797851562 647.000976562 c 0
 466.793945312 612.333984375 471.634765625 559.666992188 455.3203125 489 c 2
 388.830078125 201 l 2
 372.823242188 131.666992188 343.612304688 79.5 301.19921875 44.5 c 0
 258.786132812 9.5 209.579101562 -8 153.579101562 -8 c 0
 96.912109375 -8 55.619140625 9.5 29.69921875 44.5 c 0
261.51171875 93.5009765625 m 0
 286.642578125 117.16796875 304.671875 152.66796875 315.599609375 200.000976562 c 2
 380.704101562 482.000976562 l 2
 392.401367188 532.66796875 391.469726562 570.500976562 377.908203125 595.500976562 c 0
 364.346679688 620.500976562 339.232421875 633.000976562 302.565429688 633.000976562 c 0
 263.8984375 633.000976562 232.217773438 620.66796875 207.5234375 596.000976562 c 0
 182.828125 571.333984375 164.555664062 533.333984375 152.704101562 482.000976562 c 2
 87.599609375 200.000976562 l 2
 65.744140625 105.333984375 93.1494140625 58.0009765625 169.81640625 58.0009765625 c 0
 205.81640625 58.0009765625 236.380859375 69.833984375 261.51171875 93.5009765625 c 0
326.513671875 884.000976562 m 1
 390.513671875 884.000976562 l 1
 457.499023438 741.000976562 l 1
 390.499023438 741.000976562 l 1
 348.27734375 831.000976562 l 1
 263.499023438 741.000976562 l 1
 196.499023438 741.000976562 l 1
 326.513671875 884.000976562 l 1
EndSplineSet
EndChar

StartChar: Otilde
Encoding: 213 213 150
Width: 478
GlyphClass: 2
Flags: MW
HStem: -8 66.001<131.483 181.579> 633.001 66<288.469 320.899> 745.001 67<368.091 399.893> 780.001 68<281.169 310.204>
LayerCount: 2
Fore
SplineSet
29.69921875 44.5 m 0xc0
 3.779296875 79.5 -1.1767578125 131.66796875 14.830078125 201.000976562 c 2
 81.3203125 489.000976562 l 2
 97.634765625 559.66796875 126.793945312 612.334960938 168.797851562 647.000976562 c 0
 210.80078125 681.66796875 260.135742188 699.000976562 316.802734375 699.000976562 c 0
 373.469726562 699.000976562 414.80078125 681.66796875 440.797851562 647.000976562 c 0
 466.793945312 612.333984375 471.634765625 559.666992188 455.3203125 489 c 2
 388.830078125 201 l 2
 372.823242188 131.666992188 343.612304688 79.5 301.19921875 44.5 c 0
 258.786132812 9.5 209.579101562 -8 153.579101562 -8 c 0
 96.912109375 -8 55.619140625 9.5 29.69921875 44.5 c 0xc0
261.51171875 93.5009765625 m 0
 286.642578125 117.16796875 304.671875 152.66796875 315.599609375 200.000976562 c 2
 380.704101562 482.000976562 l 2
 392.401367188 532.66796875 391.469726562 570.500976562 377.908203125 595.500976562 c 0
 364.346679688 620.500976562 339.232421875 633.000976562 302.565429688 633.000976562 c 0
 263.8984375 633.000976562 232.217773438 620.66796875 207.5234375 596.000976562 c 0
 182.828125 571.333984375 164.555664062 533.333984375 152.704101562 482.000976562 c 2
 87.599609375 200.000976562 l 2
 65.744140625 105.333984375 93.1494140625 58.0009765625 169.81640625 58.0009765625 c 0
 205.81640625 58.0009765625 236.380859375 69.833984375 261.51171875 93.5009765625 c 0
235.352539062 814.000976562 m 1
 250.27734375 826.66796875 262.651367188 835.500976562 272.47265625 840.500976562 c 0
 282.293945312 845.500976562 293.204101562 848.000976562 305.204101562 848.000976562 c 0xd0
 315.204101562 848.000976562 323.357421875 846.500976562 329.665039062 843.500976562 c 0
 335.97265625 840.500976562 343.100585938 836.000976562 351.048828125 830.000976562 c 0
 358.99609375 824.000976562 366.124023438 819.500976562 372.431640625 816.500976562 c 0
 378.739257812 813.500976562 386.225585938 812.000976562 394.892578125 812.000976562 c 0
 404.892578125 812.000976562 413.969726562 814.500976562 422.124023438 819.500976562 c 0
 430.278320312 824.500976562 442.381835938 834.333984375 458.434570312 849.000976562 c 1
 442.274414062 779.000976562 l 1
 428.681640625 766.333984375 416.975585938 757.500976562 407.15625 752.500976562 c 0
 397.334960938 747.500976562 386.090820312 745.000976562 373.424804688 745.000976562 c 0xe0
 362.756835938 745.000976562 353.974609375 746.66796875 347.078125 750.000976562 c 0
 340.180664062 753.333984375 332.090820312 758.000976562 322.809570312 764.000976562 c 0
 314.706054688 769.333984375 308.296875 773.333984375 303.580078125 776.000976562 c 0
 298.862304688 778.66796875 293.169921875 780.000976562 286.502929688 780.000976562 c 0xd0
 275.8359375 780.000976562 265.720703125 777.333984375 256.15625 772.000976562 c 0
 246.591796875 766.66796875 234.116210938 756.66796875 218.73046875 742.000976562 c 1
 235.352539062 814.000976562 l 1
EndSplineSet
EndChar

StartChar: Odieresis
Encoding: 214 214 151
Width: 478
GlyphClass: 2
Flags: MW
HStem: -8 66.001<131.483 181.579> 633.001 66<288.469 320.899> 752.001 86<234.894 290.039 215.039 309.894 234.894 367.039 386.894 442.039>
LayerCount: 2
Fore
SplineSet
29.69921875 44.5 m 0
 3.779296875 79.5 -1.1767578125 131.66796875 14.830078125 201.000976562 c 2
 81.3203125 489.000976562 l 2
 97.634765625 559.66796875 126.793945312 612.334960938 168.797851562 647.000976562 c 0
 210.80078125 681.66796875 260.135742188 699.000976562 316.802734375 699.000976562 c 0
 373.469726562 699.000976562 414.80078125 681.66796875 440.797851562 647.000976562 c 0
 466.793945312 612.333984375 471.634765625 559.666992188 455.3203125 489 c 2
 388.830078125 201 l 2
 372.823242188 131.666992188 343.612304688 79.5 301.19921875 44.5 c 0
 258.786132812 9.5 209.579101562 -8 153.579101562 -8 c 0
 96.912109375 -8 55.619140625 9.5 29.69921875 44.5 c 0
261.51171875 93.5009765625 m 0
 286.642578125 117.16796875 304.671875 152.66796875 315.599609375 200.000976562 c 2
 380.704101562 482.000976562 l 2
 392.401367188 532.66796875 391.469726562 570.500976562 377.908203125 595.500976562 c 0
 364.346679688 620.500976562 339.232421875 633.000976562 302.565429688 633.000976562 c 0
 263.8984375 633.000976562 232.217773438 620.66796875 207.5234375 596.000976562 c 0
 182.828125 571.333984375 164.555664062 533.333984375 152.704101562 482.000976562 c 2
 87.599609375 200.000976562 l 2
 65.744140625 105.333984375 93.1494140625 58.0009765625 169.81640625 58.0009765625 c 0
 205.81640625 58.0009765625 236.380859375 69.833984375 261.51171875 93.5009765625 c 0
234.893554688 838.000976562 m 1
 309.893554688 838.000976562 l 1
 290.0390625 752.000976562 l 1
 215.0390625 752.000976562 l 1
 234.893554688 838.000976562 l 1
386.893554688 838.000976562 m 1
 461.893554688 838.000976562 l 1
 442.0390625 752.000976562 l 1
 367.0390625 752.000976562 l 1
 386.893554688 838.000976562 l 1
EndSplineSet
EndChar

StartChar: multiply
Encoding: 215 215 152
Width: 420
GlyphClass: 2
Flags: MW
HStem: 129 294<53.208 121.083 121.083 260.208>
LayerCount: 2
Fore
SplineSet
19.134765625 172 m 1
 147.145507812 276 l 1
 67.1552734375 380 l 1
 121.083007812 423 l 1
 201.303710938 320 l 1
 328.083007812 423 l 1
 361.155273438 380 l 1
 234.145507812 276 l 1
 313.134765625 172 l 1
 260.208007812 129 l 1
 181.217773438 233 l 1
 53.2080078125 129 l 1
 19.134765625 172 l 1
EndSplineSet
EndChar

StartChar: Oslash
Encoding: 216 216 153
Width: 478
GlyphClass: 2
Flags: MW
HStem: -7.99902 66.001<150.815 181.578> 633.002 65.998<288.468 321.231>
LayerCount: 2
Fore
SplineSet
451.94921875 626 m 1
 467.278320312 591.333007812 468.40234375 545.66796875 455.319335938 489.000976562 c 2
 388.829101562 201.000976562 l 2
 372.822265625 131.66796875 343.612304688 79.5009765625 301.198242188 44.5009765625 c 0
 258.78515625 9.5009765625 209.578125 -7.9990234375 153.578125 -7.9990234375 c 0
 109.578125 -7.9990234375 74.4501953125 3.0009765625 48.1962890625 25.0009765625 c 1
 17.8076171875 -19.9990234375 l 1
 -35.1923828125 -19.9990234375 l 1
 19.7392578125 62.0009765625 l 1
 3.2294921875 97.333984375 1.5927734375 143.666992188 14.8291015625 201 c 2
 81.3193359375 489 l 2
 97.6337890625 559.666992188 126.79296875 612.333984375 168.796875 647 c 0
 210.799804688 681.666992188 260.134765625 699 316.801757812 699 c 0
 363.46875 699 399.51953125 687.666992188 424.953125 665 c 1
 455.341796875 710 l 1
 508.341796875 710 l 1
 451.94921875 626 l 1
80.517578125 152.001953125 m 1
 377.791992188 595.001953125 l 1
 364.973632812 620.334960938 339.897460938 633.001953125 302.564453125 633.001953125 c 0
 263.897460938 633.001953125 232.217773438 620.668945312 207.522460938 596.001953125 c 0
 182.828125 571.334960938 164.5546875 533.334960938 152.704101562 482.001953125 c 2
 87.5986328125 200.001953125 l 2
 83.1357421875 180.668945312 80.7744140625 164.668945312 80.517578125 152.001953125 c 1
388.016601562 531.001953125 m 1
 92.6650390625 92.001953125 l 1
 106.098632812 69.3349609375 131.815429688 58.001953125 169.815429688 58.001953125 c 0
 205.815429688 58.001953125 236.380859375 69.8349609375 261.51171875 93.501953125 c 0
 286.642578125 117.168945312 304.670898438 152.668945312 315.598632812 200.001953125 c 2
 380.704101562 482.001953125 l 2
 385.321289062 502.00390625 387.758789062 518.336914062 388.016601562 531.001953125 c 1
EndSplineSet
EndChar

StartChar: Ugrave
Encoding: 217 217 154
Width: 480
GlyphClass: 2
Flags: MW
HStem: -8 66<153.149 181.246> 670 20G<135.724 208.724 208.724 208.724 422.724 495.724 495.724 495.724>
LayerCount: 2
Fore
SplineSet
66.888671875 15 m 0
 43.095703125 30.3330078125 26.7626953125 52 17.89453125 80 c 0
 9.025390625 108 8.74609375 140 17.0576171875 176 c 2
 135.723632812 690 l 1
 208.723632812 690 l 1
 90.9814453125 180 l 2
 81.900390625 140.666992188 84.435546875 110.5 98.587890625 89.5 c 0
 112.739257812 68.5 136.482421875 58 169.815429688 58 c 0
 203.1484375 58 231.77734375 68.6669921875 255.703125 90 c 0
 279.627929688 111.333007812 296.053710938 141.333007812 304.981445312 180 c 2
 422.723632812 690 l 1
 495.723632812 690 l 1
 377.057617188 176 l 2
 364.283203125 120.666992188 337.341796875 76.1669921875 296.236328125 42.5 c 0
 255.130859375 8.8330078125 207.912109375 -8 154.579101562 -8 c 0
 119.912109375 -8 90.681640625 -0.3330078125 66.888671875 15 c 0
327.34375 749 m 1
 248.125976562 878 l 1
 322.125976562 878 l 1
 383.34375 749 l 1
 327.34375 749 l 1
EndSplineSet
EndChar

StartChar: Uacute
Encoding: 218 218 155
Width: 480
GlyphClass: 2
Flags: MW
HStem: -8 66<153.149 181.246> 670 20G<135.724 208.724 208.724 208.724 422.724 495.724 495.724 495.724>
LayerCount: 2
Fore
SplineSet
66.888671875 15 m 0
 43.095703125 30.3330078125 26.7626953125 52 17.89453125 80 c 0
 9.025390625 108 8.74609375 140 17.0576171875 176 c 2
 135.723632812 690 l 1
 208.723632812 690 l 1
 90.9814453125 180 l 2
 81.900390625 140.666992188 84.435546875 110.5 98.587890625 89.5 c 0
 112.739257812 68.5 136.482421875 58 169.815429688 58 c 0
 203.1484375 58 231.77734375 68.6669921875 255.703125 90 c 0
 279.627929688 111.333007812 296.053710938 141.333007812 304.981445312 180 c 2
 422.723632812 690 l 1
 495.723632812 690 l 1
 377.057617188 176 l 2
 364.283203125 120.666992188 337.341796875 76.1669921875 296.236328125 42.5 c 0
 255.130859375 8.8330078125 207.912109375 -8 154.579101562 -8 c 0
 119.912109375 -8 90.681640625 -0.3330078125 66.888671875 15 c 0
386.125976562 878 m 1
 460.125976562 878 l 1
 321.34375 749 l 1
 265.34375 749 l 1
 386.125976562 878 l 1
EndSplineSet
EndChar

StartChar: Ucircumflex
Encoding: 219 219 156
Width: 480
GlyphClass: 2
Flags: MW
HStem: -8 66<153.149 181.246> 670 20G<135.724 208.724 208.724 208.724 422.724 495.724 495.724 495.724>
LayerCount: 2
Fore
SplineSet
66.888671875 15 m 0
 43.095703125 30.3330078125 26.7626953125 52 17.89453125 80 c 0
 9.025390625 108 8.74609375 140 17.0576171875 176 c 2
 135.723632812 690 l 1
 208.723632812 690 l 1
 90.9814453125 180 l 2
 81.900390625 140.666992188 84.435546875 110.5 98.587890625 89.5 c 0
 112.739257812 68.5 136.482421875 58 169.815429688 58 c 0
 203.1484375 58 231.77734375 68.6669921875 255.703125 90 c 0
 279.627929688 111.333007812 296.053710938 141.333007812 304.981445312 180 c 2
 422.723632812 690 l 1
 495.723632812 690 l 1
 377.057617188 176 l 2
 364.283203125 120.666992188 337.341796875 76.1669921875 296.236328125 42.5 c 0
 255.130859375 8.8330078125 207.912109375 -8 154.579101562 -8 c 0
 119.912109375 -8 90.681640625 -0.3330078125 66.888671875 15 c 0
327.51171875 884 m 1
 391.51171875 884 l 1
 458.497070312 741 l 1
 391.497070312 741 l 1
 349.275390625 831 l 1
 264.497070312 741 l 1
 197.497070312 741 l 1
 327.51171875 884 l 1
EndSplineSet
EndChar

StartChar: Udieresis
Encoding: 220 220 157
Width: 480
GlyphClass: 2
Flags: MW
HStem: -8 66<153.149 181.246> 670 20G<135.724 208.724 208.724 208.724 422.724 495.724 495.724 495.724> 752 86<235.892 291.037 216.037 310.892 235.892 368.037 387.892 443.037>
LayerCount: 2
Fore
SplineSet
66.888671875 15 m 0
 43.095703125 30.3330078125 26.7626953125 52 17.89453125 80 c 0
 9.025390625 108 8.74609375 140 17.0576171875 176 c 2
 135.723632812 690 l 1
 208.723632812 690 l 1
 90.9814453125 180 l 2
 81.900390625 140.666992188 84.435546875 110.5 98.587890625 89.5 c 0
 112.739257812 68.5 136.482421875 58 169.815429688 58 c 0
 203.1484375 58 231.77734375 68.6669921875 255.703125 90 c 0
 279.627929688 111.333007812 296.053710938 141.333007812 304.981445312 180 c 2
 422.723632812 690 l 1
 495.723632812 690 l 1
 377.057617188 176 l 2
 364.283203125 120.666992188 337.341796875 76.1669921875 296.236328125 42.5 c 0
 255.130859375 8.8330078125 207.912109375 -8 154.579101562 -8 c 0
 119.912109375 -8 90.681640625 -0.3330078125 66.888671875 15 c 0
235.891601562 838 m 1
 310.891601562 838 l 1
 291.037109375 752 l 1
 216.037109375 752 l 1
 235.891601562 838 l 1
387.891601562 838 m 1
 462.891601562 838 l 1
 443.037109375 752 l 1
 368.037109375 752 l 1
 387.891601562 838 l 1
EndSplineSet
EndChar

StartChar: Yacute
Encoding: 221 221 158
Width: 392
GlyphClass: 2
Flags: MW
HStem: 0 21G<76.4258 148.426 76.4258 76.4258> 670 20G<84.7246 164.725 164.725 164.725 378.725 458.725 458.725 458.725>
VStem: 84.7246 80<690 690>
LayerCount: 2
Fore
SplineSet
214.684570312 287 m 1
 148.42578125 0 l 1
 76.42578125 0 l 1
 142.684570312 287 l 1
 84.724609375 690 l 1
 164.724609375 690 l 1
 198.770507812 374 l 1
 378.724609375 690 l 1
 458.724609375 690 l 1
 214.684570312 287 l 1
346.127929688 878 m 1
 420.127929688 878 l 1
 281.345703125 749 l 1
 225.345703125 749 l 1
 346.127929688 878 l 1
EndSplineSet
EndChar

StartChar: Thorn
Encoding: 222 222 159
Width: 440
GlyphClass: 2
Flags: MW
HStem: 0 21G<-23.5742 48.4258 -23.5742 -23.5742> 166 64.001<101.525 189.75 86.75 200.525> 499.001 64.999<178.636 262.629 163.629 281.636> 670 20G<135.725 207.725 207.725 207.725>
LayerCount: 2
Fore
SplineSet
404.9765625 513.5 m 0
 425.87109375 479.833007812 428.622070312 429.666992188 413.23046875 363 c 0
 382.91015625 231.666992188 308.416992188 166 189.75 166 c 2
 86.75 166 l 1
 48.42578125 0 l 1
 -23.57421875 0 l 1
 135.724609375 690 l 1
 207.724609375 690 l 1
 178.635742188 564 l 1
 281.635742188 564 l 2
 342.96875 564 384.08203125 547.166992188 404.9765625 513.5 c 0
290.297851562 261.500976562 m 0
 312.813476562 282.500976562 329.45703125 316.333984375 340.231445312 363.000976562 c 0
 351.159179688 410.333984375 350.291015625 444.833984375 337.625976562 466.500976562 c 0
 324.9609375 488.16796875 299.961914062 499.000976562 262.62890625 499.000976562 c 2
 163.62890625 499.000976562 l 1
 101.525390625 230.000976562 l 1
 200.525390625 230.000976562 l 2
 237.858398438 230.000976562 267.783203125 240.500976562 290.297851562 261.500976562 c 0
EndSplineSet
EndChar

StartChar: germandbls
Encoding: 223 223 160
Width: 413
GlyphClass: 2
Flags: MW
HStem: -4 62<139.816 152.502 125.502 158.814> 376 61<224.314 231.231 210.231 245.314> 637 62<261.802 286.487>
LayerCount: 2
Fore
SplineSet
139.81640625 58 m 1
 158.814453125 58 l 2
 179.481445312 58 195.46875 63 206.77734375 73 c 0
 218.0859375 83 227.331054688 98.5 234.512695312 119.5 c 0
 241.693359375 140.5 250.594726562 174 261.21484375 220 c 0
 270.603515625 260.666992188 276.477539062 291.166992188 278.838867188 311.5 c 0
 281.200195312 331.833984375 279.0234375 347.666992188 272.306640625 359 c 0
 265.58984375 370.333007812 251.8984375 376 231.231445312 376 c 2
 210.231445312 376 l 1
 224.314453125 437 l 1
 245.314453125 437 l 2
 269.314453125 437 287.405273438 445.333007812 299.5859375 462 c 0
 311.766601562 478.666992188 321.936523438 504.666992188 330.09375 540 c 0
 337.943359375 574 336.970703125 598.666992188 327.177734375 614 c 0
 317.384765625 629.333007812 299.487304688 637 273.487304688 637 c 0
 218.8203125 637 184.408203125 606.333007812 170.248046875 545 c 2
 44.4248046875 0 l 1
 -24.5751953125 0 l 1
 95.9375 522 l 2
 109.328125 580 131.319335938 624 161.912109375 654 c 0
 192.505859375 684 234.801757812 699 288.801757812 699 c 0
 333.46875 699 365.98046875 685.333007812 386.336914062 658 c 0
 406.693359375 630.666992188 411.330078125 593 400.249023438 545 c 0
 391.475585938 507 380.6015625 478.666992188 367.625 460 c 0
 354.6484375 441.33203125 335.364257812 425.665039062 309.774414062 412.999023438 c 1
 326.798828125 402.999023438 338.118164062 390.666015625 343.731445312 375.999023438 c 0
 349.345703125 361.33203125 350.958984375 342.33203125 348.572265625 318.999023438 c 0
 346.185546875 295.666015625 340.067382812 262.666015625 330.216796875 219.999023438 c 0
 316.826171875 161.999023438 303.961914062 117.83203125 291.625976562 87.4990234375 c 0
 279.290039062 57.166015625 262.352539062 34.3330078125 240.8125 19 c 0
 219.272460938 3.6669921875 189.834960938 -4 152.501953125 -4 c 2
 125.501953125 -4 l 1
 139.81640625 58 l 1
EndSplineSet
EndChar

StartChar: agrave
Encoding: 224 224 161
Width: 401
GlyphClass: 2
Flags: MW
HStem: -8 58.999<89.5337 109.913> 0 21G<193.426 258.426 193.426 193.426> 243.999 51.001<142.758 258.531 178.531 246.758> 465 60<210.298 244.445>
LayerCount: 2
Fore
SplineSet
332.512695312 485.5 m 0xb0
 351.765625 459.166992188 355.928710938 422.333007812 345.000976562 375 c 2
 258.42578125 0 l 1
 193.42578125 0 l 1x70
 204.5078125 48 l 1
 172.555664062 10.6669921875 133.24609375 -8 86.5791015625 -8 c 0
 43.912109375 -8 14.361328125 5.5 -2.072265625 32.5 c 0
 -18.505859375 59.5 -21.1044921875 97.3330078125 -9.8681640625 146 c 0
 0.9052734375 192.666992188 22.4990234375 229.166992188 54.9111328125 255.5 c 0
 87.32421875 281.833007812 128.53125 295 178.53125 295 c 2
 258.53125 295 l 1
 277.693359375 378 l 2
 291.083007812 436 271.111328125 465 217.778320312 465 c 0
 193.111328125 465 172.572265625 458.333007812 156.161132812 445 c 0
 139.75 431.666992188 128.7734375 413 123.232421875 389 c 2
 121.385742188 381 l 1
 57.3857421875 381 l 1
 59.462890625 390 l 2
 69.16015625 432 89.611328125 465 120.819335938 489 c 0
 152.02734375 513 188.96484375 525 231.631835938 525 c 0
 279.631835938 525 313.258789062 511.833007812 332.512695312 485.5 c 0xb0
185.586914062 76.4990234375 m 0
 204.51171875 93.4990234375 217.513671875 117.33203125 224.59375 147.999023438 c 2
 246.7578125 243.999023438 l 1
 173.7578125 243.999023438 l 2
 111.7578125 243.999023438 73.29296875 211.666015625 58.36328125 146.999023438 c 0
 43.587890625 82.9990234375 62.8671875 50.9990234375 116.200195312 50.9990234375 c 0xb0
 143.533203125 50.9990234375 166.662109375 59.4990234375 185.586914062 76.4990234375 c 0
248.405273438 575.999023438 m 1
 169.1875 704.999023438 l 1
 243.1875 704.999023438 l 1
 304.405273438 575.999023438 l 1
 248.405273438 575.999023438 l 1
EndSplineSet
EndChar

StartChar: aacute
Encoding: 225 225 162
Width: 401
GlyphClass: 2
Flags: MW
HStem: -8 58.999<89.5337 109.913> 0 21G<193.426 258.426 193.426 193.426> 243.999 51.001<142.758 258.531 178.531 246.758> 465 60<210.298 244.445>
LayerCount: 2
Fore
SplineSet
332.512695312 485.5 m 0xb0
 351.765625 459.166992188 355.928710938 422.333007812 345.000976562 375 c 2
 258.42578125 0 l 1
 193.42578125 0 l 1x70
 204.5078125 48 l 1
 172.555664062 10.6669921875 133.24609375 -8 86.5791015625 -8 c 0
 43.912109375 -8 14.361328125 5.5 -2.072265625 32.5 c 0
 -18.505859375 59.5 -21.1044921875 97.3330078125 -9.8681640625 146 c 0
 0.9052734375 192.666992188 22.4990234375 229.166992188 54.9111328125 255.5 c 0
 87.32421875 281.833007812 128.53125 295 178.53125 295 c 2
 258.53125 295 l 1
 277.693359375 378 l 2
 291.083007812 436 271.111328125 465 217.778320312 465 c 0
 193.111328125 465 172.572265625 458.333007812 156.161132812 445 c 0
 139.75 431.666992188 128.7734375 413 123.232421875 389 c 2
 121.385742188 381 l 1
 57.3857421875 381 l 1
 59.462890625 390 l 2
 69.16015625 432 89.611328125 465 120.819335938 489 c 0
 152.02734375 513 188.96484375 525 231.631835938 525 c 0
 279.631835938 525 313.258789062 511.833007812 332.512695312 485.5 c 0xb0
185.586914062 76.4990234375 m 0
 204.51171875 93.4990234375 217.513671875 117.33203125 224.59375 147.999023438 c 2
 246.7578125 243.999023438 l 1
 173.7578125 243.999023438 l 2
 111.7578125 243.999023438 73.29296875 211.666015625 58.36328125 146.999023438 c 0
 43.587890625 82.9990234375 62.8671875 50.9990234375 116.200195312 50.9990234375 c 0xb0
 143.533203125 50.9990234375 166.662109375 59.4990234375 185.586914062 76.4990234375 c 0
307.1875 704.999023438 m 1
 381.1875 704.999023438 l 1
 242.405273438 575.999023438 l 1
 186.405273438 575.999023438 l 1
 307.1875 704.999023438 l 1
EndSplineSet
EndChar

StartChar: acircumflex
Encoding: 226 226 163
Width: 401
GlyphClass: 2
Flags: MW
HStem: -8 58.999<89.5337 109.913> 0 21G<193.426 258.426 193.426 193.426> 243.999 51.001<142.758 258.531 178.531 246.758> 465 60<210.298 244.445>
LayerCount: 2
Fore
SplineSet
332.512695312 485.5 m 0xb0
 351.765625 459.166992188 355.928710938 422.333007812 345.000976562 375 c 2
 258.42578125 0 l 1
 193.42578125 0 l 1x70
 204.5078125 48 l 1
 172.555664062 10.6669921875 133.24609375 -8 86.5791015625 -8 c 0
 43.912109375 -8 14.361328125 5.5 -2.072265625 32.5 c 0
 -18.505859375 59.5 -21.1044921875 97.3330078125 -9.8681640625 146 c 0
 0.9052734375 192.666992188 22.4990234375 229.166992188 54.9111328125 255.5 c 0
 87.32421875 281.833007812 128.53125 295 178.53125 295 c 2
 258.53125 295 l 1
 277.693359375 378 l 2
 291.083007812 436 271.111328125 465 217.778320312 465 c 0
 193.111328125 465 172.572265625 458.333007812 156.161132812 445 c 0
 139.75 431.666992188 128.7734375 413 123.232421875 389 c 2
 121.385742188 381 l 1
 57.3857421875 381 l 1
 59.462890625 390 l 2
 69.16015625 432 89.611328125 465 120.819335938 489 c 0
 152.02734375 513 188.96484375 525 231.631835938 525 c 0
 279.631835938 525 313.258789062 511.833007812 332.512695312 485.5 c 0xb0
185.586914062 76.4990234375 m 0
 204.51171875 93.4990234375 217.513671875 117.33203125 224.59375 147.999023438 c 2
 246.7578125 243.999023438 l 1
 173.7578125 243.999023438 l 2
 111.7578125 243.999023438 73.29296875 211.666015625 58.36328125 146.999023438 c 0
 43.587890625 82.9990234375 62.8671875 50.9990234375 116.200195312 50.9990234375 c 0xb0
 143.533203125 50.9990234375 166.662109375 59.4990234375 185.586914062 76.4990234375 c 0
248.573242188 710.999023438 m 1
 312.573242188 710.999023438 l 1
 379.55859375 567.999023438 l 1
 312.55859375 567.999023438 l 1
 270.336914062 657.999023438 l 1
 185.55859375 567.999023438 l 1
 118.55859375 567.999023438 l 1
 248.573242188 710.999023438 l 1
EndSplineSet
EndChar

StartChar: atilde
Encoding: 227 227 164
Width: 401
GlyphClass: 2
Flags: MW
HStem: -8 58.999<89.5337 109.913> 0 21G<193.426 258.426 193.426 193.426> 243.999 51.001<142.758 258.531 178.531 246.758> 465 60<210.298 244.445> 571.999 67<290.151 321.953> 606.999 68<203.229 232.265>
LayerCount: 2
Fore
SplineSet
332.512695312 485.5 m 0xb0
 351.765625 459.166992188 355.928710938 422.333007812 345.000976562 375 c 2
 258.42578125 0 l 1
 193.42578125 0 l 1x70
 204.5078125 48 l 1
 172.555664062 10.6669921875 133.24609375 -8 86.5791015625 -8 c 0
 43.912109375 -8 14.361328125 5.5 -2.072265625 32.5 c 0
 -18.505859375 59.5 -21.1044921875 97.3330078125 -9.8681640625 146 c 0
 0.9052734375 192.666992188 22.4990234375 229.166992188 54.9111328125 255.5 c 0
 87.32421875 281.833007812 128.53125 295 178.53125 295 c 2
 258.53125 295 l 1
 277.693359375 378 l 2
 291.083007812 436 271.111328125 465 217.778320312 465 c 0
 193.111328125 465 172.572265625 458.333007812 156.161132812 445 c 0
 139.75 431.666992188 128.7734375 413 123.232421875 389 c 2
 121.385742188 381 l 1
 57.3857421875 381 l 1
 59.462890625 390 l 2
 69.16015625 432 89.611328125 465 120.819335938 489 c 0
 152.02734375 513 188.96484375 525 231.631835938 525 c 0
 279.631835938 525 313.258789062 511.833007812 332.512695312 485.5 c 0xb0
185.586914062 76.4990234375 m 0
 204.51171875 93.4990234375 217.513671875 117.33203125 224.59375 147.999023438 c 2
 246.7578125 243.999023438 l 1
 173.7578125 243.999023438 l 2
 111.7578125 243.999023438 73.29296875 211.666015625 58.36328125 146.999023438 c 0
 43.587890625 82.9990234375 62.8671875 50.9990234375 116.200195312 50.9990234375 c 0xb0
 143.533203125 50.9990234375 166.662109375 59.4990234375 185.586914062 76.4990234375 c 0
157.412109375 640.999023438 m 1
 172.3359375 653.666015625 184.711914062 662.499023438 194.533203125 667.499023438 c 0
 204.354492188 672.499023438 215.264648438 674.999023438 227.264648438 674.999023438 c 0x34
 237.264648438 674.999023438 245.41796875 673.499023438 251.725585938 670.499023438 c 0
 258.033203125 667.499023438 265.161132812 662.999023438 273.108398438 656.999023438 c 0
 281.056640625 650.999023438 288.184570312 646.499023438 294.4921875 643.499023438 c 0
 300.799804688 640.499023438 308.286132812 638.999023438 316.953125 638.999023438 c 0
 326.953125 638.999023438 336.030273438 641.499023438 344.184570312 646.499023438 c 0
 352.338867188 651.499023438 364.442382812 661.33203125 380.495117188 675.999023438 c 1
 364.334960938 605.999023438 l 1
 350.7421875 593.33203125 339.036132812 584.499023438 329.215820312 579.499023438 c 0
 319.39453125 574.499023438 308.150390625 571.999023438 295.484375 571.999023438 c 0x38
 284.817382812 571.999023438 276.03515625 573.666015625 269.137695312 576.999023438 c 0
 262.240234375 580.33203125 254.150390625 584.999023438 244.868164062 590.999023438 c 0
 236.765625 596.33203125 230.356445312 600.33203125 225.638671875 602.999023438 c 0
 220.921875 605.666015625 215.229492188 606.999023438 208.5625 606.999023438 c 0x34
 197.895507812 606.999023438 187.779296875 604.33203125 178.215820312 598.999023438 c 0
 168.651367188 593.666015625 156.17578125 583.666015625 140.7890625 568.999023438 c 1
 157.412109375 640.999023438 l 1
EndSplineSet
EndChar

StartChar: adieresis
Encoding: 228 228 165
Width: 401
GlyphClass: 2
Flags: MW
HStem: -8 58.999<89.5337 109.913> 0 21G<193.426 258.426 193.426 193.426> 243.999 51.001<142.758 258.531 178.531 246.758> 465 60<210.298 244.445> 578.999 86<156.953 212.099 137.099 231.953 156.953 289.099 308.953 364.099>
LayerCount: 2
Fore
SplineSet
332.512695312 485.5 m 0xb8
 351.765625 459.166992188 355.928710938 422.333007812 345.000976562 375 c 2
 258.42578125 0 l 1
 193.42578125 0 l 1x78
 204.5078125 48 l 1
 172.555664062 10.6669921875 133.24609375 -8 86.5791015625 -8 c 0
 43.912109375 -8 14.361328125 5.5 -2.072265625 32.5 c 0
 -18.505859375 59.5 -21.1044921875 97.3330078125 -9.8681640625 146 c 0
 0.9052734375 192.666992188 22.4990234375 229.166992188 54.9111328125 255.5 c 0
 87.32421875 281.833007812 128.53125 295 178.53125 295 c 2
 258.53125 295 l 1
 277.693359375 378 l 2
 291.083007812 436 271.111328125 465 217.778320312 465 c 0
 193.111328125 465 172.572265625 458.333007812 156.161132812 445 c 0
 139.75 431.666992188 128.7734375 413 123.232421875 389 c 2
 121.385742188 381 l 1
 57.3857421875 381 l 1
 59.462890625 390 l 2
 69.16015625 432 89.611328125 465 120.819335938 489 c 0
 152.02734375 513 188.96484375 525 231.631835938 525 c 0
 279.631835938 525 313.258789062 511.833007812 332.512695312 485.5 c 0xb8
185.586914062 76.4990234375 m 0
 204.51171875 93.4990234375 217.513671875 117.33203125 224.59375 147.999023438 c 2
 246.7578125 243.999023438 l 1
 173.7578125 243.999023438 l 2
 111.7578125 243.999023438 73.29296875 211.666015625 58.36328125 146.999023438 c 0
 43.587890625 82.9990234375 62.8671875 50.9990234375 116.200195312 50.9990234375 c 0xb8
 143.533203125 50.9990234375 166.662109375 59.4990234375 185.586914062 76.4990234375 c 0
156.953125 664.999023438 m 1
 231.953125 664.999023438 l 1
 212.098632812 578.999023438 l 1
 137.098632812 578.999023438 l 1
 156.953125 664.999023438 l 1
308.953125 664.999023438 m 1
 383.953125 664.999023438 l 1
 364.098632812 578.999023438 l 1
 289.098632812 578.999023438 l 1
 308.953125 664.999023438 l 1
EndSplineSet
EndChar

StartChar: aring
Encoding: 229 229 166
Width: 401
GlyphClass: 2
Flags: MW
HStem: -8 58.999<89.5337 109.913> 0 21G<193.426 258.426 193.426 193.426> 243.999 51.001<142.758 258.531 178.531 246.758> 465 60<210.298 244.445> 555.999 39<246.792 257.788> 696 37.999<273.216 284.444>
LayerCount: 2
Fore
SplineSet
332.512695312 485.5 m 0xbc
 351.765625 459.166992188 355.928710938 422.333007812 345.000976562 375 c 2
 258.42578125 0 l 1
 193.42578125 0 l 1x7c
 204.5078125 48 l 1
 172.555664062 10.6669921875 133.24609375 -8 86.5791015625 -8 c 0
 43.912109375 -8 14.361328125 5.5 -2.072265625 32.5 c 0
 -18.505859375 59.5 -21.1044921875 97.3330078125 -9.8681640625 146 c 0
 0.9052734375 192.666992188 22.4990234375 229.166992188 54.9111328125 255.5 c 0
 87.32421875 281.833007812 128.53125 295 178.53125 295 c 2
 258.53125 295 l 1
 277.693359375 378 l 2
 291.083007812 436 271.111328125 465 217.778320312 465 c 0
 193.111328125 465 172.572265625 458.333007812 156.161132812 445 c 0
 139.75 431.666992188 128.7734375 413 123.232421875 389 c 2
 121.385742188 381 l 1
 57.3857421875 381 l 1
 59.462890625 390 l 2
 69.16015625 432 89.611328125 465 120.819335938 489 c 0
 152.02734375 513 188.96484375 525 231.631835938 525 c 0
 279.631835938 525 313.258789062 511.833007812 332.512695312 485.5 c 0xbc
185.586914062 76.4990234375 m 0
 204.51171875 93.4990234375 217.513671875 117.33203125 224.59375 147.999023438 c 2
 246.7578125 243.999023438 l 1
 173.7578125 243.999023438 l 2
 111.7578125 243.999023438 73.29296875 211.666015625 58.36328125 146.999023438 c 0
 43.587890625 82.9990234375 62.8671875 50.9990234375 116.200195312 50.9990234375 c 0xbc
 143.533203125 50.9990234375 166.662109375 59.4990234375 185.586914062 76.4990234375 c 0
187.67578125 581.499023438 m 0
 174.93359375 598.499023438 171.487304688 619.666015625 177.3359375 644.999023438 c 0
 183.18359375 670.33203125 196.404296875 691.499023438 216.995117188 708.499023438 c 0
 237.586914062 725.499023438 260.549804688 733.999023438 285.8828125 733.999023438 c 0
 311.8828125 733.999023438 331.419921875 725.499023438 344.495117188 708.499023438 c 0
 357.571289062 691.499023438 361.18359375 670.33203125 355.3359375 644.999023438 c 0
 349.487304688 619.666015625 336.100585938 598.499023438 315.17578125 581.499023438 c 0
 294.250976562 564.499023438 270.788085938 555.999023438 244.788085938 555.999023438 c 0
 219.455078125 555.999023438 200.41796875 564.499023438 187.67578125 581.499023438 c 0
292.524414062 608.999023438 m 0
 303.678710938 618.33203125 310.94921875 630.333007812 314.3359375 645 c 0
 317.72265625 659.668945312 316.03125 671.8359375 309.262695312 681.5 c 0
 302.494140625 691.166992188 291.77734375 696 277.110351562 696 c 0
 263.110351562 696 250.494140625 691.166992188 239.262695312 681.5 c 0
 228.030273438 671.833007812 220.721679688 659.666015625 217.3359375 644.999023438 c 0
 213.94921875 630.33203125 215.678710938 618.33203125 222.524414062 608.999023438 c 0
 229.369140625 599.666015625 239.791992188 594.999023438 253.791992188 594.999023438 c 0
 268.458984375 594.999023438 281.369140625 599.666015625 292.524414062 608.999023438 c 0
EndSplineSet
EndChar

StartChar: ae
Encoding: 230 230 167
Width: 633
GlyphClass: 2
Flags: MW
HStem: -8 58.999<89.5298 109.912> 239 51.999<313.604 498.604 325.604 498.604 325.604 554.604> 465 60<210.298 244.445>
LayerCount: 2
Fore
SplineSet
313.603515625 239 m 1
 299.28515625 176.999023438 l 2
 288.819335938 131.666015625 289.1875 99.3330078125 300.391601562 80 c 0
 311.594726562 60.6669921875 331.530273438 51 360.197265625 51 c 0
 386.864257812 51 409.326171875 59.5 427.583984375 76.5 c 0
 445.841796875 93.5 458.97265625 119.333007812 466.9765625 154 c 2
 467.900390625 158 l 1
 534.900390625 158 l 1
 534.20703125 155 l 2
 521.740234375 101 499.184570312 60.3330078125 466.541015625 33 c 0
 433.8984375 5.6669921875 393.91015625 -8 346.577148438 -8 c 0
 289.244140625 -8 251.374023438 11.3330078125 232.967773438 50 c 1
 215.325195312 31.3330078125 194.849609375 17 171.541015625 7 c 0
 148.232421875 -3 123.245117188 -8 96.578125 -8 c 0
 51.2451171875 -8 19.3232421875 5.3330078125 0.8125 32 c 0
 -17.6982421875 58.6669921875 -21.412109375 96 -10.330078125 144 c 0
 0.2900390625 190 21.767578125 226 54.103515625 252 c 0
 86.439453125 278 127.607421875 291 177.607421875 291 c 2
 257.607421875 291 l 1
 277.693359375 378 l 2
 291.083007812 436 271.111328125 465 217.778320312 465 c 0
 193.111328125 465 172.572265625 458.333007812 156.161132812 445 c 0
 139.75 431.666992188 128.7734375 413 123.232421875 389 c 2
 121.385742188 381 l 1
 57.3857421875 381 l 1
 59.462890625 390 l 2
 69.16015625 432 89.611328125 465 120.819335938 489 c 0
 152.02734375 513 188.96484375 525 231.631835938 525 c 0
 285.631835938 525 321.193359375 508.666992188 338.319335938 476 c 1
 372.52734375 508.666992188 414.965820312 525 465.6328125 525 c 0
 513.6328125 525 547.92578125 509.666992188 568.51171875 479 c 0
 589.098632812 448.333007812 592.465820312 403 578.61328125 343 c 2
 554.603515625 239 l 1
 313.603515625 239 l 1
381.580078125 435.999023438 m 0
 362.270507812 417.33203125 347.459960938 385.665039062 337.147460938 340.999023438 c 2
 325.604492188 290.999023438 l 1
 498.604492188 290.999023438 l 1
 510.609375 342.999023438 l 2
 520.61328125 386.33203125 520.4375 417.33203125 510.080078125 435.999023438 c 0
 499.72265625 454.666015625 480.543945312 463.999023438 452.543945312 463.999023438 c 0
 424.543945312 463.999023438 400.889648438 454.666015625 381.580078125 435.999023438 c 0
245.830078125 239.999023438 m 1
 172.830078125 239.999023438 l 2
 110.830078125 239.999023438 72.51953125 208.33203125 57.8974609375 144.999023438 c 0
 43.4296875 82.33203125 62.86328125 50.9990234375 116.196289062 50.9990234375 c 0
 143.529296875 50.9990234375 166.697265625 59.666015625 185.698242188 76.9990234375 c 0
 204.700195312 94.33203125 217.741210938 118.33203125 224.821289062 148.999023438 c 2
 245.830078125 239.999023438 l 1
EndSplineSet
EndChar

StartChar: ccedilla
Encoding: 231 231 168
Width: 409
GlyphClass: 2
Flags: MW
HStem: -152.002 21G<12.333 88.333 12.333 12.333> 463.998 61.001<218.963 258.548>
LayerCount: 2
Fore
SplineSet
287.305664062 346 m 1
 290.538085938 359.998046875 l 2
 306.544921875 429.331054688 286.547851562 463.998046875 230.547851562 463.998046875 c 0
 201.21484375 463.998046875 176.893554688 454.665039062 157.583984375 435.998046875 c 0
 138.274414062 417.331054688 123.462890625 385.6640625 113.151367188 340.998046875 c 2
 75.0576171875 175.998046875 l 2
 64.74609375 131.331054688 64.9345703125 99.6640625 75.625 80.9970703125 c 0
 86.3154296875 62.330078125 105.994140625 52.9970703125 134.661132812 52.9970703125 c 0
 191.328125 52.9970703125 227.665039062 87.6640625 243.670898438 156.997070312 c 2
 246.903320312 170.997070312 l 1
 314.903320312 170.997070312 l 1
 311.90234375 157.997070312 l 2
 301.744140625 113.997070312 285.125 78.830078125 262.045898438 52.4970703125 c 0
 238.965820312 26.1640625 210.348632812 8.3310546875 176.194335938 -1.001953125 c 1
 88.3330078125 -152.001953125 l 1
 12.3330078125 -152.001953125 l 1
 106.578125 -8.001953125 l 1
 13.4501953125 -1.3349609375 -20.337890625 57.33203125 5.2109375 167.999023438 c 2
 46.998046875 348.999023438 l 2
 61.0048828125 409.666015625 84.9453125 454.166015625 118.819335938 482.499023438 c 0
 152.693359375 510.83203125 194.296875 524.999023438 243.629882812 524.999023438 c 0
 292.296875 524.999023438 326.80859375 511.33203125 347.166015625 483.999023438 c 0
 367.522460938 456.666015625 371.3125 415.333007812 358.538085938 360 c 2
 355.305664062 346 l 1
 287.305664062 346 l 1
EndSplineSet
EndChar

StartChar: egrave
Encoding: 232 232 169
Width: 408
GlyphClass: 2
Flags: MW
HStem: -8 59<121.867 144.579> 238 51.999<89.3721 274.377 101.377 274.377 101.377 329.372> 463.999 61.001<216.632 241.548>
LayerCount: 2
Fore
SplineSet
89.3720703125 238 m 1
 75.2890625 176.999023438 l 2
 64.8232421875 131.666015625 65.19140625 99.3330078125 76.3955078125 80 c 0
 87.5986328125 60.6669921875 107.534179688 51 136.200195312 51 c 0
 190.8671875 51 226.125976562 85.3330078125 241.979492188 154 c 2
 242.903320312 158 l 1
 309.903320312 158 l 1
 309.209960938 155 l 2
 296.743164062 101 274.1875 60.3330078125 241.543945312 33 c 0
 208.901367188 5.6669921875 168.579101562 -8 120.579101562 -8 c 0
 16.5791015625 -8 -21.26171875 53.3330078125 7.05859375 176 c 2
 45.61328125 343 l 2
 59.4658203125 403 83.431640625 448.333007812 117.51171875 479 c 0
 151.591796875 509.666992188 192.631835938 525 240.631835938 525 c 0
 288.631835938 525 322.924804688 509.666992188 343.51171875 479 c 0
 364.098632812 448.333007812 367.465820312 403 353.61328125 343 c 2
 329.372070312 238 l 1
 89.3720703125 238 l 1
156.96875 435.499023438 m 0
 137.915039062 416.499023438 123.309570312 384.999023438 113.151367188 340.999023438 c 2
 101.376953125 289.999023438 l 1
 274.376953125 289.999023438 l 1
 286.61328125 342.999023438 l 2
 296.6171875 386.33203125 296.274414062 417.33203125 285.583984375 435.999023438 c 0
 274.893554688 454.666015625 255.547851562 463.999023438 227.547851562 463.999023438 c 0
 199.547851562 463.999023438 176.022460938 454.499023438 156.96875 435.499023438 c 0
247.405273438 575.999023438 m 1
 168.1875 704.999023438 l 1
 242.1875 704.999023438 l 1
 303.405273438 575.999023438 l 1
 247.405273438 575.999023438 l 1
EndSplineSet
EndChar

StartChar: eacute
Encoding: 233 233 170
Width: 408
GlyphClass: 2
Flags: MW
HStem: -8 59<121.867 144.579> 238 51.999<89.3721 274.377 101.377 274.377 101.377 329.372> 463.999 61.001<216.632 241.548>
LayerCount: 2
Fore
SplineSet
89.3720703125 238 m 1
 75.2890625 176.999023438 l 2
 64.8232421875 131.666015625 65.19140625 99.3330078125 76.3955078125 80 c 0
 87.5986328125 60.6669921875 107.534179688 51 136.200195312 51 c 0
 190.8671875 51 226.125976562 85.3330078125 241.979492188 154 c 2
 242.903320312 158 l 1
 309.903320312 158 l 1
 309.209960938 155 l 2
 296.743164062 101 274.1875 60.3330078125 241.543945312 33 c 0
 208.901367188 5.6669921875 168.579101562 -8 120.579101562 -8 c 0
 16.5791015625 -8 -21.26171875 53.3330078125 7.05859375 176 c 2
 45.61328125 343 l 2
 59.4658203125 403 83.431640625 448.333007812 117.51171875 479 c 0
 151.591796875 509.666992188 192.631835938 525 240.631835938 525 c 0
 288.631835938 525 322.924804688 509.666992188 343.51171875 479 c 0
 364.098632812 448.333007812 367.465820312 403 353.61328125 343 c 2
 329.372070312 238 l 1
 89.3720703125 238 l 1
156.96875 435.499023438 m 0
 137.915039062 416.499023438 123.309570312 384.999023438 113.151367188 340.999023438 c 2
 101.376953125 289.999023438 l 1
 274.376953125 289.999023438 l 1
 286.61328125 342.999023438 l 2
 296.6171875 386.33203125 296.274414062 417.33203125 285.583984375 435.999023438 c 0
 274.893554688 454.666015625 255.547851562 463.999023438 227.547851562 463.999023438 c 0
 199.547851562 463.999023438 176.022460938 454.499023438 156.96875 435.499023438 c 0
306.1875 704.999023438 m 1
 380.1875 704.999023438 l 1
 241.405273438 575.999023438 l 1
 185.405273438 575.999023438 l 1
 306.1875 704.999023438 l 1
EndSplineSet
EndChar

StartChar: ecircumflex
Encoding: 234 234 171
Width: 408
GlyphClass: 2
Flags: MW
HStem: -8 59<121.867 144.579> 238 51.999<89.3721 274.377 101.377 274.377 101.377 329.372> 463.999 61.001<216.632 241.548>
LayerCount: 2
Fore
SplineSet
89.3720703125 238 m 1
 75.2890625 176.999023438 l 2
 64.8232421875 131.666015625 65.19140625 99.3330078125 76.3955078125 80 c 0
 87.5986328125 60.6669921875 107.534179688 51 136.200195312 51 c 0
 190.8671875 51 226.125976562 85.3330078125 241.979492188 154 c 2
 242.903320312 158 l 1
 309.903320312 158 l 1
 309.209960938 155 l 2
 296.743164062 101 274.1875 60.3330078125 241.543945312 33 c 0
 208.901367188 5.6669921875 168.579101562 -8 120.579101562 -8 c 0
 16.5791015625 -8 -21.26171875 53.3330078125 7.05859375 176 c 2
 45.61328125 343 l 2
 59.4658203125 403 83.431640625 448.333007812 117.51171875 479 c 0
 151.591796875 509.666992188 192.631835938 525 240.631835938 525 c 0
 288.631835938 525 322.924804688 509.666992188 343.51171875 479 c 0
 364.098632812 448.333007812 367.465820312 403 353.61328125 343 c 2
 329.372070312 238 l 1
 89.3720703125 238 l 1
156.96875 435.499023438 m 0
 137.915039062 416.499023438 123.309570312 384.999023438 113.151367188 340.999023438 c 2
 101.376953125 289.999023438 l 1
 274.376953125 289.999023438 l 1
 286.61328125 342.999023438 l 2
 296.6171875 386.33203125 296.274414062 417.33203125 285.583984375 435.999023438 c 0
 274.893554688 454.666015625 255.547851562 463.999023438 227.547851562 463.999023438 c 0
 199.547851562 463.999023438 176.022460938 454.499023438 156.96875 435.499023438 c 0
247.573242188 710.999023438 m 1
 311.573242188 710.999023438 l 1
 378.55859375 567.999023438 l 1
 311.55859375 567.999023438 l 1
 269.336914062 657.999023438 l 1
 184.55859375 567.999023438 l 1
 117.55859375 567.999023438 l 1
 247.573242188 710.999023438 l 1
EndSplineSet
EndChar

StartChar: edieresis
Encoding: 235 235 172
Width: 408
GlyphClass: 2
Flags: MW
HStem: -8 59<121.867 144.579> 238 51.999<89.3721 274.377 101.377 274.377 101.377 329.372> 463.999 61.001<216.632 241.548> 578.999 86<155.953 211.099 136.099 230.953 155.953 288.099 307.953 363.099>
LayerCount: 2
Fore
SplineSet
89.3720703125 238 m 1
 75.2890625 176.999023438 l 2
 64.8232421875 131.666015625 65.19140625 99.3330078125 76.3955078125 80 c 0
 87.5986328125 60.6669921875 107.534179688 51 136.200195312 51 c 0
 190.8671875 51 226.125976562 85.3330078125 241.979492188 154 c 2
 242.903320312 158 l 1
 309.903320312 158 l 1
 309.209960938 155 l 2
 296.743164062 101 274.1875 60.3330078125 241.543945312 33 c 0
 208.901367188 5.6669921875 168.579101562 -8 120.579101562 -8 c 0
 16.5791015625 -8 -21.26171875 53.3330078125 7.05859375 176 c 2
 45.61328125 343 l 2
 59.4658203125 403 83.431640625 448.333007812 117.51171875 479 c 0
 151.591796875 509.666992188 192.631835938 525 240.631835938 525 c 0
 288.631835938 525 322.924804688 509.666992188 343.51171875 479 c 0
 364.098632812 448.333007812 367.465820312 403 353.61328125 343 c 2
 329.372070312 238 l 1
 89.3720703125 238 l 1
156.96875 435.499023438 m 0
 137.915039062 416.499023438 123.309570312 384.999023438 113.151367188 340.999023438 c 2
 101.376953125 289.999023438 l 1
 274.376953125 289.999023438 l 1
 286.61328125 342.999023438 l 2
 296.6171875 386.33203125 296.274414062 417.33203125 285.583984375 435.999023438 c 0
 274.893554688 454.666015625 255.547851562 463.999023438 227.547851562 463.999023438 c 0
 199.547851562 463.999023438 176.022460938 454.499023438 156.96875 435.499023438 c 0
155.953125 664.999023438 m 1
 230.953125 664.999023438 l 1
 211.098632812 578.999023438 l 1
 136.098632812 578.999023438 l 1
 155.953125 664.999023438 l 1
307.953125 664.999023438 m 1
 382.953125 664.999023438 l 1
 363.098632812 578.999023438 l 1
 288.098632812 578.999023438 l 1
 307.953125 664.999023438 l 1
EndSplineSet
EndChar

StartChar: igrave
Encoding: 236 236 173
Width: 198
GlyphClass: 2
Flags: MW
HStem: 0 21G<-18.5742 49.4258 -18.5742 -18.5742> 497 20G<100.784 168.784 168.784 168.784>
VStem: -18.5742 220.98
LayerCount: 2
Fore
SplineSet
100.784179688 517 m 1
 168.784179688 517 l 1
 49.42578125 0 l 1
 -18.57421875 0 l 1
 100.784179688 517 l 1
146.40625 576 m 1
 67.1875 705 l 1
 141.1875 705 l 1
 202.40625 576 l 1
 146.40625 576 l 1
EndSplineSet
EndChar

StartChar: iacute
Encoding: 237 237 174
Width: 198
GlyphClass: 2
Flags: MW
HStem: 0 21G<-18.5742 49.4258 -18.5742 -18.5742> 497 20G<100.784 168.784 168.784 168.784>
VStem: -18.5742 297.762
LayerCount: 2
Fore
SplineSet
100.784179688 517 m 1
 168.784179688 517 l 1
 49.42578125 0 l 1
 -18.57421875 0 l 1
 100.784179688 517 l 1
205.1875 705 m 1
 279.1875 705 l 1
 140.40625 576 l 1
 84.40625 576 l 1
 205.1875 705 l 1
EndSplineSet
EndChar

